{"glyphs":{"0":{"ha":514,"x_min":0,"x_max":0,"o":"m 475 638 b 260 931 475 835 399 931 b 38 635 115 931 38 826 l 38 288 b 260 -8 38 96 115 -8 b 475 285 399 -8 475 86 z m 353 283 b 257 107 353 164 319 107 b 161 285 194 107 161 168 l 161 638 b 257 815 161 754 194 815 b 353 639 319 815 353 757 z "},"1":{"ha":275,"x_min":0,"x_max":0,"o":"m 238 0 l 238 922 l 133 922 b 26 828 126 853 107 828 l 26 729 l 118 729 l 118 0 z "},"2":{"ha":496,"x_min":0,"x_max":0,"o":"m 465 0 l 465 110 l 161 110 l 161 174 b 208 301 161 211 167 254 b 406 485 251 351 354 428 b 464 654 444 529 464 574 l 464 715 b 254 931 464 861 424 931 b 43 690 71 931 43 849 l 43 638 l 160 638 l 160 701 b 253 814 160 775 176 814 b 346 711 325 814 346 781 l 346 660 b 308 540 346 607 339 575 b 104 353 261 485 163 421 b 38 149 53 293 38 239 l 38 0 z "},"3":{"ha":496,"x_min":0,"x_max":0,"o":"m 468 331 b 357 489 468 433 415 478 l 357 494 b 454 643 419 506 454 558 l 454 729 b 249 931 454 828 393 931 b 38 704 115 931 38 842 l 38 661 l 156 661 l 156 715 b 247 814 156 774 189 814 b 339 717 311 814 339 771 l 339 631 b 244 539 339 576 321 539 l 182 539 l 182 435 l 240 435 b 344 339 318 435 344 400 l 344 217 b 247 107 344 144 311 107 b 156 215 186 107 156 142 l 156 268 l 38 268 l 38 222 b 250 -8 38 68 111 -8 b 468 225 393 -8 468 75 z "},"4":{"ha":506,"x_min":0,"x_max":0,"o":"m 297 328 l 110 328 l 292 750 l 297 750 z m 414 0 l 414 224 l 479 224 l 479 328 l 414 328 l 414 922 l 268 922 l 26 325 l 26 224 l 294 224 l 294 0 z "},"5":{"ha":504,"x_min":0,"x_max":0,"o":"m 467 397 b 297 586 467 544 390 586 b 158 532 224 586 185 561 l 153 532 l 167 813 l 439 813 l 439 922 l 60 922 l 39 436 l 161 436 b 256 479 182 463 208 479 b 343 386 307 479 343 460 l 343 217 b 249 107 343 146 311 107 b 156 214 199 107 156 132 l 156 238 l 38 238 l 38 219 b 250 -8 38 38 144 -8 b 467 225 393 -8 467 75 z "},"6":{"ha":504,"x_min":0,"x_max":0,"o":"m 467 425 b 314 592 467 531 406 592 b 167 503 240 592 192 550 l 161 503 l 161 703 b 257 814 161 776 192 814 b 349 713 317 814 349 779 l 349 690 l 467 690 l 467 718 b 256 931 467 856 390 931 b 38 693 111 931 38 844 l 38 225 b 254 -8 38 75 110 -8 b 467 222 393 -8 467 67 z m 349 215 b 256 107 349 142 317 107 b 161 217 192 107 161 144 l 161 400 b 268 488 179 458 217 488 b 349 397 318 488 349 458 z "},"7":{"ha":418,"x_min":0,"x_max":0,"o":"m 219 0 b 393 822 219 238 319 624 l 393 922 l 26 922 l 26 810 l 283 810 b 99 0 214 628 106 232 z "},"8":{"ha":494,"x_min":0,"x_max":0,"o":"m 338 631 b 247 539 338 576 321 539 b 157 631 174 539 157 576 l 157 717 b 247 814 157 771 185 814 b 338 717 310 814 338 771 z m 344 217 b 247 107 344 144 311 107 b 150 217 183 107 150 144 l 150 343 b 247 435 150 401 175 435 b 344 343 319 435 344 401 z m 467 331 b 356 489 467 431 415 478 l 356 494 b 453 643 419 506 453 557 l 453 729 b 247 931 453 828 392 931 b 42 729 103 931 42 828 l 42 643 b 139 494 42 557 75 506 l 139 489 b 28 331 79 478 28 431 l 28 225 b 247 -8 28 74 101 -8 b 467 225 393 -8 467 74 z "},"9":{"ha":504,"x_min":0,"x_max":0,"o":"m 343 219 b 247 108 343 146 311 108 b 156 210 186 108 156 142 l 156 246 l 40 246 l 40 204 b 250 -8 40 67 114 -8 b 467 229 393 -8 467 76 l 467 697 b 250 931 467 849 394 931 b 38 700 111 931 38 856 l 38 519 b 190 353 38 414 99 353 b 338 442 264 353 311 393 l 343 442 z m 343 543 b 236 457 325 485 288 457 b 156 547 185 457 156 486 l 156 707 b 249 815 156 781 188 815 b 343 706 313 815 343 778 z "},"\u0017":{"ha":164,"x_min":0,"x_max":0,"o":""}," ":{"ha":164,"x_min":0,"x_max":0,"o":""},"!":{"ha":232,"x_min":0,"x_max":0,"o":"m 175 0 l 175 167 l 54 167 l 54 0 z m 160 269 b 182 697 174 404 182 547 l 182 922 l 50 922 l 50 657 b 72 269 50 522 60 393 z "},"\"":{"ha":335,"x_min":0,"x_max":0,"o":"m 133 594 l 133 933 l 38 933 l 38 594 z m 296 594 l 296 933 l 200 933 l 200 594 z "},"#":{"ha":546,"x_min":0,"x_max":0,"o":"m 186 0 l 208 283 l 307 283 l 283 0 l 372 0 l 394 283 l 475 283 l 485 368 l 401 368 l 418 561 l 497 561 l 506 646 l 425 646 l 447 922 l 361 922 l 338 646 l 239 646 l 261 922 l 174 922 l 150 646 l 71 646 l 64 561 l 143 561 l 128 368 l 50 368 l 43 283 l 121 283 l 97 0 z m 232 561 l 331 561 l 314 368 l 215 368 z "},"$":{"ha":532,"x_min":0,"x_max":0,"o":"m 311 -83 l 311 10 b 494 235 439 25 494 101 l 494 275 b 424 444 494 356 469 403 b 228 578 367 497 296 525 b 165 679 175 618 165 644 l 165 710 b 263 803 165 763 196 803 b 361 694 332 803 361 761 l 361 650 l 478 650 l 478 667 b 311 911 478 799 442 893 l 311 1014 l 215 1014 l 215 911 b 42 710 101 897 42 828 l 42 667 b 131 493 42 594 82 538 b 314 364 193 436 268 403 b 364 268 346 338 364 307 l 364 236 b 260 118 364 165 342 118 b 156 229 186 118 156 154 l 156 276 l 38 276 l 38 246 b 215 11 38 100 92 25 l 215 -83 z "},"%":{"ha":553,"x_min":0,"x_max":0,"o":"m 160 -26 l 472 949 l 396 949 l 83 -26 z m 239 779 b 131 926 239 879 200 926 b 19 779 58 926 19 875 l 19 611 b 131 463 19 514 58 463 b 239 608 200 463 239 510 z m 172 608 b 131 525 172 551 157 525 b 88 608 101 525 88 553 l 88 781 b 129 864 88 835 101 864 b 172 781 157 864 172 836 z m 533 313 b 425 460 533 413 494 460 b 314 313 353 460 314 408 l 314 144 b 425 -4 314 47 353 -4 b 533 142 494 -4 533 43 z m 467 142 b 425 58 467 85 451 58 b 382 142 396 58 382 86 l 382 314 b 424 397 382 368 396 397 b 467 314 451 397 467 369 z "},"&":{"ha":500,"x_min":0,"x_max":0,"o":"m 38 225 b 256 -8 38 75 113 -8 b 468 222 394 -8 468 68 l 468 539 l 358 539 l 358 244 b 263 107 358 154 338 107 b 161 217 196 107 161 144 l 161 339 b 257 435 161 400 185 435 l 308 435 l 308 539 l 261 539 b 167 631 185 539 167 569 l 167 708 b 258 806 167 763 194 806 l 311 806 l 311 922 l 257 922 b 51 721 113 922 51 821 l 51 643 b 149 494 51 557 86 506 l 149 489 b 38 331 90 478 38 433 z "},"'":{"ha":171,"x_min":0,"x_max":0,"o":"m 133 594 l 133 933 l 38 933 l 38 594 z "},"(":{"ha":319,"x_min":0,"x_max":0,"o":"m 294 -199 b 171 413 213 -19 171 206 b 294 1011 171 618 214 839 l 206 1011 b 64 414 113 856 64 626 b 206 -199 64 194 115 -42 z "},")":{"ha":319,"x_min":0,"x_max":0,"o":"m 114 -199 b 257 414 206 -42 257 194 b 114 1011 257 626 207 856 l 26 1011 b 150 413 107 839 150 618 b 26 -199 150 206 107 -19 z "},"*":{"ha":461,"x_min":0,"x_max":0,"o":"m 385 564 l 288 700 l 442 750 l 418 814 l 267 765 l 267 933 l 192 933 l 192 765 l 40 814 l 19 750 l 172 700 l 75 564 l 133 524 l 229 656 l 329 524 z "},"+":{"ha":478,"x_min":0,"x_max":0,"o":"m 285 261 l 285 418 l 439 418 l 439 513 l 285 513 l 285 663 l 190 663 l 190 513 l 38 513 l 38 418 l 190 418 l 190 261 z "},",":{"ha":197,"x_min":0,"x_max":0,"o":"m 38 -229 b 160 -25 118 -207 160 -144 l 160 167 l 38 167 l 38 0 l 92 0 l 92 -40 b 38 -157 92 -101 74 -135 z "},"-":{"ha":244,"x_min":0,"x_max":0,"o":"m 213 368 l 213 472 l 31 472 l 31 368 z "},"­":{"ha":244,"x_min":0,"x_max":0,"o":"m 213 368 l 213 472 l 31 472 l 31 368 z "},".":{"ha":197,"x_min":0,"x_max":0,"o":"m 160 0 l 160 167 l 38 167 l 38 0 z "},"/":{"ha":300,"x_min":0,"x_max":0,"o":"m 110 0 l 290 922 l 190 922 l 10 0 z "},"З":{"ha":496,"x_min":0,"x_max":0,"o":"m 468 331 b 357 489 468 433 415 478 l 357 494 b 454 643 419 506 454 558 l 454 729 b 249 931 454 828 393 931 b 38 704 115 931 38 842 l 38 661 l 156 661 l 156 715 b 247 814 156 774 189 814 b 339 717 311 814 339 771 l 339 631 b 244 539 339 576 321 539 l 182 539 l 182 435 l 240 435 b 344 339 318 435 344 400 l 344 217 b 247 107 344 144 311 107 b 156 215 186 107 156 142 l 156 268 l 38 268 l 38 222 b 250 -8 38 68 111 -8 b 468 225 393 -8 468 75 z "},":":{"ha":197,"x_min":0,"x_max":0,"o":"m 160 7 l 160 174 l 38 174 l 38 7 z m 160 510 l 160 676 l 38 676 l 38 510 z "},";":{"ha":197,"x_min":0,"x_max":0,"o":"m 160 510 l 160 676 l 38 676 l 38 510 z m 38 -222 b 160 -18 118 -200 160 -137 l 160 174 l 38 174 l 38 7 l 92 7 l 92 -33 b 38 -151 92 -94 74 -128 z "},"<":{"ha":478,"x_min":0,"x_max":0,"o":"m 439 214 l 439 318 l 142 458 l 142 464 l 439 606 l 439 713 l 38 513 l 38 411 z "},"=":{"ha":478,"x_min":0,"x_max":0,"o":"m 439 547 l 439 642 l 38 642 l 38 547 z m 439 283 l 439 378 l 38 378 l 38 283 z "},">":{"ha":478,"x_min":0,"x_max":0,"o":"m 439 411 l 439 513 l 38 713 l 38 606 l 336 464 l 336 458 l 38 318 l 38 214 z "},"?":{"ha":482,"x_min":0,"x_max":0,"o":"m 301 0 l 301 165 l 181 165 l 181 0 z m 299 268 l 299 315 b 318 400 299 347 306 374 b 428 565 347 461 399 503 b 447 658 439 589 447 617 l 447 706 b 242 931 447 858 419 931 b 28 689 43 931 28 840 l 28 654 l 144 654 l 144 697 b 240 814 144 768 154 814 b 329 708 314 814 329 779 l 329 671 b 317 601 329 639 324 618 b 213 446 296 550 247 510 b 183 333 196 415 183 381 l 183 268 z "},"@":{"ha":650,"x_min":0,"x_max":0,"o":"m 508 -6 b 339 -32 460 -24 404 -32 b 119 208 138 -32 119 47 l 119 539 b 331 790 119 706 142 790 b 533 542 514 790 533 711 l 533 246 b 492 182 533 204 521 182 b 453 224 465 182 453 200 l 453 642 l 396 642 l 390 596 l 386 596 b 296 649 371 629 343 649 b 201 476 213 649 201 586 l 201 281 b 300 115 201 171 217 115 b 390 167 339 115 367 128 l 396 167 b 479 115 407 133 431 115 b 611 268 564 115 611 167 l 611 543 b 329 867 611 763 564 867 b 38 539 89 867 38 758 l 38 208 b 338 -117 38 -7 86 -117 b 536 -78 426 -117 493 -103 z m 276 521 b 326 578 276 560 293 578 b 383 497 365 578 383 551 l 383 269 b 324 189 383 210 358 189 b 276 244 293 189 276 204 z "},"A":{"ha":517,"x_min":0,"x_max":0,"o":"m 499 0 l 342 922 l 174 922 l 17 0 l 138 0 l 171 217 l 340 217 l 376 0 z m 253 728 l 258 728 l 324 324 l 188 324 z "},"Α":{"ha":517,"x_min":0,"x_max":0,"o":"m 499 0 l 342 922 l 174 922 l 17 0 l 138 0 l 171 217 l 340 217 l 376 0 z m 253 728 l 258 728 l 324 324 l 188 324 z "},"А":{"ha":517,"x_min":0,"x_max":0,"o":"m 499 0 l 342 922 l 174 922 l 17 0 l 138 0 l 171 217 l 340 217 l 376 0 z m 253 728 l 258 728 l 324 324 l 188 324 z "},"B":{"ha":506,"x_min":0,"x_max":0,"o":"m 307 0 b 476 158 431 0 476 53 l 476 333 b 371 486 476 432 440 474 l 371 492 b 464 643 435 507 464 558 l 464 738 b 289 922 464 854 417 922 l 38 922 l 38 0 z m 353 197 b 269 108 353 138 328 108 l 160 108 l 160 432 l 265 432 b 353 342 328 432 353 406 z m 347 631 b 267 536 347 560 315 536 l 160 536 l 160 814 l 265 814 b 347 719 328 814 347 782 z "},"Β":{"ha":506,"x_min":0,"x_max":0,"o":"m 307 0 b 476 158 431 0 476 53 l 476 333 b 371 486 476 432 440 474 l 371 492 b 464 643 435 507 464 558 l 464 738 b 289 922 464 854 417 922 l 38 922 l 38 0 z m 353 197 b 269 108 353 138 328 108 l 160 108 l 160 432 l 265 432 b 353 342 328 432 353 406 z m 347 631 b 267 536 347 560 315 536 l 160 536 l 160 814 l 265 814 b 347 719 328 814 347 782 z "},"В":{"ha":506,"x_min":0,"x_max":0,"o":"m 307 0 b 476 158 431 0 476 53 l 476 333 b 371 486 476 432 440 474 l 371 492 b 464 643 435 507 464 558 l 464 738 b 289 922 464 854 417 922 l 38 922 l 38 0 z m 353 197 b 269 108 353 138 328 108 l 160 108 l 160 432 l 265 432 b 353 342 328 432 353 406 z m 347 631 b 267 536 347 560 315 536 l 160 536 l 160 814 l 265 814 b 347 719 328 814 347 782 z "},"C":{"ha":504,"x_min":0,"x_max":0,"o":"m 349 215 b 254 107 349 142 317 107 b 161 215 189 107 161 144 l 161 703 b 254 814 161 775 193 814 b 349 701 317 814 349 774 l 349 592 l 467 592 l 467 701 b 250 931 467 854 390 931 b 38 700 111 931 38 854 l 38 225 b 254 -8 38 75 111 -8 b 467 222 393 -8 467 68 l 467 376 l 349 376 z "},"С":{"ha":504,"x_min":0,"x_max":0,"o":"m 349 215 b 254 107 349 142 317 107 b 161 215 189 107 161 144 l 161 703 b 254 814 161 775 193 814 b 349 701 317 814 349 774 l 349 592 l 467 592 l 467 701 b 250 931 467 854 390 931 b 38 700 111 931 38 854 l 38 225 b 254 -8 38 75 111 -8 b 467 222 393 -8 467 68 l 467 376 l 349 376 z "},"D":{"ha":514,"x_min":0,"x_max":0,"o":"m 265 0 b 475 225 403 0 475 72 l 475 710 b 265 922 475 850 403 922 l 38 922 l 38 0 z m 160 113 l 160 810 l 250 810 b 351 665 332 810 351 754 l 351 260 b 257 113 351 168 332 113 z "},"E":{"ha":406,"x_min":0,"x_max":0,"o":"m 382 0 l 382 113 l 160 113 l 160 426 l 353 426 l 353 540 l 160 540 l 160 810 l 371 810 l 371 922 l 38 922 l 38 0 z "},"Ε":{"ha":406,"x_min":0,"x_max":0,"o":"m 382 0 l 382 113 l 160 113 l 160 426 l 353 426 l 353 540 l 160 540 l 160 810 l 371 810 l 371 922 l 38 922 l 38 0 z "},"Е":{"ha":406,"x_min":0,"x_max":0,"o":"m 382 0 l 382 113 l 160 113 l 160 426 l 353 426 l 353 540 l 160 540 l 160 810 l 371 810 l 371 922 l 38 922 l 38 0 z "},"F":{"ha":404,"x_min":0,"x_max":0,"o":"m 163 0 l 163 415 l 349 415 l 349 526 l 163 526 l 163 810 l 378 810 l 378 922 l 38 922 l 38 0 z "},"G":{"ha":504,"x_min":0,"x_max":0,"o":"m 467 0 l 467 493 l 244 493 l 244 382 l 349 382 l 349 200 b 251 107 338 136 304 107 b 161 217 193 107 161 144 l 161 703 b 254 814 161 775 193 814 b 349 701 317 814 349 774 l 349 638 l 467 638 l 467 690 b 251 931 467 840 392 931 b 38 693 113 931 38 843 l 38 225 b 235 -8 38 75 110 -8 b 374 71 314 -8 350 26 l 379 71 l 385 0 z "},"H":{"ha":519,"x_min":0,"x_max":0,"o":"m 481 0 l 481 922 l 357 922 l 357 544 l 163 544 l 163 922 l 38 922 l 38 0 l 163 0 l 163 433 l 357 433 l 357 0 z "},"Η":{"ha":519,"x_min":0,"x_max":0,"o":"m 481 0 l 481 922 l 357 922 l 357 544 l 163 544 l 163 922 l 38 922 l 38 0 l 163 0 l 163 433 l 357 433 l 357 0 z "},"Н":{"ha":519,"x_min":0,"x_max":0,"o":"m 481 0 l 481 922 l 357 922 l 357 544 l 163 544 l 163 922 l 38 922 l 38 0 l 163 0 l 163 433 l 357 433 l 357 0 z "},"I":{"ha":200,"x_min":0,"x_max":0,"o":"m 163 0 l 163 922 l 38 922 l 38 0 z "},"Ι":{"ha":200,"x_min":0,"x_max":0,"o":"m 163 0 l 163 922 l 38 922 l 38 0 z "},"І":{"ha":200,"x_min":0,"x_max":0,"o":"m 163 0 l 163 922 l 38 922 l 38 0 z "},"Ӏ":{"ha":200,"x_min":0,"x_max":0,"o":"m 163 0 l 163 922 l 38 922 l 38 0 z "},"ӏ":{"ha":200,"x_min":0,"x_max":0,"o":"m 163 0 l 163 922 l 38 922 l 38 0 z "},"J":{"ha":493,"x_min":0,"x_max":0,"o":"m 333 217 b 238 107 333 144 300 107 b 144 215 176 107 144 142 l 144 335 l 28 335 l 28 222 b 239 -8 28 68 100 -8 b 456 225 382 -8 456 75 l 456 922 l 333 922 z "},"Ј":{"ha":493,"x_min":0,"x_max":0,"o":"m 333 217 b 238 107 333 144 300 107 b 144 215 176 107 144 142 l 144 335 l 28 335 l 28 222 b 239 -8 28 68 100 -8 b 456 225 382 -8 456 75 l 456 922 l 333 922 z "},"K":{"ha":511,"x_min":0,"x_max":0,"o":"m 494 0 l 322 557 l 496 922 l 369 922 l 169 508 l 164 508 l 164 922 l 38 922 l 38 0 l 164 0 l 164 268 l 231 399 l 236 399 l 368 0 z "},"Κ":{"ha":511,"x_min":0,"x_max":0,"o":"m 494 0 l 322 557 l 496 922 l 369 922 l 169 508 l 164 508 l 164 922 l 38 922 l 38 0 l 164 0 l 164 268 l 231 399 l 236 399 l 368 0 z "},"К":{"ha":511,"x_min":0,"x_max":0,"o":"m 494 0 l 322 557 l 496 922 l 369 922 l 169 508 l 164 508 l 164 922 l 38 922 l 38 0 l 164 0 l 164 268 l 231 399 l 236 399 l 368 0 z "},"L":{"ha":415,"x_min":0,"x_max":0,"o":"m 390 0 l 390 114 l 163 114 l 163 922 l 38 922 l 38 0 z "},"M":{"ha":726,"x_min":0,"x_max":0,"o":"m 689 0 l 689 922 l 504 922 l 368 246 l 363 246 l 226 922 l 38 922 l 38 0 l 149 0 l 149 510 b 144 710 149 567 147 633 l 150 710 l 306 0 l 421 0 l 576 710 l 582 710 b 578 510 579 633 578 567 l 578 0 z "},"Μ":{"ha":726,"x_min":0,"x_max":0,"o":"m 689 0 l 689 922 l 504 922 l 368 246 l 363 246 l 226 922 l 38 922 l 38 0 l 149 0 l 149 510 b 144 710 149 567 147 633 l 150 710 l 306 0 l 421 0 l 576 710 l 582 710 b 578 510 579 633 578 567 l 578 0 z "},"М":{"ha":726,"x_min":0,"x_max":0,"o":"m 689 0 l 689 922 l 504 922 l 368 246 l 363 246 l 226 922 l 38 922 l 38 0 l 149 0 l 149 510 b 144 710 149 567 147 633 l 150 710 l 306 0 l 421 0 l 576 710 l 582 710 b 578 510 579 633 578 567 l 578 0 z "},"N":{"ha":544,"x_min":0,"x_max":0,"o":"m 506 0 l 506 922 l 396 922 l 396 483 b 400 260 396 422 397 347 l 394 260 l 201 922 l 38 922 l 38 0 l 147 0 l 147 519 b 143 714 147 581 146 646 l 149 714 l 360 0 z "},"Ν":{"ha":544,"x_min":0,"x_max":0,"o":"m 506 0 l 506 922 l 396 922 l 396 483 b 400 260 396 422 397 347 l 394 260 l 201 922 l 38 922 l 38 0 l 147 0 l 147 519 b 143 714 147 581 146 646 l 149 714 l 360 0 z "},"O":{"ha":503,"x_min":0,"x_max":0,"o":"m 469 690 b 251 931 469 840 390 931 b 32 693 113 931 32 843 l 32 225 b 253 -8 32 75 110 -8 b 469 222 392 -8 469 68 z m 347 215 b 251 107 347 142 313 107 b 156 217 189 107 156 144 l 156 703 b 250 814 156 775 190 814 b 347 701 313 814 347 774 z "},"Ο":{"ha":503,"x_min":0,"x_max":0,"o":"m 469 690 b 251 931 469 840 390 931 b 32 693 113 931 32 843 l 32 225 b 253 -8 32 75 110 -8 b 469 222 392 -8 469 68 z m 347 215 b 251 107 347 142 313 107 b 156 217 189 107 156 144 l 156 703 b 250 814 156 775 190 814 b 347 701 313 814 347 774 z "},"О":{"ha":503,"x_min":0,"x_max":0,"o":"m 469 690 b 251 931 469 840 390 931 b 32 693 113 931 32 843 l 32 225 b 253 -8 32 75 110 -8 b 469 222 392 -8 469 68 z m 347 215 b 251 107 347 142 313 107 b 156 217 189 107 156 144 l 156 703 b 250 814 156 775 190 814 b 347 701 313 814 347 774 z "},"P":{"ha":497,"x_min":0,"x_max":0,"o":"m 294 367 b 469 551 422 367 469 435 l 469 738 b 294 922 469 854 422 922 l 38 922 l 38 0 l 163 0 l 163 367 z m 163 810 l 269 810 b 351 724 328 810 351 779 l 351 571 b 269 475 351 510 328 475 l 163 475 z "},"Ρ":{"ha":497,"x_min":0,"x_max":0,"o":"m 294 367 b 469 551 422 367 469 435 l 469 738 b 294 922 469 854 422 922 l 38 922 l 38 0 l 163 0 l 163 367 z m 163 810 l 269 810 b 351 724 328 810 351 779 l 351 571 b 269 475 351 510 328 475 l 163 475 z "},"Р":{"ha":497,"x_min":0,"x_max":0,"o":"m 294 367 b 469 551 422 367 469 435 l 469 738 b 294 922 469 854 422 922 l 38 922 l 38 0 l 163 0 l 163 367 z m 163 810 l 269 810 b 351 724 328 810 351 779 l 351 571 b 269 475 351 510 328 475 l 163 475 z "},"Q":{"ha":501,"x_min":0,"x_max":0,"o":"m 469 690 b 253 931 469 843 403 931 b 32 690 104 931 32 843 l 32 226 b 196 4 32 100 85 22 l 196 -122 b 378 -324 196 -243 251 -324 b 550 -126 500 -324 550 -251 l 550 -37 l 439 -37 l 439 -132 b 374 -212 439 -185 421 -212 b 303 -128 325 -212 303 -182 l 303 3 b 469 225 417 19 469 97 z m 347 224 b 251 114 347 150 315 114 b 156 224 189 114 156 153 l 156 701 b 253 814 156 771 189 814 b 347 700 315 814 347 772 z "},"R":{"ha":504,"x_min":0,"x_max":0,"o":"m 160 0 l 160 401 l 272 401 b 350 317 332 401 350 376 l 350 0 l 472 0 l 472 307 b 375 456 472 399 440 443 l 375 461 b 469 611 435 476 469 526 l 469 738 b 294 922 469 854 424 922 l 38 922 l 38 0 z m 349 600 b 268 506 349 529 318 506 l 160 506 l 160 810 l 267 810 b 349 724 325 810 349 781 z "},"S":{"ha":521,"x_min":0,"x_max":0,"o":"m 472 650 l 472 690 b 256 931 472 829 424 931 b 36 724 103 931 36 846 l 36 683 b 107 514 36 610 61 561 b 299 371 164 458 235 424 b 358 254 344 335 358 311 l 358 213 b 257 107 358 139 322 107 b 150 222 182 107 150 147 l 150 276 l 32 276 l 32 224 b 260 -8 32 72 99 -8 b 489 215 421 -8 489 71 l 489 272 b 422 439 489 357 465 401 b 214 583 371 485 276 535 b 160 682 171 618 160 642 l 160 718 b 257 814 160 772 190 814 b 356 703 326 814 356 771 l 356 650 z "},"Ѕ":{"ha":521,"x_min":0,"x_max":0,"o":"m 472 650 l 472 690 b 256 931 472 829 424 931 b 36 724 103 931 36 846 l 36 683 b 107 514 36 610 61 561 b 299 371 164 458 235 424 b 358 254 344 335 358 311 l 358 213 b 257 107 358 139 322 107 b 150 222 182 107 150 147 l 150 276 l 32 276 l 32 224 b 260 -8 32 72 99 -8 b 489 215 421 -8 489 71 l 489 272 b 422 439 489 357 465 401 b 214 583 371 485 276 535 b 160 682 171 618 160 642 l 160 718 b 257 814 160 772 190 814 b 356 703 326 814 356 771 l 356 650 z "},"T":{"ha":486,"x_min":0,"x_max":0,"o":"m 304 0 l 304 810 l 461 810 l 461 922 l 26 922 l 26 810 l 181 810 l 181 0 z "},"Τ":{"ha":486,"x_min":0,"x_max":0,"o":"m 304 0 l 304 810 l 461 810 l 461 922 l 26 922 l 26 810 l 181 810 l 181 0 z "},"Т":{"ha":486,"x_min":0,"x_max":0,"o":"m 304 0 l 304 810 l 461 810 l 461 922 l 26 922 l 26 810 l 181 810 l 181 0 z "},"U":{"ha":511,"x_min":0,"x_max":0,"o":"m 350 217 b 254 107 350 144 318 107 b 160 215 193 107 160 142 l 160 922 l 38 922 l 38 222 b 256 -8 38 68 117 -8 b 472 225 399 -8 472 75 l 472 922 l 350 922 z "},"V":{"ha":517,"x_min":0,"x_max":0,"o":"m 343 0 l 499 922 l 378 922 l 263 194 l 257 194 l 140 922 l 17 922 l 174 0 z "},"W":{"ha":757,"x_min":0,"x_max":0,"o":"m 285 0 l 375 714 l 381 714 l 472 0 l 629 0 l 740 922 l 622 922 l 543 221 l 538 221 l 449 922 l 308 922 l 222 221 l 217 221 l 136 922 l 17 922 l 128 0 z "},"X":{"ha":540,"x_min":0,"x_max":0,"o":"m 396 922 l 274 594 l 268 594 l 147 922 l 22 922 l 194 467 l 17 0 l 142 0 l 267 344 l 272 344 l 396 0 l 524 0 l 346 479 l 518 922 z "},"Χ":{"ha":540,"x_min":0,"x_max":0,"o":"m 396 922 l 274 594 l 268 594 l 147 922 l 22 922 l 194 467 l 17 0 l 142 0 l 267 344 l 272 344 l 396 0 l 524 0 l 346 479 l 518 922 z "},"Х":{"ha":540,"x_min":0,"x_max":0,"o":"m 396 922 l 274 594 l 268 594 l 147 922 l 22 922 l 194 467 l 17 0 l 142 0 l 267 344 l 272 344 l 396 0 l 524 0 l 346 479 l 518 922 z "},"Y":{"ha":513,"x_min":0,"x_max":0,"o":"m 321 0 l 321 389 l 497 922 l 379 922 l 263 556 l 257 556 l 135 922 l 14 922 l 196 390 l 196 0 z "},"Υ":{"ha":513,"x_min":0,"x_max":0,"o":"m 321 0 l 321 389 l 497 922 l 379 922 l 263 556 l 257 556 l 135 922 l 14 922 l 196 390 l 196 0 z "},"Ү":{"ha":513,"x_min":0,"x_max":0,"o":"m 321 0 l 321 389 l 497 922 l 379 922 l 263 556 l 257 556 l 135 922 l 14 922 l 196 390 l 196 0 z "},"Z":{"ha":468,"x_min":0,"x_max":0,"o":"m 442 0 l 442 113 l 156 113 l 435 808 l 435 922 l 29 922 l 29 810 l 308 810 l 26 115 l 26 0 z "},"Ζ":{"ha":468,"x_min":0,"x_max":0,"o":"m 442 0 l 442 113 l 156 113 l 435 808 l 435 922 l 29 922 l 29 810 l 308 810 l 26 115 l 26 0 z "},"[":{"ha":319,"x_min":0,"x_max":0,"o":"m 294 -181 l 294 -81 l 163 -81 l 163 897 l 294 897 l 294 999 l 68 999 l 68 -181 z "},"\\":{"ha":300,"x_min":0,"x_max":0,"o":"m 290 0 l 110 922 l 10 922 l 190 0 z "},"]":{"ha":319,"x_min":0,"x_max":0,"o":"m 253 -181 l 253 999 l 26 999 l 26 897 l 158 897 l 158 -81 l 26 -81 l 26 -181 z "},"^":{"ha":478,"x_min":0,"x_max":0,"o":"m 17 567 l 122 567 l 236 818 l 242 818 l 356 567 l 464 567 l 290 922 l 189 922 z "},"_":{"ha":346,"x_min":0,"x_max":0,"o":"m 349 -143 l 349 -62 l 0 -62 l 0 -143 z "},"`":{"ha":354,"x_min":0,"x_max":0,"o":"m 265 700 l 313 749 l 106 975 l 42 903 z "},"a":{"ha":493,"x_min":0,"x_max":0,"o":"m 336 176 b 228 97 315 124 283 97 b 149 168 176 97 149 119 l 149 228 b 240 329 149 279 163 306 b 336 367 292 344 308 346 z m 454 0 l 454 519 b 256 675 454 625 386 675 b 42 510 121 675 42 621 l 42 453 l 154 453 l 154 496 b 249 571 154 546 186 571 b 335 503 307 571 335 549 l 335 475 b 208 401 335 431 269 419 b 31 207 78 364 31 324 l 31 140 b 176 -8 31 50 72 -8 b 335 85 264 -8 306 33 l 340 85 l 344 0 z "},"а":{"ha":493,"x_min":0,"x_max":0,"o":"m 336 176 b 228 97 315 124 283 97 b 149 168 176 97 149 119 l 149 228 b 240 329 149 279 163 306 b 336 367 292 344 308 346 z m 454 0 l 454 519 b 256 675 454 625 386 675 b 42 510 121 675 42 621 l 42 453 l 154 453 l 154 496 b 249 571 154 546 186 571 b 335 503 307 571 335 549 l 335 475 b 208 401 335 431 269 419 b 31 207 78 364 31 324 l 31 140 b 176 -8 31 50 72 -8 b 335 85 264 -8 306 33 l 340 85 l 344 0 z "},"b":{"ha":503,"x_min":0,"x_max":0,"o":"m 342 197 b 256 97 342 132 314 97 b 156 203 200 97 172 131 l 156 461 b 254 569 175 538 200 569 b 342 469 311 569 342 539 z m 147 0 l 151 96 l 157 96 b 304 -8 182 32 228 -8 b 463 197 418 -8 463 85 l 463 468 b 304 675 463 588 426 675 b 164 583 236 675 190 647 l 158 583 l 158 933 l 40 933 l 40 0 z "},"c":{"ha":492,"x_min":0,"x_max":0,"o":"m 338 200 b 247 100 338 132 310 100 b 157 200 188 100 157 132 l 157 467 b 249 567 157 535 188 567 b 339 467 310 567 339 535 l 339 422 l 451 422 l 451 467 b 249 675 451 607 390 675 b 40 467 107 675 40 607 l 40 200 b 247 -8 40 58 107 -8 b 451 200 390 -8 451 61 l 451 247 l 338 247 z "},"с":{"ha":492,"x_min":0,"x_max":0,"o":"m 338 200 b 247 100 338 132 310 100 b 157 200 188 100 157 132 l 157 467 b 249 567 157 535 188 567 b 339 467 310 567 339 535 l 339 422 l 451 422 l 451 467 b 249 675 451 607 390 675 b 40 467 107 675 40 607 l 40 200 b 247 -8 40 58 107 -8 b 451 200 390 -8 451 61 l 451 247 l 338 247 z "},"d":{"ha":503,"x_min":0,"x_max":0,"o":"m 161 469 b 250 569 161 543 194 569 b 347 460 308 569 331 542 l 347 208 b 249 97 329 126 306 97 b 161 197 192 97 161 128 z m 463 0 l 463 933 l 344 933 l 344 583 l 339 583 b 199 675 313 647 265 675 b 40 497 100 675 40 613 l 40 169 b 200 -8 40 54 100 -8 b 346 96 272 -8 317 24 l 351 96 l 356 0 z "},"e":{"ha":499,"x_min":0,"x_max":0,"o":"m 458 231 l 340 231 l 340 197 b 247 97 340 131 310 97 b 157 197 188 97 157 131 l 157 301 l 458 301 l 458 467 b 249 675 458 607 390 675 b 40 467 107 675 40 607 l 40 200 b 247 -8 40 58 107 -8 b 458 200 390 -8 458 61 z m 340 390 l 157 390 l 157 469 b 249 569 157 536 188 569 b 340 469 311 569 340 536 z "},"е":{"ha":499,"x_min":0,"x_max":0,"o":"m 458 231 l 340 231 l 340 197 b 247 97 340 131 310 97 b 157 197 188 97 157 131 l 157 301 l 458 301 l 458 467 b 249 675 458 607 390 675 b 40 467 107 675 40 607 l 40 200 b 247 -8 40 58 107 -8 b 458 200 390 -8 458 61 z m 340 390 l 157 390 l 157 469 b 249 569 157 536 188 569 b 340 469 311 569 340 536 z "},"f":{"ha":386,"x_min":0,"x_max":0,"o":"m 363 667 l 226 667 l 226 739 b 311 826 226 797 254 826 l 360 826 l 360 933 l 311 933 b 107 739 175 933 107 868 l 107 667 l 24 667 l 24 560 l 107 560 l 107 0 l 226 0 l 226 560 l 363 560 z "},"g":{"ha":503,"x_min":0,"x_max":0,"o":"m 161 469 b 250 569 161 543 192 569 b 347 464 314 569 333 538 l 347 207 b 243 110 322 139 294 110 b 161 236 183 110 161 150 z m 463 -115 l 463 667 l 356 667 l 351 571 l 346 571 b 197 675 313 644 265 675 b 40 497 92 675 40 603 l 40 214 b 196 0 40 74 85 0 b 338 92 267 0 314 31 l 343 92 l 343 -115 b 250 -215 343 -182 313 -215 b 158 -115 189 -215 158 -182 l 158 -42 l 44 -42 l 44 -115 b 250 -324 44 -254 108 -324 b 463 -115 392 -324 463 -254 z "},"h":{"ha":507,"x_min":0,"x_max":0,"o":"m 467 0 l 467 493 b 308 675 467 586 426 675 b 165 583 240 675 190 646 l 160 583 l 160 933 l 40 933 l 40 0 l 160 0 l 160 432 b 261 569 163 531 200 569 b 346 475 314 569 346 540 l 346 0 z "},"һ":{"ha":507,"x_min":0,"x_max":0,"o":"m 467 0 l 467 493 b 308 675 467 586 426 675 b 165 583 240 675 190 646 l 160 583 l 160 933 l 40 933 l 40 0 l 160 0 l 160 432 b 261 569 163 531 200 569 b 346 475 314 569 346 540 l 346 0 z "},"i":{"ha":200,"x_min":0,"x_max":0,"o":"m 160 0 l 160 667 l 40 667 l 40 0 z m 160 749 l 160 899 l 40 899 l 40 749 z "},"і":{"ha":200,"x_min":0,"x_max":0,"o":"m 160 0 l 160 667 l 40 667 l 40 0 z m 160 749 l 160 899 l 40 899 l 40 749 z "},"j":{"ha":232,"x_min":0,"x_max":0,"o":"m -226 -115 b -19 -324 -226 -256 -161 -324 b 192 -115 121 -324 192 -256 l 192 667 l 72 667 l 72 -115 b -21 -215 72 -183 42 -215 b -112 -115 -83 -215 -112 -183 l -112 -37 l -226 -37 z m 192 749 l 192 899 l 72 899 l 72 749 z "},"ј":{"ha":232,"x_min":0,"x_max":0,"o":"m -226 -115 b -19 -324 -226 -256 -161 -324 b 192 -115 121 -324 192 -256 l 192 667 l 72 667 l 72 -115 b -21 -215 72 -183 42 -215 b -112 -115 -83 -215 -112 -183 l -112 -37 l -226 -37 z m 192 749 l 192 899 l 72 899 l 72 749 z "},"k":{"ha":501,"x_min":0,"x_max":0,"o":"m 483 0 l 317 403 l 486 667 l 356 667 l 165 383 l 160 383 l 160 933 l 40 933 l 40 0 l 160 0 l 160 193 l 226 286 l 231 286 l 357 0 z "},"l":{"ha":200,"x_min":0,"x_max":0,"o":"m 160 0 l 160 933 l 40 933 l 40 0 z "},"m":{"ha":792,"x_min":0,"x_max":0,"o":"m 751 0 l 751 497 b 596 675 751 613 688 675 b 443 563 533 675 481 650 b 300 675 425 636 371 675 b 161 571 233 675 189 643 l 156 571 l 151 667 l 40 667 l 40 0 l 160 0 l 160 472 b 256 569 179 542 201 569 b 338 475 308 569 338 540 l 338 0 l 453 0 l 453 472 b 549 569 472 542 494 569 b 631 475 601 569 631 540 l 631 0 z "},"n":{"ha":507,"x_min":0,"x_max":0,"o":"m 467 0 l 467 497 b 307 675 467 613 401 675 b 161 571 236 675 190 643 l 156 571 l 151 667 l 40 667 l 40 0 l 160 0 l 160 472 b 260 569 181 542 204 569 b 346 475 315 569 346 540 l 346 0 z "},"o":{"ha":497,"x_min":0,"x_max":0,"o":"m 457 467 b 249 675 457 610 390 675 b 40 467 107 675 40 610 l 40 200 b 249 -8 40 57 107 -8 b 457 200 390 -8 457 57 z m 340 200 b 249 100 340 132 310 100 b 157 200 188 100 157 132 l 157 467 b 249 567 157 535 188 567 b 340 467 310 567 340 535 z "},"ο":{"ha":497,"x_min":0,"x_max":0,"o":"m 457 467 b 249 675 457 610 390 675 b 40 467 107 675 40 610 l 40 200 b 249 -8 40 57 107 -8 b 457 200 390 -8 457 57 z m 340 200 b 249 100 340 132 310 100 b 157 200 188 100 157 132 l 157 467 b 249 567 157 535 188 567 b 340 467 310 567 340 535 z "},"о":{"ha":497,"x_min":0,"x_max":0,"o":"m 457 467 b 249 675 457 610 390 675 b 40 467 107 675 40 610 l 40 200 b 249 -8 40 57 107 -8 b 457 200 390 -8 457 57 z m 340 200 b 249 100 340 132 310 100 b 157 200 188 100 157 132 l 157 467 b 249 567 157 535 188 567 b 340 467 310 567 340 535 z "},"p":{"ha":503,"x_min":0,"x_max":0,"o":"m 342 197 b 254 97 342 128 311 97 b 156 194 199 97 175 125 l 156 472 b 254 569 175 542 199 569 b 342 469 311 569 342 539 z m 158 -324 l 158 83 l 164 83 b 304 -8 190 19 238 -8 b 463 169 403 -8 463 54 l 463 497 b 303 675 463 613 403 675 b 157 571 231 675 186 643 l 151 571 l 147 667 l 40 667 l 40 -324 z "},"р":{"ha":503,"x_min":0,"x_max":0,"o":"m 342 197 b 254 97 342 128 311 97 b 156 194 199 97 175 125 l 156 472 b 254 569 175 542 199 569 b 342 469 311 569 342 539 z m 158 -324 l 158 83 l 164 83 b 304 -8 190 19 238 -8 b 463 169 403 -8 463 54 l 463 497 b 303 675 463 613 403 675 b 157 571 231 675 186 643 l 151 571 l 147 667 l 40 667 l 40 -324 z "},"q":{"ha":503,"x_min":0,"x_max":0,"o":"m 738 -37 l 624 -37 l 624 -115 b 542 -215 624 -185 599 -215 b 463 -76 479 -215 463 -178 l 463 667 l 356 667 l 351 571 l 346 571 b 200 675 317 643 272 675 b 40 497 100 675 40 613 l 40 207 b 197 -8 40 72 82 -8 b 339 83 267 -8 313 19 l 344 83 l 344 -115 b 543 -324 344 -256 410 -324 b 738 -115 676 -324 738 -256 z m 161 469 b 249 569 161 539 192 569 b 347 469 303 569 328 542 l 347 197 b 249 97 328 125 303 97 b 161 197 192 97 161 128 z "},"r":{"ha":385,"x_min":0,"x_max":0,"o":"m 160 0 l 160 410 b 299 565 182 528 225 565 b 361 551 326 565 349 560 l 361 661 b 306 675 343 671 325 675 b 161 553 236 675 188 631 l 156 553 l 151 667 l 40 667 l 40 0 z "},"s":{"ha":490,"x_min":0,"x_max":0,"o":"m 449 461 l 449 494 b 243 675 449 606 381 675 b 42 521 114 675 42 613 l 42 488 b 101 369 42 442 57 403 b 279 268 142 339 271 272 b 338 190 329 240 338 218 l 338 164 b 244 90 338 114 310 90 b 149 169 175 90 149 117 l 149 214 l 35 214 l 35 174 b 250 -8 35 56 99 -8 b 456 165 392 -8 456 49 l 456 196 b 383 329 456 264 429 299 b 204 422 329 365 267 383 b 156 489 164 447 156 461 l 156 510 b 247 575 156 551 188 575 b 336 500 310 575 336 549 l 336 461 z "},"ѕ":{"ha":490,"x_min":0,"x_max":0,"o":"m 449 461 l 449 494 b 243 675 449 606 381 675 b 42 521 114 675 42 613 l 42 488 b 101 369 42 442 57 403 b 279 268 142 339 271 272 b 338 190 329 240 338 218 l 338 164 b 244 90 338 114 310 90 b 149 169 175 90 149 117 l 149 214 l 35 214 l 35 174 b 250 -8 35 56 99 -8 b 456 165 392 -8 456 49 l 456 196 b 383 329 456 264 429 299 b 204 422 329 365 267 383 b 156 489 164 447 156 461 l 156 510 b 247 575 156 551 188 575 b 336 500 310 575 336 549 l 336 461 z "},"t":{"ha":476,"x_min":0,"x_max":0,"o":"m 332 200 b 250 100 332 132 310 100 b 158 200 188 100 158 132 l 158 560 l 435 560 l 435 667 l 158 667 l 158 851 l 40 851 l 40 200 b 249 -8 40 60 106 -8 b 435 200 389 -8 435 60 l 435 381 l 332 381 z "},"u":{"ha":504,"x_min":0,"x_max":0,"o":"m 40 667 l 40 201 b 196 -8 40 65 82 -8 b 343 96 269 -8 313 21 l 349 96 l 351 0 l 464 0 l 464 667 l 344 667 l 344 206 b 247 97 328 125 307 97 b 161 200 188 97 161 125 l 161 667 z "},"v":{"ha":474,"x_min":0,"x_max":0,"o":"m 317 0 l 458 667 l 343 667 l 244 151 l 239 151 l 136 667 l 15 667 l 163 0 z "},"ν":{"ha":474,"x_min":0,"x_max":0,"o":"m 317 0 l 458 667 l 343 667 l 244 151 l 239 151 l 136 667 l 15 667 l 163 0 z "},"w":{"ha":692,"x_min":0,"x_max":0,"o":"m 260 0 l 343 510 l 349 510 l 432 0 l 578 0 l 678 667 l 568 667 l 497 167 l 492 167 l 411 667 l 281 667 l 203 167 l 197 167 l 125 667 l 14 667 l 114 0 z "},"x":{"ha":496,"x_min":0,"x_max":0,"o":"m 357 667 l 254 444 l 249 444 l 142 667 l 19 667 l 178 339 l 14 0 l 138 0 l 243 233 l 249 233 l 357 0 l 482 0 l 319 346 l 476 667 z "},"х":{"ha":496,"x_min":0,"x_max":0,"o":"m 357 667 l 254 444 l 249 444 l 142 667 l 19 667 l 178 339 l 14 0 l 138 0 l 243 233 l 249 233 l 357 0 l 482 0 l 319 346 l 476 667 z "},"y":{"ha":503,"x_min":0,"x_max":0,"o":"m 161 667 l 40 667 l 40 175 b 196 0 40 71 79 0 b 338 92 263 0 308 24 l 343 92 l 343 -115 b 250 -215 343 -183 313 -215 b 158 -115 189 -215 158 -183 l 158 -42 l 44 -42 l 44 -115 b 251 -324 44 -256 110 -324 b 463 -115 393 -324 463 -256 l 463 667 l 347 667 l 347 215 b 249 110 329 138 301 110 b 161 210 193 110 161 139 z "},"у":{"ha":503,"x_min":0,"x_max":0,"o":"m 161 667 l 40 667 l 40 175 b 196 0 40 71 79 0 b 338 92 263 0 308 24 l 343 92 l 343 -115 b 250 -215 343 -183 313 -215 b 158 -115 189 -215 158 -183 l 158 -42 l 44 -42 l 44 -115 b 251 -324 44 -256 110 -324 b 463 -115 393 -324 463 -256 l 463 667 l 347 667 l 347 215 b 249 110 329 138 301 110 b 161 210 193 110 161 139 z "},"z":{"ha":426,"x_min":0,"x_max":0,"o":"m 399 0 l 399 110 l 156 110 l 393 558 l 393 667 l 31 667 l 31 560 l 267 560 l 29 113 l 29 0 z "},"{":{"ha":319,"x_min":0,"x_max":0,"o":"m 294 -182 l 294 -87 l 268 -87 b 210 -15 229 -87 210 -62 l 210 276 b 140 407 210 347 186 389 l 140 413 b 210 543 186 431 210 474 l 210 833 b 268 906 210 881 229 906 l 294 906 l 294 1000 l 233 1000 b 115 833 154 1000 115 944 l 115 543 b 43 460 115 488 92 460 l 43 361 b 115 276 92 361 115 332 l 115 -15 b 233 -182 115 -126 154 -182 z "},"|":{"ha":261,"x_min":0,"x_max":0,"o":"m 178 -174 l 178 1022 l 83 1022 l 83 -174 z "},"}":{"ha":319,"x_min":0,"x_max":0,"o":"m 86 -182 b 204 -15 165 -182 204 -126 l 204 276 b 276 361 204 332 228 361 l 276 460 b 204 543 228 460 204 488 l 204 833 b 86 1000 204 944 165 1000 l 25 1000 l 25 906 l 51 906 b 110 833 90 906 110 881 l 110 543 b 179 413 110 474 133 431 l 179 407 b 110 276 133 389 110 347 l 110 -15 b 51 -87 110 -62 90 -87 l 25 -87 l 25 -182 z "},"~":{"ha":478,"x_min":0,"x_max":0,"o":"m 328 397 b 439 440 374 397 410 413 l 439 542 b 331 492 408 507 369 492 b 147 531 269 492 219 531 b 38 486 94 531 61 510 l 38 385 b 146 436 71 419 106 436 b 328 397 208 436 257 397 z "}," ":{"ha":164,"x_min":0,"x_max":0,"o":""},"¡":{"ha":232,"x_min":0,"x_max":0,"o":"m 57 683 l 57 517 l 178 517 l 178 683 z m 72 414 b 50 -14 58 279 50 136 l 50 -239 l 182 -239 l 182 26 b 160 414 182 161 172 290 z "},"¢":{"ha":486,"x_min":0,"x_max":0,"o":"m 293 -8 l 293 122 b 449 328 401 138 449 206 l 449 375 l 335 375 l 335 319 b 244 219 335 251 307 219 b 154 319 185 219 154 251 l 154 619 b 246 719 154 688 185 719 b 336 619 308 719 336 688 l 336 567 l 449 567 l 449 611 b 293 815 449 735 401 801 l 293 931 l 199 931 l 199 817 b 38 611 89 801 38 735 l 38 328 b 199 122 38 203 89 136 l 199 -8 z "},"£":{"ha":503,"x_min":0,"x_max":0,"o":"m 465 451 l 161 451 l 161 706 b 257 815 161 778 193 815 b 349 707 318 815 349 781 l 349 563 l 465 563 l 465 700 b 256 931 465 854 394 931 b 38 697 113 931 38 847 l 38 0 l 465 0 l 465 114 l 161 114 l 161 339 l 465 339 z "},"¤":{"ha":592,"x_min":0,"x_max":0,"o":"m 493 201 l 553 263 l 478 333 b 518 457 501 368 518 410 b 478 582 518 503 501 546 l 551 651 l 492 711 l 422 638 b 297 678 386 661 343 678 b 172 639 250 678 207 663 l 104 711 l 43 651 l 117 581 b 78 458 93 546 78 503 b 118 333 78 411 94 368 l 42 263 l 103 201 l 174 278 b 297 238 210 254 253 238 b 421 278 343 238 386 254 z m 444 458 b 297 311 444 376 378 311 b 151 457 217 311 151 376 b 297 604 151 538 215 604 b 444 458 378 604 444 539 z "},"¥":{"ha":513,"x_min":0,"x_max":0,"o":"m 317 0 l 317 147 l 465 147 l 465 225 l 317 225 l 317 333 l 465 333 l 465 411 l 324 411 l 497 922 l 382 922 l 263 551 l 257 551 l 132 922 l 14 922 l 193 411 l 64 411 l 64 333 l 200 333 l 200 225 l 64 225 l 64 147 l 200 147 l 200 0 z "},"¦":{"ha":261,"x_min":0,"x_max":0,"o":"m 178 -174 l 178 360 l 83 360 l 83 -174 z m 178 494 l 178 1022 l 83 1022 l 83 494 z "},"§":{"ha":426,"x_min":0,"x_max":0,"o":"m 389 29 b 349 150 389 83 376 121 l 349 165 b 389 300 376 194 389 239 l 389 438 b 176 671 389 586 274 599 b 138 743 146 697 138 710 l 138 772 b 211 840 138 813 160 840 b 283 761 264 840 283 811 l 283 721 l 376 721 l 376 751 b 210 931 376 858 325 931 b 40 772 100 931 40 867 l 40 747 b 107 603 40 685 64 636 l 107 586 b 40 457 64 561 40 513 l 40 340 b 240 106 40 190 169 156 b 286 25 281 76 286 57 l 286 -28 b 211 -106 286 -81 265 -106 b 132 -22 153 -106 132 -78 l 132 21 l 38 21 l 38 -7 b 217 -194 38 -128 89 -194 b 389 -14 336 -194 389 -136 z m 286 278 b 263 215 286 247 279 226 b 138 335 210 246 138 272 l 138 465 b 194 533 138 500 154 526 b 286 432 254 499 286 481 z "},"¨":{"ha":396,"x_min":0,"x_max":0,"o":"m 149 749 l 149 899 l 38 899 l 38 749 z m 358 749 l 358 899 l 247 899 l 247 749 z "},"©":{"ha":514,"x_min":0,"x_max":0,"o":"m 475 690 b 257 931 475 840 396 931 b 38 693 118 931 38 843 l 38 225 b 258 -8 38 75 114 -8 b 475 222 397 -8 475 67 z m 422 222 b 258 44 422 103 363 44 b 90 225 147 44 90 108 l 90 693 b 257 878 90 810 151 878 b 422 690 361 878 422 808 z m 357 519 l 357 564 b 258 675 357 633 322 675 b 161 565 196 675 161 635 l 161 351 b 260 243 161 282 194 243 b 357 350 325 243 357 279 l 357 421 l 304 421 l 304 346 b 260 293 304 311 290 293 b 214 367 222 293 214 321 l 214 551 b 260 624 214 597 222 624 b 304 569 289 624 304 604 l 304 519 z "},"ª":{"ha":332,"x_min":0,"x_max":0,"o":"m 214 631 b 153 582 201 599 186 582 b 108 624 122 582 108 597 l 108 663 b 161 718 108 692 117 704 b 214 742 197 729 203 732 z m 290 521 l 290 836 b 169 931 290 899 249 931 b 40 829 88 931 40 897 l 40 796 l 113 796 l 113 822 b 164 864 113 851 126 864 b 214 826 199 864 214 853 l 214 811 b 142 765 214 788 190 779 b 33 649 56 740 33 715 l 33 606 b 121 515 33 550 60 515 b 213 569 175 515 199 542 l 217 569 l 219 521 z "},"«":{"ha":397,"x_min":0,"x_max":0,"o":"m 174 256 l 221 307 l 104 442 l 221 576 l 174 628 l 18 442 z m 332 256 l 379 307 l 263 442 l 379 576 l 332 628 l 176 442 z "},"¬":{"ha":478,"x_min":0,"x_max":0,"o":"m 439 11 l 439 633 l 38 633 l 38 539 l 344 539 l 344 11 z "},"®":{"ha":403,"x_min":0,"x_max":0,"o":"m 364 751 b 201 931 364 864 306 931 b 38 753 97 931 38 865 l 38 571 b 203 396 38 457 96 396 b 364 568 307 396 364 451 z m 322 568 b 203 438 322 479 279 438 b 81 571 121 438 81 483 l 81 753 b 201 888 81 839 125 888 b 322 751 278 888 322 839 z m 278 533 l 278 615 b 246 664 278 643 268 660 l 246 668 b 276 717 267 671 276 688 l 276 747 b 217 813 276 789 261 813 l 126 813 l 126 533 l 169 533 l 169 647 l 206 647 b 235 618 225 647 235 636 l 235 533 z m 233 713 b 206 685 233 694 224 685 l 169 685 l 169 774 l 207 774 b 233 743 224 774 233 763 z "},"¯":{"ha":401,"x_min":0,"x_max":0,"o":"m 363 781 l 363 857 l 38 857 l 38 781 z "},"°":{"ha":246,"x_min":0,"x_max":0,"o":"m 122 718 b 224 826 194 718 224 767 b 122 933 224 888 194 933 b 22 826 50 933 22 888 b 122 718 22 767 50 718 z m 122 768 b 72 826 86 768 72 793 b 122 885 72 860 86 885 b 174 826 158 885 174 860 b 122 768 174 793 158 768 z "},"±":{"ha":478,"x_min":0,"x_max":0,"o":"m 285 261 l 285 418 l 439 418 l 439 513 l 285 513 l 285 663 l 190 663 l 190 513 l 38 513 l 38 418 l 190 418 l 190 261 z m 439 35 l 439 129 l 38 129 l 38 35 z "},"²":{"ha":283,"x_min":0,"x_max":0,"o":"m 250 467 l 250 526 l 104 526 l 104 553 b 128 615 104 581 108 594 b 218 697 151 640 197 674 b 250 792 243 724 250 753 l 250 819 b 146 926 250 893 231 926 b 39 808 53 926 39 886 l 39 779 l 104 779 l 104 813 b 146 864 104 850 113 864 b 186 818 176 864 186 851 l 186 793 b 167 731 186 761 179 747 b 74 646 144 703 101 676 b 36 540 44 614 36 583 l 36 467 z "},"³":{"ha":283,"x_min":0,"x_max":0,"o":"m 251 621 b 197 706 251 678 225 699 l 197 708 b 244 788 229 717 244 743 l 244 821 b 143 926 244 879 213 926 b 36 807 74 926 36 883 l 36 792 l 101 792 l 101 811 b 143 863 101 847 111 863 b 182 815 172 863 182 849 l 182 782 b 140 733 182 750 175 733 l 108 733 l 108 676 l 138 676 b 185 625 172 676 185 658 l 185 571 b 143 525 185 538 172 525 b 101 582 111 525 101 540 l 101 601 l 36 601 l 36 585 b 144 463 36 501 72 463 b 251 575 215 463 251 500 z "},"´":{"ha":354,"x_min":0,"x_max":0,"o":"m 313 903 l 249 975 l 42 749 l 89 700 z "},"¶":{"ha":508,"x_min":0,"x_max":0,"o":"m 453 -139 l 453 822 l 492 922 l 167 922 b 28 817 74 922 28 888 l 28 719 b 128 611 28 657 61 621 l 128 -139 l 228 -139 l 228 824 l 354 824 l 354 -139 z "},"·":{"ha":197,"x_min":0,"x_max":0,"o":"m 160 379 l 160 546 l 38 546 l 38 379 z "},"¸":{"ha":185,"x_min":0,"x_max":0,"o":"m 39 -311 b 146 -150 114 -299 146 -250 l 146 -25 l 39 -25 l 39 -158 l 92 -158 l 92 -179 b 39 -253 92 -224 74 -242 z "},"¹":{"ha":193,"x_min":0,"x_max":0,"o":"m 156 467 l 156 922 l 97 922 b 31 868 93 882 83 868 l 31 814 l 90 814 l 90 467 z "},"º":{"ha":328,"x_min":0,"x_max":0,"o":"m 286 804 b 160 931 286 892 246 931 b 35 804 74 931 35 892 l 35 643 b 160 517 35 556 74 517 b 286 643 246 517 286 556 z m 211 643 b 160 585 211 601 193 585 b 108 643 125 585 108 601 l 108 804 b 160 861 108 846 125 861 b 211 804 193 861 211 846 z "},"»":{"ha":397,"x_min":0,"x_max":0,"o":"m 65 256 l 221 443 l 65 628 l 18 576 l 135 443 l 18 307 z m 224 256 l 379 443 l 224 628 l 176 576 l 293 443 l 176 307 z "},"¼":{"ha":553,"x_min":0,"x_max":0,"o":"m 142 -26 l 454 949 l 378 949 l 65 -26 z m 165 467 l 165 922 l 107 922 b 40 868 103 882 93 868 l 40 814 l 100 814 l 100 467 z m 413 153 l 332 153 l 410 358 l 413 358 z m 478 0 l 478 94 l 511 94 l 511 153 l 478 153 l 478 456 l 397 456 l 283 151 l 283 94 l 413 94 l 413 0 z "},"½":{"ha":553,"x_min":0,"x_max":0,"o":"m 131 -26 l 443 949 l 367 949 l 54 -26 z m 150 467 l 150 922 l 92 922 b 25 868 88 882 78 868 l 25 814 l 85 814 l 85 467 z m 526 0 l 526 60 l 381 60 l 381 86 b 404 149 381 114 385 128 b 494 231 428 174 474 207 b 526 325 519 257 526 286 l 526 353 b 422 460 526 426 507 460 b 315 342 329 460 315 419 l 315 313 l 381 313 l 381 346 b 422 397 381 383 389 397 b 463 351 453 397 463 385 l 463 326 b 443 264 463 294 456 281 b 350 179 421 236 378 210 b 313 74 321 147 313 117 l 313 0 z "},"¾":{"ha":553,"x_min":0,"x_max":0,"o":"m 175 -26 l 488 949 l 411 949 l 99 -26 z m 428 153 l 347 153 l 425 358 l 428 358 z m 493 0 l 493 94 l 526 94 l 526 153 l 493 153 l 493 456 l 413 456 l 299 151 l 299 94 l 428 94 l 428 0 z m 240 621 b 186 706 240 678 214 699 l 186 708 b 233 788 218 717 233 743 l 233 821 b 132 926 233 879 201 926 b 25 807 63 926 25 883 l 25 792 l 90 792 l 90 811 b 132 863 90 847 100 863 b 171 815 161 863 171 849 l 171 782 b 129 733 171 750 164 733 l 97 733 l 97 676 l 126 676 b 174 625 161 676 174 658 l 174 571 b 132 525 174 538 161 525 b 90 582 100 525 90 540 l 90 601 l 25 601 l 25 585 b 133 463 25 501 61 463 b 240 575 204 463 240 500 z "},"¿":{"ha":482,"x_min":0,"x_max":0,"o":"m 179 683 l 179 518 l 301 518 l 301 683 z m 182 415 l 182 368 b 163 283 182 336 175 310 b 53 118 133 222 79 175 b 33 25 42 93 33 61 l 33 -22 b 239 -247 33 -175 61 -247 b 453 -6 438 -247 453 -157 l 453 29 l 336 29 l 336 -14 b 240 -131 336 -85 326 -131 b 151 -25 167 -131 151 -96 l 151 13 b 164 82 151 44 157 65 b 268 238 185 133 233 174 b 297 350 285 268 297 303 l 297 415 z "},"À":{"ha":517,"x_min":0,"x_max":0,"o":"m 499 0 l 342 922 l 174 922 l 17 0 l 138 0 l 171 217 l 340 217 l 376 0 z m 253 728 l 258 728 l 324 324 l 188 324 z m 317 940 l 364 989 l 157 1215 l 93 1143 z "},"Á":{"ha":517,"x_min":0,"x_max":0,"o":"m 499 0 l 342 922 l 174 922 l 17 0 l 138 0 l 171 217 l 340 217 l 376 0 z m 253 728 l 258 728 l 324 324 l 188 324 z m 419 1143 l 356 1215 l 149 989 l 196 940 z "},"Â":{"ha":517,"x_min":0,"x_max":0,"o":"m 499 0 l 342 922 l 174 922 l 17 0 l 138 0 l 171 217 l 340 217 l 376 0 z m 253 728 l 258 728 l 324 324 l 188 324 z m 436 983 l 307 1163 l 197 1163 l 69 983 l 122 942 l 253 1092 l 383 942 z "},"Ã":{"ha":517,"x_min":0,"x_max":0,"o":"m 499 0 l 342 922 l 174 922 l 17 0 l 138 0 l 171 217 l 340 217 l 376 0 z m 253 728 l 258 728 l 324 324 l 188 324 z m 390 1089 b 335 1049 379 1057 360 1049 b 169 1094 276 1049 231 1094 b 68 1013 122 1094 85 1069 l 122 981 b 178 1021 135 1013 153 1021 b 343 975 238 1021 282 975 b 444 1057 390 975 429 1000 z "},"Ä":{"ha":517,"x_min":0,"x_max":0,"o":"m 499 0 l 342 922 l 174 922 l 17 0 l 138 0 l 171 217 l 340 217 l 376 0 z m 253 728 l 258 728 l 324 324 l 188 324 z m 208 989 l 208 1139 l 97 1139 l 97 989 z m 418 989 l 418 1139 l 307 1139 l 307 989 z "},"Å":{"ha":517,"x_min":0,"x_max":0,"o":"m 499 0 l 342 922 l 174 922 l 17 0 l 138 0 l 171 217 l 340 217 l 376 0 z m 253 728 l 258 728 l 324 324 l 188 324 z m 257 993 b 192 1069 214 993 192 1021 b 257 1149 192 1119 214 1149 b 322 1069 299 1149 322 1119 b 257 993 322 1021 299 993 z m 257 940 b 375 1069 336 940 375 989 b 257 1200 375 1151 336 1200 b 138 1069 176 1200 138 1151 b 257 940 138 989 176 940 z "},"Æ":{"ha":693,"x_min":0,"x_max":0,"o":"m 669 0 l 669 113 l 450 113 l 450 426 l 640 426 l 640 540 l 450 540 l 450 810 l 658 810 l 658 922 l 174 922 l 17 0 l 138 0 l 171 217 l 328 217 l 328 0 z m 261 810 l 328 810 l 328 324 l 186 324 z "},"Ç":{"ha":504,"x_min":0,"x_max":0,"o":"m 349 215 b 254 107 349 142 317 107 b 161 215 189 107 161 144 l 161 703 b 254 814 161 775 193 814 b 349 701 317 814 349 774 l 349 592 l 467 592 l 467 701 b 250 931 467 854 390 931 b 38 700 111 931 38 854 l 38 225 b 254 -8 38 75 111 -8 b 467 222 393 -8 467 68 l 467 376 l 349 376 z m 194 -311 b 301 -150 269 -299 301 -250 l 301 -25 l 194 -25 l 194 -158 l 247 -158 l 247 -179 b 194 -253 247 -224 229 -242 z "},"È":{"ha":406,"x_min":0,"x_max":0,"o":"m 382 0 l 382 113 l 160 113 l 160 426 l 353 426 l 353 540 l 160 540 l 160 810 l 371 810 l 371 922 l 38 922 l 38 0 z m 269 940 l 317 989 l 110 1215 l 46 1143 z "},"Ѐ":{"ha":406,"x_min":0,"x_max":0,"o":"m 382 0 l 382 113 l 160 113 l 160 426 l 353 426 l 353 540 l 160 540 l 160 810 l 371 810 l 371 922 l 38 922 l 38 0 z m 269 940 l 317 989 l 110 1215 l 46 1143 z "},"É":{"ha":406,"x_min":0,"x_max":0,"o":"m 382 0 l 382 113 l 160 113 l 160 426 l 353 426 l 353 540 l 160 540 l 160 810 l 371 810 l 371 922 l 38 922 l 38 0 z m 371 1143 l 307 1215 l 100 989 l 147 940 z "},"Ê":{"ha":406,"x_min":0,"x_max":0,"o":"m 382 0 l 382 113 l 160 113 l 160 426 l 353 426 l 353 540 l 160 540 l 160 810 l 371 810 l 371 922 l 38 922 l 38 0 z m 390 983 l 261 1163 l 151 1163 l 24 983 l 76 942 l 207 1092 l 338 942 z "},"Ë":{"ha":406,"x_min":0,"x_max":0,"o":"m 382 0 l 382 113 l 160 113 l 160 426 l 353 426 l 353 540 l 160 540 l 160 810 l 371 810 l 371 922 l 38 922 l 38 0 z m 156 989 l 156 1139 l 44 1139 l 44 989 z m 365 989 l 365 1139 l 254 1139 l 254 989 z "},"Ё":{"ha":406,"x_min":0,"x_max":0,"o":"m 382 0 l 382 113 l 160 113 l 160 426 l 353 426 l 353 540 l 160 540 l 160 810 l 371 810 l 371 922 l 38 922 l 38 0 z m 156 989 l 156 1139 l 44 1139 l 44 989 z m 365 989 l 365 1139 l 254 1139 l 254 989 z "},"Ì":{"ha":229,"x_min":0,"x_max":0,"o":"m 192 0 l 192 922 l 67 922 l 67 0 z m 169 940 l 217 989 l 10 1215 l -54 1143 z "},"Í":{"ha":236,"x_min":0,"x_max":0,"o":"m 163 0 l 163 922 l 38 922 l 38 0 z m 294 1143 l 231 1215 l 24 989 l 71 940 z "},"Î":{"ha":292,"x_min":0,"x_max":0,"o":"m 208 0 l 208 922 l 83 922 l 83 0 z m 329 983 l 200 1163 l 90 1163 l -37 983 l 15 942 l 146 1092 l 276 942 z "},"Ï":{"ha":276,"x_min":0,"x_max":0,"o":"m 199 0 l 199 922 l 74 922 l 74 0 z m 89 972 l 89 1122 l -22 1122 l -22 972 z m 299 972 l 299 1122 l 188 1122 l 188 972 z "},"Ϊ":{"ha":276,"x_min":0,"x_max":0,"o":"m 199 0 l 199 922 l 74 922 l 74 0 z m 89 972 l 89 1122 l -22 1122 l -22 972 z m 299 972 l 299 1122 l 188 1122 l 188 972 z "},"Ї":{"ha":276,"x_min":0,"x_max":0,"o":"m 199 0 l 199 922 l 74 922 l 74 0 z m 89 972 l 89 1122 l -22 1122 l -22 972 z m 299 972 l 299 1122 l 188 1122 l 188 972 z "},"Ð":{"ha":533,"x_min":0,"x_max":0,"o":"m 285 0 b 496 225 422 0 496 72 l 496 710 b 285 922 496 850 422 922 l 58 922 l 58 540 l 10 540 l 10 426 l 58 426 l 58 0 z m 179 113 l 179 426 l 285 426 l 285 540 l 179 540 l 179 810 l 269 810 b 371 679 347 810 371 764 l 371 271 b 276 113 371 182 354 113 z "},"Đ":{"ha":533,"x_min":0,"x_max":0,"o":"m 285 0 b 496 225 422 0 496 72 l 496 710 b 285 922 496 850 422 922 l 58 922 l 58 540 l 10 540 l 10 426 l 58 426 l 58 0 z m 179 113 l 179 426 l 285 426 l 285 540 l 179 540 l 179 810 l 269 810 b 371 679 347 810 371 764 l 371 271 b 276 113 371 182 354 113 z "},"Ñ":{"ha":544,"x_min":0,"x_max":0,"o":"m 506 0 l 506 922 l 396 922 l 396 483 b 400 260 396 422 397 347 l 394 260 l 201 922 l 38 922 l 38 0 l 147 0 l 147 519 b 143 714 147 581 146 646 l 149 714 l 360 0 z m 406 1089 b 350 1049 394 1057 375 1049 b 185 1094 292 1049 246 1094 b 83 1013 138 1094 100 1069 l 138 981 b 193 1021 150 1013 168 1021 b 358 975 253 1021 297 975 b 460 1057 406 975 444 1000 z "},"Ò":{"ha":503,"x_min":0,"x_max":0,"o":"m 469 690 b 251 931 469 840 390 931 b 32 693 113 931 32 843 l 32 225 b 253 -8 32 75 110 -8 b 469 222 392 -8 469 68 z m 347 215 b 251 107 347 142 313 107 b 156 217 189 107 156 144 l 156 703 b 250 814 156 775 190 814 b 347 701 313 814 347 774 z m 317 940 l 364 989 l 157 1215 l 93 1143 z "},"Ó":{"ha":503,"x_min":0,"x_max":0,"o":"m 469 690 b 251 931 469 840 390 931 b 32 693 113 931 32 843 l 32 225 b 253 -8 32 75 110 -8 b 469 222 392 -8 469 68 z m 347 215 b 251 107 347 142 313 107 b 156 217 189 107 156 144 l 156 703 b 250 814 156 775 190 814 b 347 701 313 814 347 774 z m 415 1143 l 351 1215 l 144 989 l 192 940 z "},"Ô":{"ha":503,"x_min":0,"x_max":0,"o":"m 469 690 b 251 931 469 840 390 931 b 32 693 113 931 32 843 l 32 225 b 253 -8 32 75 110 -8 b 469 222 392 -8 469 68 z m 347 215 b 251 107 347 142 313 107 b 156 217 189 107 156 144 l 156 703 b 250 814 156 775 190 814 b 347 701 313 814 347 774 z m 436 983 l 307 1163 l 197 1163 l 69 983 l 122 942 l 253 1092 l 383 942 z "},"Õ":{"ha":503,"x_min":0,"x_max":0,"o":"m 469 690 b 251 931 469 840 390 931 b 32 693 113 931 32 843 l 32 225 b 253 -8 32 75 110 -8 b 469 222 392 -8 469 68 z m 347 215 b 251 107 347 142 313 107 b 156 217 189 107 156 144 l 156 703 b 250 814 156 775 190 814 b 347 701 313 814 347 774 z m 386 1089 b 331 1049 375 1057 356 1049 b 165 1094 272 1049 226 1094 b 64 1013 118 1094 81 1069 l 118 981 b 174 1021 131 1013 149 1021 b 339 975 233 1021 278 975 b 440 1057 386 975 425 1000 z "},"Ö":{"ha":503,"x_min":0,"x_max":0,"o":"m 469 690 b 251 931 469 840 390 931 b 32 693 113 931 32 843 l 32 225 b 253 -8 32 75 110 -8 b 469 222 392 -8 469 68 z m 347 215 b 251 107 347 142 313 107 b 156 217 189 107 156 144 l 156 703 b 250 814 156 775 190 814 b 347 701 313 814 347 774 z m 203 989 l 203 1139 l 92 1139 l 92 989 z m 413 989 l 413 1139 l 301 1139 l 301 989 z "},"×":{"ha":478,"x_min":0,"x_max":0,"o":"m 424 579 l 357 646 l 239 528 l 122 646 l 56 579 l 172 461 l 54 343 l 121 278 l 239 396 l 357 278 l 425 344 l 306 463 z "},"Ø":{"ha":503,"x_min":0,"x_max":0,"o":"m 135 -26 l 147 11 b 253 -8 176 -1 213 -8 b 469 222 392 -8 469 68 l 469 690 b 418 860 469 761 451 818 l 447 949 l 369 949 l 356 908 b 251 931 326 922 292 931 b 32 693 113 931 32 843 l 32 225 b 83 57 32 153 50 97 l 57 -26 z m 156 703 b 250 814 156 775 190 814 b 318 789 279 814 301 806 l 161 281 l 156 281 z m 347 215 b 251 107 347 142 313 107 b 185 129 222 107 200 114 l 342 636 l 347 636 z "},"Ù":{"ha":511,"x_min":0,"x_max":0,"o":"m 350 217 b 254 107 350 144 318 107 b 160 215 193 107 160 142 l 160 922 l 38 922 l 38 222 b 256 -8 38 68 117 -8 b 472 225 399 -8 472 75 l 472 922 l 350 922 z m 319 940 l 367 989 l 160 1215 l 96 1143 z "},"Ú":{"ha":511,"x_min":0,"x_max":0,"o":"m 350 217 b 254 107 350 144 318 107 b 160 215 193 107 160 142 l 160 922 l 38 922 l 38 222 b 256 -8 38 68 117 -8 b 472 225 399 -8 472 75 l 472 922 l 350 922 z m 417 1143 l 353 1215 l 146 989 l 193 940 z "},"Û":{"ha":511,"x_min":0,"x_max":0,"o":"m 350 217 b 254 107 350 144 318 107 b 160 215 193 107 160 142 l 160 922 l 38 922 l 38 222 b 256 -8 38 68 117 -8 b 472 225 399 -8 472 75 l 472 922 l 350 922 z m 436 983 l 307 1163 l 197 1163 l 69 983 l 122 942 l 253 1092 l 383 942 z "},"Ü":{"ha":511,"x_min":0,"x_max":0,"o":"m 350 217 b 254 107 350 144 318 107 b 160 215 193 107 160 142 l 160 922 l 38 922 l 38 222 b 256 -8 38 68 117 -8 b 472 225 399 -8 472 75 l 472 922 l 350 922 z m 206 989 l 206 1139 l 94 1139 l 94 989 z m 415 989 l 415 1139 l 304 1139 l 304 989 z "},"Ý":{"ha":513,"x_min":0,"x_max":0,"o":"m 321 0 l 321 389 l 497 922 l 379 922 l 263 556 l 257 556 l 135 922 l 14 922 l 196 390 l 196 0 z m 425 1143 l 361 1215 l 154 989 l 201 940 z "},"Þ":{"ha":504,"x_min":0,"x_max":0,"o":"m 38 0 l 163 0 l 163 186 l 294 186 b 469 371 422 186 469 254 l 469 600 b 294 785 469 717 422 785 l 163 785 l 163 922 l 38 922 z m 269 676 b 351 581 328 676 351 642 l 351 408 b 269 294 351 336 335 294 l 163 294 l 163 676 z "},"ß":{"ha":528,"x_min":0,"x_max":0,"o":"m 376 206 b 276 94 376 131 343 94 b 206 107 253 94 229 99 l 206 6 b 294 -8 233 -3 260 -8 b 493 206 436 -8 493 61 l 493 315 b 368 501 493 422 456 490 l 368 507 b 467 656 432 518 467 568 l 467 758 b 256 942 467 893 389 942 b 38 733 104 942 38 878 l 38 0 l 154 0 l 154 697 b 250 833 154 783 172 833 b 343 743 310 833 343 807 l 343 638 b 256 553 343 585 318 553 l 224 553 l 224 453 l 264 453 b 376 318 354 453 376 404 z "},"à":{"ha":493,"x_min":0,"x_max":0,"o":"m 336 176 b 228 97 315 124 283 97 b 149 168 176 97 149 119 l 149 228 b 240 329 149 279 163 306 b 336 367 292 344 308 346 z m 454 0 l 454 519 b 256 675 454 625 386 675 b 42 510 121 675 42 621 l 42 453 l 154 453 l 154 496 b 249 571 154 546 186 571 b 335 503 307 571 335 549 l 335 475 b 208 401 335 431 269 419 b 31 207 78 364 31 324 l 31 140 b 176 -8 31 50 72 -8 b 335 85 264 -8 306 33 l 340 85 l 344 0 z m 311 700 l 358 749 l 151 975 l 88 903 z "},"á":{"ha":493,"x_min":0,"x_max":0,"o":"m 336 176 b 228 97 315 124 283 97 b 149 168 176 97 149 119 l 149 228 b 240 329 149 279 163 306 b 336 367 292 344 308 346 z m 454 0 l 454 519 b 256 675 454 625 386 675 b 42 510 121 675 42 621 l 42 453 l 154 453 l 154 496 b 249 571 154 546 186 571 b 335 503 307 571 335 549 l 335 475 b 208 401 335 431 269 419 b 31 207 78 364 31 324 l 31 140 b 176 -8 31 50 72 -8 b 335 85 264 -8 306 33 l 340 85 l 344 0 z m 407 903 l 343 975 l 136 749 l 183 700 z "},"â":{"ha":493,"x_min":0,"x_max":0,"o":"m 336 176 b 228 97 315 124 283 97 b 149 168 176 97 149 119 l 149 228 b 240 329 149 279 163 306 b 336 367 292 344 308 346 z m 454 0 l 454 519 b 256 675 454 625 386 675 b 42 510 121 675 42 621 l 42 453 l 154 453 l 154 496 b 249 571 154 546 186 571 b 335 503 307 571 335 549 l 335 475 b 208 401 335 431 269 419 b 31 207 78 364 31 324 l 31 140 b 176 -8 31 50 72 -8 b 335 85 264 -8 306 33 l 340 85 l 344 0 z m 428 743 l 299 922 l 189 922 l 61 743 l 114 701 l 244 851 l 375 701 z "},"ã":{"ha":493,"x_min":0,"x_max":0,"o":"m 336 176 b 228 97 315 124 283 97 b 149 168 176 97 149 119 l 149 228 b 240 329 149 279 163 306 b 336 367 292 344 308 346 z m 454 0 l 454 519 b 256 675 454 625 386 675 b 42 510 121 675 42 621 l 42 453 l 154 453 l 154 496 b 249 571 154 546 186 571 b 335 503 307 571 335 549 l 335 475 b 208 401 335 431 269 419 b 31 207 78 364 31 324 l 31 140 b 176 -8 31 50 72 -8 b 335 85 264 -8 306 33 l 340 85 l 344 0 z m 379 849 b 324 808 368 817 349 808 b 158 854 265 808 219 854 b 57 772 111 854 74 829 l 111 740 b 167 781 124 772 142 781 b 332 735 226 781 271 735 b 433 817 379 735 418 760 z "},"ä":{"ha":493,"x_min":0,"x_max":0,"o":"m 336 176 b 228 97 315 124 283 97 b 149 168 176 97 149 119 l 149 228 b 240 329 149 279 163 306 b 336 367 292 344 308 346 z m 454 0 l 454 519 b 256 675 454 625 386 675 b 42 510 121 675 42 621 l 42 453 l 154 453 l 154 496 b 249 571 154 546 186 571 b 335 503 307 571 335 549 l 335 475 b 208 401 335 431 269 419 b 31 207 78 364 31 324 l 31 140 b 176 -8 31 50 72 -8 b 335 85 264 -8 306 33 l 340 85 l 344 0 z m 197 749 l 197 899 l 86 899 l 86 749 z m 407 749 l 407 899 l 296 899 l 296 749 z "},"å":{"ha":493,"x_min":0,"x_max":0,"o":"m 336 176 b 228 97 315 124 283 97 b 149 168 176 97 149 119 l 149 228 b 240 329 149 279 163 306 b 336 367 292 344 308 346 z m 454 0 l 454 519 b 256 675 454 625 386 675 b 42 510 121 675 42 621 l 42 453 l 154 453 l 154 496 b 249 571 154 546 186 571 b 335 503 307 571 335 549 l 335 475 b 208 401 335 431 269 419 b 31 207 78 364 31 324 l 31 140 b 176 -8 31 50 72 -8 b 335 85 264 -8 306 33 l 340 85 l 344 0 z m 250 753 b 185 829 207 753 185 781 b 250 908 185 879 207 908 b 315 829 292 908 315 879 b 250 753 315 781 292 753 z m 250 700 b 368 829 329 700 368 749 b 250 960 368 911 329 960 b 131 829 169 960 131 911 b 250 700 131 749 169 700 z "},"æ":{"ha":793,"x_min":0,"x_max":0,"o":"m 753 231 l 635 231 l 635 197 b 543 97 635 131 604 97 b 451 197 482 97 451 131 l 451 301 l 753 301 l 753 467 b 544 675 753 607 685 675 b 401 635 482 675 435 661 b 256 675 371 661 322 675 b 42 510 121 675 42 621 l 42 453 l 154 453 l 154 496 b 249 571 154 546 186 571 b 335 503 307 571 335 549 l 335 475 b 208 401 335 431 269 419 b 31 207 78 364 31 324 l 31 140 b 175 -8 31 50 72 -8 b 344 107 263 -8 314 35 l 350 107 b 542 -8 376 28 438 -8 b 753 200 685 -8 753 61 z m 336 176 b 228 97 315 124 283 97 b 149 168 176 97 149 119 l 149 228 b 240 329 149 279 163 306 b 336 367 292 344 308 346 z m 636 390 l 451 390 l 451 469 b 543 569 451 536 482 569 b 636 469 606 569 636 536 z "},"ç":{"ha":492,"x_min":0,"x_max":0,"o":"m 338 200 b 247 100 338 132 310 100 b 157 200 188 100 157 132 l 157 467 b 249 567 157 535 188 567 b 339 467 310 567 339 535 l 339 422 l 451 422 l 451 467 b 249 675 451 607 390 675 b 40 467 107 675 40 607 l 40 200 b 247 -8 40 58 107 -8 b 451 200 390 -8 451 61 l 451 247 l 338 247 z m 192 -311 b 299 -150 267 -299 299 -250 l 299 -25 l 192 -25 l 192 -158 l 244 -158 l 244 -179 b 192 -253 244 -224 226 -242 z "},"è":{"ha":499,"x_min":0,"x_max":0,"o":"m 458 231 l 340 231 l 340 197 b 247 97 340 131 310 97 b 157 197 188 97 157 131 l 157 301 l 458 301 l 458 467 b 249 675 458 607 390 675 b 40 467 107 675 40 607 l 40 200 b 247 -8 40 58 107 -8 b 458 200 390 -8 458 61 z m 340 390 l 157 390 l 157 469 b 249 569 157 536 188 569 b 340 469 311 569 340 536 z m 313 700 l 360 749 l 153 975 l 89 903 z "},"ѐ":{"ha":499,"x_min":0,"x_max":0,"o":"m 458 231 l 340 231 l 340 197 b 247 97 340 131 310 97 b 157 197 188 97 157 131 l 157 301 l 458 301 l 458 467 b 249 675 458 607 390 675 b 40 467 107 675 40 607 l 40 200 b 247 -8 40 58 107 -8 b 458 200 390 -8 458 61 z m 340 390 l 157 390 l 157 469 b 249 569 157 536 188 569 b 340 469 311 569 340 536 z m 313 700 l 360 749 l 153 975 l 89 903 z "},"é":{"ha":499,"x_min":0,"x_max":0,"o":"m 458 231 l 340 231 l 340 197 b 247 97 340 131 310 97 b 157 197 188 97 157 131 l 157 301 l 458 301 l 458 467 b 249 675 458 607 390 675 b 40 467 107 675 40 607 l 40 200 b 247 -8 40 58 107 -8 b 458 200 390 -8 458 61 z m 340 390 l 157 390 l 157 469 b 249 569 157 536 188 569 b 340 469 311 569 340 536 z m 411 903 l 347 975 l 140 749 l 188 700 z "},"ê":{"ha":499,"x_min":0,"x_max":0,"o":"m 458 231 l 340 231 l 340 197 b 247 97 340 131 310 97 b 157 197 188 97 157 131 l 157 301 l 458 301 l 458 467 b 249 675 458 607 390 675 b 40 467 107 675 40 607 l 40 200 b 247 -8 40 58 107 -8 b 458 200 390 -8 458 61 z m 340 390 l 157 390 l 157 469 b 249 569 157 536 188 569 b 340 469 311 569 340 536 z m 432 743 l 303 922 l 193 922 l 65 743 l 118 701 l 249 851 l 379 701 z "},"ë":{"ha":499,"x_min":0,"x_max":0,"o":"m 458 231 l 340 231 l 340 197 b 247 97 340 131 310 97 b 157 197 188 97 157 131 l 157 301 l 458 301 l 458 467 b 249 675 458 607 390 675 b 40 467 107 675 40 607 l 40 200 b 247 -8 40 58 107 -8 b 458 200 390 -8 458 61 z m 340 390 l 157 390 l 157 469 b 249 569 157 536 188 569 b 340 469 311 569 340 536 z m 201 749 l 201 899 l 90 899 l 90 749 z m 411 749 l 411 899 l 300 899 l 300 749 z "},"ё":{"ha":499,"x_min":0,"x_max":0,"o":"m 458 231 l 340 231 l 340 197 b 247 97 340 131 310 97 b 157 197 188 97 157 131 l 157 301 l 458 301 l 458 467 b 249 675 458 607 390 675 b 40 467 107 675 40 607 l 40 200 b 247 -8 40 58 107 -8 b 458 200 390 -8 458 61 z m 340 390 l 157 390 l 157 469 b 249 569 157 536 188 569 b 340 469 311 569 340 536 z m 201 749 l 201 899 l 90 899 l 90 749 z m 411 749 l 411 899 l 300 899 l 300 749 z "},"ì":{"ha":250,"x_min":0,"x_max":0,"o":"m 208 700 l 256 749 l 49 975 l -15 903 z m 208 0 l 208 667 l 89 667 l 89 0 z "},"í":{"ha":261,"x_min":0,"x_max":0,"o":"m 278 903 l 214 975 l 7 749 l 54 700 z m 160 0 l 160 667 l 40 667 l 40 0 z "},"î":{"ha":336,"x_min":0,"x_max":0,"o":"m 226 0 l 226 667 l 107 667 l 107 0 z m 351 743 l 222 922 l 113 922 l -15 743 l 38 701 l 168 851 l 299 701 z "},"ï":{"ha":281,"x_min":0,"x_max":0,"o":"m 90 749 l 90 899 l -21 899 l -21 749 z m 300 749 l 300 899 l 189 899 l 189 749 z m 197 0 l 197 667 l 78 667 l 78 0 z "},"ї":{"ha":281,"x_min":0,"x_max":0,"o":"m 90 749 l 90 899 l -21 899 l -21 749 z m 300 749 l 300 899 l 189 899 l 189 749 z m 197 0 l 197 667 l 78 667 l 78 0 z "},"ð":{"ha":504,"x_min":0,"x_max":0,"o":"m 464 919 l 342 869 b 246 933 314 894 281 917 l 131 933 b 256 833 174 908 218 874 l 131 782 l 131 722 l 290 789 b 349 622 325 739 349 681 l 349 575 l 343 575 b 200 656 311 638 264 656 b 40 499 108 656 40 607 l 40 193 b 250 -8 40 72 76 -8 b 464 246 421 -8 464 69 l 464 564 b 382 826 464 675 433 761 l 464 861 z m 254 97 b 161 178 192 97 161 125 l 161 450 b 250 551 161 524 190 551 b 347 476 297 551 322 536 l 347 251 b 254 97 347 142 333 97 z "},"ñ":{"ha":507,"x_min":0,"x_max":0,"o":"m 467 0 l 467 497 b 307 675 467 613 401 675 b 161 571 236 675 190 643 l 156 571 l 151 667 l 40 667 l 40 0 l 160 0 l 160 472 b 260 569 181 542 204 569 b 346 475 315 569 346 540 l 346 0 z m 388 849 b 332 808 376 817 357 808 b 167 854 274 808 228 854 b 65 772 119 854 82 829 l 119 740 b 175 781 132 772 150 781 b 340 735 235 781 279 735 b 442 817 388 735 426 760 z "},"ò":{"ha":497,"x_min":0,"x_max":0,"o":"m 457 467 b 249 675 457 610 390 675 b 40 467 107 675 40 610 l 40 200 b 249 -8 40 57 107 -8 b 457 200 390 -8 457 57 z m 340 200 b 249 100 340 132 310 100 b 157 200 188 100 157 132 l 157 467 b 249 567 157 535 188 567 b 340 467 310 567 340 535 z m 313 700 l 360 749 l 153 975 l 89 903 z "},"ó":{"ha":497,"x_min":0,"x_max":0,"o":"m 457 467 b 249 675 457 610 390 675 b 40 467 107 675 40 610 l 40 200 b 249 -8 40 57 107 -8 b 457 200 390 -8 457 57 z m 340 200 b 249 100 340 132 310 100 b 157 200 188 100 157 132 l 157 467 b 249 567 157 535 188 567 b 340 467 310 567 340 535 z m 411 903 l 347 975 l 140 749 l 188 700 z "},"ô":{"ha":497,"x_min":0,"x_max":0,"o":"m 457 467 b 249 675 457 610 390 675 b 40 467 107 675 40 610 l 40 200 b 249 -8 40 57 107 -8 b 457 200 390 -8 457 57 z m 340 200 b 249 100 340 132 310 100 b 157 200 188 100 157 132 l 157 467 b 249 567 157 535 188 567 b 340 467 310 567 340 535 z m 433 743 l 304 922 l 194 922 l 67 743 l 119 701 l 250 851 l 381 701 z "},"õ":{"ha":497,"x_min":0,"x_max":0,"o":"m 457 467 b 249 675 457 610 390 675 b 40 467 107 675 40 610 l 40 200 b 249 -8 40 57 107 -8 b 457 200 390 -8 457 57 z m 340 200 b 249 100 340 132 310 100 b 157 200 188 100 157 132 l 157 467 b 249 567 157 535 188 567 b 340 467 310 567 340 535 z m 382 849 b 326 808 371 817 351 808 b 161 854 268 808 222 854 b 60 772 114 854 76 829 l 114 740 b 169 781 126 772 144 781 b 335 735 229 781 274 735 b 436 817 382 735 421 760 z "},"ö":{"ha":497,"x_min":0,"x_max":0,"o":"m 457 467 b 249 675 457 610 390 675 b 40 467 107 675 40 610 l 40 200 b 249 -8 40 57 107 -8 b 457 200 390 -8 457 57 z m 340 200 b 249 100 340 132 310 100 b 157 200 188 100 157 132 l 157 467 b 249 567 157 535 188 567 b 340 467 310 567 340 535 z m 201 749 l 201 899 l 90 899 l 90 749 z m 411 749 l 411 899 l 300 899 l 300 749 z "},"÷":{"ha":478,"x_min":0,"x_max":0,"o":"m 439 415 l 439 510 l 38 510 l 38 415 z m 299 150 l 299 315 l 176 315 l 176 150 z m 299 611 l 299 776 l 176 776 l 176 611 z "},"ø":{"ha":497,"x_min":0,"x_max":0,"o":"m 132 -22 l 144 8 b 249 -8 174 -3 208 -8 b 457 200 390 -8 457 57 l 457 467 b 410 619 457 535 442 586 l 440 690 l 367 690 l 353 658 b 249 675 324 669 289 675 b 40 467 107 675 40 610 l 40 200 b 88 46 40 131 56 79 l 58 -22 z m 157 467 b 249 567 157 535 188 567 b 306 551 272 567 292 561 l 163 206 l 157 206 z m 340 200 b 249 100 340 132 310 100 b 190 114 224 100 206 104 l 335 458 l 340 458 z "},"ù":{"ha":504,"x_min":0,"x_max":0,"o":"m 40 667 l 40 201 b 196 -8 40 65 82 -8 b 343 96 269 -8 313 21 l 349 96 l 351 0 l 464 0 l 464 667 l 344 667 l 344 206 b 247 97 328 125 307 97 b 161 200 188 97 161 125 l 161 667 z m 318 700 l 365 749 l 158 975 l 94 903 z "},"ú":{"ha":504,"x_min":0,"x_max":0,"o":"m 40 667 l 40 201 b 196 -8 40 65 82 -8 b 343 96 269 -8 313 21 l 349 96 l 351 0 l 464 0 l 464 667 l 344 667 l 344 206 b 247 97 328 125 307 97 b 161 200 188 97 161 125 l 161 667 z m 415 903 l 351 975 l 144 749 l 192 700 z "},"û":{"ha":504,"x_min":0,"x_max":0,"o":"m 40 667 l 40 201 b 196 -8 40 65 82 -8 b 343 96 269 -8 313 21 l 349 96 l 351 0 l 464 0 l 464 667 l 344 667 l 344 206 b 247 97 328 125 307 97 b 161 200 188 97 161 125 l 161 667 z m 436 743 l 307 922 l 197 922 l 69 743 l 122 701 l 253 851 l 383 701 z "},"ü":{"ha":504,"x_min":0,"x_max":0,"o":"m 40 667 l 40 201 b 196 -8 40 65 82 -8 b 343 96 269 -8 313 21 l 349 96 l 351 0 l 464 0 l 464 667 l 344 667 l 344 206 b 247 97 328 125 307 97 b 161 200 188 97 161 125 l 161 667 z m 204 749 l 204 899 l 93 899 l 93 749 z m 414 749 l 414 899 l 303 899 l 303 749 z "},"ý":{"ha":503,"x_min":0,"x_max":0,"o":"m 161 667 l 40 667 l 40 175 b 196 0 40 71 79 0 b 338 92 263 0 308 24 l 343 92 l 343 -115 b 250 -215 343 -183 313 -215 b 158 -115 189 -215 158 -183 l 158 -42 l 44 -42 l 44 -115 b 251 -324 44 -256 110 -324 b 463 -115 393 -324 463 -256 l 463 667 l 347 667 l 347 215 b 249 110 329 138 301 110 b 161 210 193 110 161 139 z m 415 903 l 351 975 l 144 749 l 192 700 z "},"þ":{"ha":503,"x_min":0,"x_max":0,"o":"m 342 197 b 256 97 342 132 314 97 b 156 203 200 97 172 131 l 156 461 b 256 569 175 538 200 569 b 342 469 311 569 342 539 z m 158 -324 l 158 83 l 164 83 b 306 -8 193 17 238 -8 b 463 224 429 -8 463 76 l 463 442 b 306 675 463 585 429 675 b 164 583 236 675 192 647 l 158 583 l 158 933 l 40 933 l 40 -324 z "},"ÿ":{"ha":503,"x_min":0,"x_max":0,"o":"m 161 667 l 40 667 l 40 175 b 196 0 40 71 79 0 b 338 92 263 0 308 24 l 343 92 l 343 -115 b 250 -215 343 -183 313 -215 b 158 -115 189 -215 158 -183 l 158 -42 l 44 -42 l 44 -115 b 251 -324 44 -256 110 -324 b 463 -115 393 -324 463 -256 l 463 667 l 347 667 l 347 215 b 249 110 329 138 301 110 b 161 210 193 110 161 139 z m 207 749 l 207 899 l 96 899 l 96 749 z m 417 749 l 417 899 l 306 899 l 306 749 z "},"Ā":{"ha":517,"x_min":0,"x_max":0,"o":"m 499 0 l 342 922 l 174 922 l 17 0 l 138 0 l 171 217 l 340 217 l 376 0 z m 253 728 l 258 728 l 324 324 l 188 324 z m 417 1021 l 417 1097 l 92 1097 l 92 1021 z "},"ā":{"ha":493,"x_min":0,"x_max":0,"o":"m 336 176 b 228 97 315 124 283 97 b 149 168 176 97 149 119 l 149 228 b 240 329 149 279 163 306 b 336 367 292 344 308 346 z m 454 0 l 454 519 b 256 675 454 625 386 675 b 42 510 121 675 42 621 l 42 453 l 154 453 l 154 496 b 249 571 154 546 186 571 b 335 503 307 571 335 549 l 335 475 b 208 401 335 431 269 419 b 31 207 78 364 31 324 l 31 140 b 176 -8 31 50 72 -8 b 335 85 264 -8 306 33 l 340 85 l 344 0 z m 406 781 l 406 857 l 81 857 l 81 781 z "},"Ă":{"ha":517,"x_min":0,"x_max":0,"o":"m 499 0 l 342 922 l 174 922 l 17 0 l 138 0 l 171 217 l 340 217 l 376 0 z m 253 728 l 258 728 l 324 324 l 188 324 z m 254 940 b 443 1161 365 940 443 1013 l 353 1161 b 254 1019 351 1064 317 1019 b 154 1161 190 1019 157 1064 l 67 1161 b 254 940 67 1014 143 940 z "},"ă":{"ha":493,"x_min":0,"x_max":0,"o":"m 336 176 b 228 97 315 124 283 97 b 149 168 176 97 149 119 l 149 228 b 240 329 149 279 163 306 b 336 367 292 344 308 346 z m 454 0 l 454 519 b 256 675 454 625 386 675 b 42 510 121 675 42 621 l 42 453 l 154 453 l 154 496 b 249 571 154 546 186 571 b 335 503 307 571 335 549 l 335 475 b 208 401 335 431 269 419 b 31 207 78 364 31 324 l 31 140 b 176 -8 31 50 72 -8 b 335 85 264 -8 306 33 l 340 85 l 344 0 z m 242 700 b 431 921 353 700 431 772 l 340 921 b 242 779 339 824 304 779 b 142 921 178 779 144 824 l 54 921 b 242 700 54 774 131 700 z "},"Ą":{"ha":517,"x_min":0,"x_max":0,"o":"m 496 -194 b 431 -206 479 -203 451 -206 b 360 -160 382 -206 360 -192 l 360 -129 b 499 0 360 -81 410 -32 l 342 922 l 174 922 l 17 0 l 138 0 l 171 217 l 340 217 l 376 0 l 424 0 l 424 -8 b 276 -165 333 -36 276 -87 l 276 -203 b 407 -311 276 -276 319 -311 b 496 -293 442 -311 474 -306 z m 253 728 l 258 728 l 324 324 l 188 324 z "},"ą":{"ha":493,"x_min":0,"x_max":0,"o":"m 451 -194 b 385 -206 433 -203 407 -206 b 315 -160 338 -206 315 -192 l 315 -129 b 454 0 315 -81 365 -32 l 454 519 b 256 675 454 625 386 675 b 42 510 121 675 42 621 l 42 453 l 154 453 l 154 496 b 247 571 154 546 186 571 b 335 503 307 571 335 549 l 335 475 b 208 401 335 435 283 422 b 31 207 78 364 31 324 l 31 140 b 176 -8 31 50 72 -8 b 335 85 264 -8 306 33 l 340 85 l 344 0 l 382 0 l 382 -7 b 232 -165 290 -35 232 -87 l 232 -203 b 361 -311 232 -276 274 -311 b 451 -293 397 -311 429 -306 z m 336 176 b 228 97 315 124 283 97 b 149 168 176 97 149 119 l 149 228 b 240 329 149 286 167 306 b 336 367 292 344 308 346 z "},"Ć":{"ha":504,"x_min":0,"x_max":0,"o":"m 349 215 b 254 107 349 142 317 107 b 161 215 189 107 161 144 l 161 703 b 254 814 161 775 193 814 b 349 701 317 814 349 774 l 349 592 l 467 592 l 467 701 b 250 931 467 854 390 931 b 38 700 111 931 38 854 l 38 225 b 254 -8 38 75 111 -8 b 467 222 393 -8 467 68 l 467 376 l 349 376 z m 418 1143 l 354 1215 l 147 989 l 194 940 z "},"ć":{"ha":492,"x_min":0,"x_max":0,"o":"m 338 200 b 247 100 338 132 310 100 b 157 200 188 100 157 132 l 157 467 b 249 567 157 535 188 567 b 339 467 310 567 339 535 l 339 422 l 451 422 l 451 467 b 249 675 451 607 390 675 b 40 467 107 675 40 607 l 40 200 b 247 -8 40 58 107 -8 b 451 200 390 -8 451 61 l 451 247 l 338 247 z m 410 903 l 346 975 l 139 749 l 186 700 z "},"Ċ":{"ha":504,"x_min":0,"x_max":0,"o":"m 349 215 b 254 107 349 142 317 107 b 161 215 189 107 161 144 l 161 703 b 254 814 161 775 193 814 b 349 701 317 814 349 774 l 349 592 l 467 592 l 467 701 b 250 931 467 854 390 931 b 38 700 111 931 38 854 l 38 225 b 254 -8 38 75 111 -8 b 467 222 393 -8 467 68 l 467 376 l 349 376 z m 311 989 l 311 1139 l 192 1139 l 192 989 z "},"ċ":{"ha":492,"x_min":0,"x_max":0,"o":"m 338 200 b 247 100 338 132 310 100 b 157 200 188 100 157 132 l 157 467 b 249 567 157 535 188 567 b 339 467 310 567 339 535 l 339 422 l 451 422 l 451 467 b 249 675 451 607 390 675 b 40 467 107 675 40 607 l 40 200 b 247 -8 40 58 107 -8 b 451 200 390 -8 451 61 l 451 247 l 338 247 z m 308 749 l 308 899 l 189 899 l 189 749 z "},"Č":{"ha":504,"x_min":0,"x_max":0,"o":"m 349 215 b 254 107 349 142 317 107 b 161 215 189 107 161 144 l 161 703 b 254 814 161 775 193 814 b 349 701 317 814 349 774 l 349 592 l 467 592 l 467 701 b 250 931 467 854 390 931 b 38 700 111 931 38 854 l 38 225 b 254 -8 38 75 111 -8 b 467 222 393 -8 467 68 l 467 376 l 349 376 z m 310 965 l 438 1146 l 385 1188 l 254 1038 l 124 1188 l 71 1146 l 200 965 z "},"č":{"ha":492,"x_min":0,"x_max":0,"o":"m 338 200 b 247 100 338 132 310 100 b 157 200 188 100 157 132 l 157 467 b 249 567 157 535 188 567 b 339 467 310 567 339 535 l 339 422 l 451 422 l 451 467 b 249 675 451 607 390 675 b 40 467 107 675 40 607 l 40 200 b 247 -8 40 58 107 -8 b 451 200 390 -8 451 61 l 451 247 l 338 247 z m 304 725 l 432 906 l 379 947 l 249 797 l 118 947 l 65 906 l 194 725 z "},"Ď":{"ha":514,"x_min":0,"x_max":0,"o":"m 265 0 b 475 225 403 0 475 72 l 475 710 b 265 922 475 850 403 922 l 38 922 l 38 0 z m 160 113 l 160 810 l 250 810 b 351 665 332 810 351 754 l 351 260 b 257 113 351 168 332 113 z m 310 965 l 438 1146 l 385 1188 l 254 1038 l 124 1188 l 71 1146 l 200 965 z "},"ď":{"ha":647,"x_min":0,"x_max":0,"o":"m 161 469 b 250 569 161 543 194 569 b 347 460 308 569 331 542 l 347 208 b 249 97 329 126 306 97 b 161 197 192 97 161 128 z m 463 0 l 463 933 l 344 933 l 344 583 l 339 583 b 199 675 313 647 265 675 b 40 497 100 675 40 613 l 40 169 b 200 -8 40 54 100 -8 b 346 96 272 -8 317 24 l 351 96 l 356 0 z m 503 538 b 625 742 583 560 625 622 l 625 933 l 503 933 l 503 767 l 557 767 l 557 726 b 503 610 557 665 539 632 z "},"đ":{"ha":503,"x_min":0,"x_max":0,"o":"m 463 0 l 463 781 l 503 781 l 503 857 l 463 857 l 463 933 l 344 933 l 344 857 l 178 857 l 178 781 l 344 781 l 344 583 l 339 583 b 199 675 313 647 265 675 b 40 497 100 675 40 613 l 40 169 b 200 -8 40 54 100 -8 b 346 96 272 -8 317 24 l 351 96 l 356 0 z m 161 469 b 250 569 161 543 194 569 b 347 460 308 569 331 542 l 347 208 b 249 97 329 126 306 97 b 161 197 192 97 161 128 z "},"Ē":{"ha":406,"x_min":0,"x_max":0,"o":"m 382 0 l 382 113 l 160 113 l 160 426 l 353 426 l 353 540 l 160 540 l 160 810 l 371 810 l 371 922 l 38 922 l 38 0 z m 371 1021 l 371 1097 l 46 1097 l 46 1021 z "},"ē":{"ha":499,"x_min":0,"x_max":0,"o":"m 458 231 l 340 231 l 340 197 b 247 97 340 131 310 97 b 157 197 188 97 157 131 l 157 301 l 458 301 l 458 467 b 249 675 458 607 390 675 b 40 467 107 675 40 607 l 40 200 b 247 -8 40 58 107 -8 b 458 200 390 -8 458 61 z m 340 390 l 157 390 l 157 469 b 249 569 157 536 188 569 b 340 469 311 569 340 536 z m 411 781 l 411 857 l 86 857 l 86 781 z "},"Ĕ":{"ha":406,"x_min":0,"x_max":0,"o":"m 382 0 l 382 113 l 160 113 l 160 426 l 353 426 l 353 540 l 160 540 l 160 810 l 371 810 l 371 922 l 38 922 l 38 0 z m 217 940 b 406 1161 328 940 406 1013 l 315 1161 b 217 1019 314 1064 279 1019 b 117 1161 153 1019 119 1064 l 29 1161 b 217 940 29 1014 106 940 z "},"ĕ":{"ha":499,"x_min":0,"x_max":0,"o":"m 458 231 l 340 231 l 340 197 b 247 97 340 131 310 97 b 157 197 188 97 157 131 l 157 301 l 458 301 l 458 467 b 249 675 458 607 390 675 b 40 467 107 675 40 607 l 40 200 b 247 -8 40 58 107 -8 b 458 200 390 -8 458 61 z m 340 390 l 157 390 l 157 469 b 249 569 157 536 188 569 b 340 469 311 569 340 536 z m 249 700 b 438 921 360 700 438 772 l 347 921 b 249 779 346 824 311 779 b 149 921 185 779 151 824 l 61 921 b 249 700 61 774 138 700 z "},"Ė":{"ha":406,"x_min":0,"x_max":0,"o":"m 382 0 l 382 113 l 160 113 l 160 426 l 353 426 l 353 540 l 160 540 l 160 810 l 371 810 l 371 922 l 38 922 l 38 0 z m 274 989 l 274 1139 l 154 1139 l 154 989 z "},"ė":{"ha":499,"x_min":0,"x_max":0,"o":"m 458 231 l 340 231 l 340 197 b 247 97 340 131 310 97 b 157 197 188 97 157 131 l 157 301 l 458 301 l 458 467 b 249 675 458 607 390 675 b 40 467 107 675 40 607 l 40 200 b 247 -8 40 58 107 -8 b 458 200 390 -8 458 61 z m 340 390 l 157 390 l 157 469 b 249 569 157 536 188 569 b 340 469 311 569 340 536 z m 307 749 l 307 899 l 188 899 l 188 749 z "},"Ę":{"ha":406,"x_min":0,"x_max":0,"o":"m 379 -194 b 313 -206 361 -203 335 -206 b 243 -160 265 -206 243 -192 l 243 -129 b 382 0 243 -81 293 -32 l 382 113 l 160 113 l 160 426 l 353 426 l 353 540 l 160 540 l 160 810 l 371 810 l 371 922 l 38 922 l 38 0 l 306 0 l 306 -8 b 160 -165 217 -36 160 -87 l 160 -203 b 289 -311 160 -276 201 -311 b 379 -293 325 -311 357 -306 z "},"ę":{"ha":499,"x_min":0,"x_max":0,"o":"m 335 -194 b 269 -206 318 -203 290 -206 b 199 -160 221 -206 199 -192 l 199 -129 b 321 0 199 -83 242 -33 b 458 200 414 21 458 88 l 458 231 l 340 231 l 340 197 b 247 97 340 131 310 97 b 157 197 188 97 157 131 l 157 301 l 458 301 l 458 467 b 249 675 458 607 390 675 b 40 467 107 675 40 607 l 40 200 b 221 -7 40 67 97 1 l 221 -18 b 115 -165 156 -49 115 -100 l 115 -203 b 246 -311 115 -276 157 -311 b 335 -293 281 -311 313 -306 z m 340 390 l 157 390 l 157 469 b 249 569 157 536 188 569 b 340 469 311 569 340 536 z "},"Ě":{"ha":406,"x_min":0,"x_max":0,"o":"m 382 0 l 382 113 l 160 113 l 160 426 l 353 426 l 353 540 l 160 540 l 160 810 l 371 810 l 371 922 l 38 922 l 38 0 z m 263 965 l 390 1146 l 338 1188 l 207 1038 l 76 1188 l 24 1146 l 153 965 z "},"ě":{"ha":499,"x_min":0,"x_max":0,"o":"m 458 231 l 340 231 l 340 197 b 247 97 340 131 310 97 b 157 197 188 97 157 131 l 157 301 l 458 301 l 458 467 b 249 675 458 607 390 675 b 40 467 107 675 40 607 l 40 200 b 247 -8 40 58 107 -8 b 458 200 390 -8 458 61 z m 340 390 l 157 390 l 157 469 b 249 569 157 536 188 569 b 340 469 311 569 340 536 z m 306 725 l 433 906 l 381 947 l 250 797 l 119 947 l 67 906 l 196 725 z "},"Ğ":{"ha":504,"x_min":0,"x_max":0,"o":"m 467 0 l 467 493 l 244 493 l 244 382 l 349 382 l 349 200 b 251 107 338 136 304 107 b 161 217 193 107 161 144 l 161 703 b 254 814 161 775 193 814 b 349 701 317 814 349 774 l 349 638 l 467 638 l 467 690 b 251 931 467 840 392 931 b 38 693 113 931 38 843 l 38 225 b 235 -8 38 75 110 -8 b 374 71 314 -8 350 26 l 379 71 l 385 0 z m 257 940 b 446 1161 368 940 446 1013 l 356 1161 b 257 1019 354 1064 319 1019 b 157 1161 193 1019 160 1064 l 69 1161 b 257 940 69 1014 146 940 z "},"ğ":{"ha":503,"x_min":0,"x_max":0,"o":"m 161 469 b 250 569 161 543 192 569 b 347 464 314 569 333 538 l 347 207 b 243 110 322 139 294 110 b 161 236 183 110 161 150 z m 463 -115 l 463 667 l 356 667 l 351 571 l 346 571 b 197 675 313 644 265 675 b 40 497 92 675 40 603 l 40 214 b 196 0 40 74 85 0 b 338 92 267 0 314 31 l 343 92 l 343 -115 b 250 -215 343 -182 313 -215 b 158 -115 189 -215 158 -182 l 158 -42 l 44 -42 l 44 -115 b 250 -324 44 -254 108 -324 b 463 -115 392 -324 463 -254 z m 256 700 b 444 921 367 700 444 772 l 354 921 b 256 779 353 824 318 779 b 156 921 192 779 158 824 l 68 921 b 256 700 68 774 144 700 z "},"Ġ":{"ha":504,"x_min":0,"x_max":0,"o":"m 467 0 l 467 493 l 244 493 l 244 382 l 349 382 l 349 200 b 251 107 338 136 304 107 b 161 217 193 107 161 144 l 161 703 b 254 814 161 775 193 814 b 349 701 317 814 349 774 l 349 638 l 467 638 l 467 690 b 251 931 467 840 392 931 b 38 693 113 931 38 843 l 38 225 b 235 -8 38 75 110 -8 b 374 71 314 -8 350 26 l 379 71 l 385 0 z m 314 989 l 314 1139 l 194 1139 l 194 989 z "},"ġ":{"ha":503,"x_min":0,"x_max":0,"o":"m 161 469 b 250 569 161 543 192 569 b 347 464 314 569 333 538 l 347 207 b 243 110 322 139 294 110 b 161 236 183 110 161 150 z m 463 -115 l 463 667 l 356 667 l 351 571 l 346 571 b 197 675 313 644 265 675 b 40 497 92 675 40 603 l 40 214 b 196 0 40 74 85 0 b 338 92 267 0 314 31 l 343 92 l 343 -115 b 250 -215 343 -182 313 -215 b 158 -115 189 -215 158 -182 l 158 -42 l 44 -42 l 44 -115 b 250 -324 44 -254 108 -324 b 463 -115 392 -324 463 -254 z m 310 749 l 310 899 l 190 899 l 190 749 z "},"Ģ":{"ha":504,"x_min":0,"x_max":0,"o":"m 467 0 l 467 493 l 244 493 l 244 382 l 349 382 l 349 200 b 251 107 338 136 304 107 b 161 217 193 107 161 144 l 161 703 b 254 814 161 775 193 814 b 349 701 317 814 349 774 l 349 638 l 467 638 l 467 690 b 251 931 467 840 392 931 b 38 693 113 931 38 843 l 38 225 b 235 -8 38 75 110 -8 b 374 71 314 -8 350 26 l 379 71 l 385 0 z m 199 -311 b 306 -150 274 -299 306 -250 l 306 -25 l 199 -25 l 199 -158 l 251 -158 l 251 -179 b 199 -253 251 -224 233 -242 z "},"ģ":{"ha":503,"x_min":0,"x_max":0,"o":"m 161 469 b 250 569 161 543 192 569 b 347 464 314 569 333 538 l 347 207 b 243 110 322 139 294 110 b 161 236 183 110 161 150 z m 463 -115 l 463 667 l 356 667 l 351 571 l 346 571 b 197 675 313 644 265 675 b 40 497 92 675 40 603 l 40 214 b 196 0 40 74 85 0 b 338 92 267 0 314 31 l 343 92 l 343 -115 b 250 -215 343 -182 313 -215 b 158 -115 189 -215 158 -182 l 158 -42 l 44 -42 l 44 -115 b 250 -324 44 -254 108 -324 b 463 -115 392 -324 463 -254 z m 306 1026 b 199 865 231 1014 199 965 l 199 740 l 306 740 l 306 874 l 253 874 l 253 894 b 306 968 253 939 271 957 z "},"Ħ":{"ha":519,"x_min":0,"x_max":0,"o":"m 481 0 l 481 686 l 519 686 l 519 764 l 481 764 l 481 922 l 357 922 l 357 764 l 163 764 l 163 922 l 38 922 l 38 764 l 0 764 l 0 686 l 38 686 l 38 0 l 163 0 l 163 433 l 357 433 l 357 0 z m 163 544 l 163 686 l 357 686 l 357 544 z "},"ħ":{"ha":507,"x_min":0,"x_max":0,"o":"m 325 781 l 325 857 l 160 857 l 160 933 l 40 933 l 40 857 l 0 857 l 0 781 l 40 781 l 40 0 l 160 0 l 160 432 b 261 569 163 531 200 569 b 346 475 314 569 346 540 l 346 0 l 467 0 l 467 493 b 308 675 467 586 426 675 b 165 583 240 675 190 646 l 160 583 l 160 781 z "},"ћ":{"ha":507,"x_min":0,"x_max":0,"o":"m 325 781 l 325 857 l 160 857 l 160 933 l 40 933 l 40 857 l 0 857 l 0 781 l 40 781 l 40 0 l 160 0 l 160 432 b 261 569 163 531 200 569 b 346 475 314 569 346 540 l 346 0 l 467 0 l 467 493 b 308 675 467 586 426 675 b 165 583 240 675 190 646 l 160 583 l 160 781 z "},"Ĩ":{"ha":281,"x_min":0,"x_max":0,"o":"m 203 0 l 203 922 l 78 922 l 78 0 z m 275 1072 b 219 1032 264 1040 244 1032 b 54 1078 161 1032 115 1078 b -47 996 7 1078 -31 1053 l 7 964 b 63 1004 19 996 38 1004 b 228 958 122 1004 167 958 b 329 1040 275 958 314 983 z "},"ĩ":{"ha":332,"x_min":0,"x_max":0,"o":"m 300 849 b 244 808 289 817 269 808 b 79 854 186 808 140 854 b -22 772 32 854 -6 829 l 32 740 b 88 781 44 772 63 781 b 253 735 147 781 192 735 b 354 817 300 735 339 760 z m 224 0 l 224 667 l 104 667 l 104 0 z "},"Ī":{"ha":281,"x_min":0,"x_max":0,"o":"m 203 0 l 203 922 l 78 922 l 78 0 z m 303 1004 l 303 1081 l -22 1081 l -22 1004 z "},"ī":{"ha":274,"x_min":0,"x_max":0,"o":"m 299 781 l 299 857 l -26 857 l -26 781 z m 194 0 l 194 667 l 75 667 l 75 0 z "},"Ĭ":{"ha":290,"x_min":0,"x_max":0,"o":"m 207 0 l 207 922 l 82 922 l 82 0 z m 144 940 b 333 1161 256 940 333 1013 l 243 1161 b 144 1019 242 1064 207 1019 b 44 1161 81 1019 47 1064 l -43 1161 b 144 940 -43 1014 33 940 z "},"ĭ":{"ha":321,"x_min":0,"x_max":0,"o":"m 160 700 b 349 921 271 700 349 772 l 258 921 b 160 779 257 824 222 779 b 60 921 96 779 63 824 l -28 921 b 160 700 -28 774 49 700 z m 219 0 l 219 667 l 100 667 l 100 0 z "},"Į":{"ha":218,"x_min":0,"x_max":0,"o":"m 176 -194 b 111 -206 160 -203 132 -206 b 40 -160 63 -206 40 -192 l 40 -129 b 179 0 40 -81 90 -32 l 179 922 l 56 922 l 56 0 l 101 0 l 101 -8 b -43 -165 13 -36 -43 -87 l -43 -203 b 88 -311 -43 -276 0 -311 b 176 -293 122 -311 154 -306 z "},"į":{"ha":219,"x_min":0,"x_max":0,"o":"m 175 -194 b 110 -206 158 -203 131 -206 b 39 -160 61 -206 39 -192 l 39 -129 b 178 0 39 -81 89 -32 l 178 667 l 58 667 l 58 0 l 103 0 l 103 -8 b -44 -165 13 -36 -44 -87 l -44 -203 b 86 -311 -44 -276 -3 -311 b 175 -293 121 -311 153 -306 z m 178 749 l 178 899 l 58 899 l 58 749 z "},"İ":{"ha":200,"x_min":0,"x_max":0,"o":"m 163 0 l 163 922 l 38 922 l 38 0 z m 160 972 l 160 1122 l 40 1122 l 40 972 z "},"ı":{"ha":200,"x_min":0,"x_max":0,"o":"m 160 0 l 160 667 l 40 667 l 40 0 z "},"Ĳ":{"ha":679,"x_min":0,"x_max":0,"o":"m 163 0 l 163 922 l 38 922 l 38 0 z m 519 217 b 424 107 519 144 486 107 b 331 215 363 107 331 142 l 331 335 l 214 335 l 214 222 b 425 -8 214 68 286 -8 b 642 225 568 -8 642 75 l 642 922 l 519 922 z "},"ĳ":{"ha":460,"x_min":0,"x_max":0,"o":"m 161 0 l 161 667 l 42 667 l 42 0 z m 161 749 l 161 899 l 42 899 l 42 749 z m 43 -128 b 229 -324 43 -258 99 -324 b 419 -128 360 -324 419 -258 l 419 667 l 300 667 l 300 -128 b 231 -215 300 -192 276 -215 b 163 -128 183 -215 163 -192 l 163 -81 l 43 -81 z m 419 749 l 419 899 l 300 899 l 300 749 z "},"Ķ":{"ha":511,"x_min":0,"x_max":0,"o":"m 494 0 l 322 557 l 496 922 l 369 922 l 169 508 l 164 508 l 164 922 l 38 922 l 38 0 l 164 0 l 164 268 l 231 399 l 236 399 l 368 0 z m 190 -311 b 297 -150 265 -299 297 -250 l 297 -25 l 190 -25 l 190 -158 l 243 -158 l 243 -179 b 190 -253 243 -224 225 -242 z "},"ķ":{"ha":501,"x_min":0,"x_max":0,"o":"m 483 0 l 317 403 l 486 667 l 356 667 l 165 383 l 160 383 l 160 933 l 40 933 l 40 0 l 160 0 l 160 193 l 226 286 l 231 286 l 357 0 z m 189 -311 b 296 -150 264 -299 296 -250 l 296 -25 l 189 -25 l 189 -158 l 242 -158 l 242 -179 b 189 -253 242 -224 224 -242 z "},"Ĺ":{"ha":415,"x_min":0,"x_max":0,"o":"m 390 0 l 390 114 l 163 114 l 163 922 l 38 922 l 38 0 z m 300 1143 l 236 1215 l 29 989 l 76 940 z "},"ĺ":{"ha":224,"x_min":0,"x_max":0,"o":"m 160 0 l 160 933 l 40 933 l 40 0 z m 285 1143 l 221 1215 l 14 989 l 61 940 z "},"Ļ":{"ha":415,"x_min":0,"x_max":0,"o":"m 390 0 l 390 114 l 163 114 l 163 922 l 38 922 l 38 0 z m 156 -311 b 263 -150 231 -299 263 -250 l 263 -25 l 156 -25 l 156 -158 l 208 -158 l 208 -179 b 156 -253 208 -224 190 -242 z "},"ļ":{"ha":201,"x_min":0,"x_max":0,"o":"m 160 0 l 160 933 l 40 933 l 40 0 z m 47 -311 b 154 -150 122 -299 154 -250 l 154 -25 l 47 -25 l 47 -158 l 100 -158 l 100 -179 b 47 -253 100 -224 82 -242 z "},"Ľ":{"ha":431,"x_min":0,"x_max":0,"o":"m 390 0 l 390 114 l 163 114 l 163 922 l 38 922 l 38 0 z m 244 538 b 367 742 325 560 367 622 l 367 933 l 244 933 l 244 767 l 299 767 l 299 726 b 244 610 299 665 281 632 z "},"ľ":{"ha":344,"x_min":0,"x_max":0,"o":"m 160 0 l 160 933 l 40 933 l 40 0 z m 201 538 b 324 742 282 560 324 622 l 324 933 l 201 933 l 201 767 l 256 767 l 256 726 b 201 610 256 665 238 632 z "},"Ł":{"ha":415,"x_min":0,"x_max":0,"o":"m 390 0 l 390 114 l 163 114 l 163 579 l 342 657 l 342 764 l 163 686 l 163 922 l 38 922 l 38 0 z "},"ł":{"ha":278,"x_min":0,"x_max":0,"o":"m 199 0 l 199 444 l 268 472 l 268 564 l 199 536 l 199 933 l 79 933 l 79 489 l 10 463 l 10 371 l 79 397 l 79 0 z "},"Ń":{"ha":544,"x_min":0,"x_max":0,"o":"m 506 0 l 506 922 l 396 922 l 396 483 b 400 260 396 422 397 347 l 394 260 l 201 922 l 38 922 l 38 0 l 147 0 l 147 519 b 143 714 147 581 146 646 l 149 714 l 360 0 z m 436 1143 l 372 1215 l 165 989 l 213 940 z "},"ń":{"ha":507,"x_min":0,"x_max":0,"o":"m 467 0 l 467 497 b 307 675 467 613 401 675 b 161 571 236 675 190 643 l 156 571 l 151 667 l 40 667 l 40 0 l 160 0 l 160 472 b 260 569 181 542 204 569 b 346 475 315 569 346 540 l 346 0 z m 415 903 l 351 975 l 144 749 l 192 700 z "},"Ņ":{"ha":544,"x_min":0,"x_max":0,"o":"m 506 0 l 506 922 l 396 922 l 396 483 b 400 260 396 422 397 347 l 394 260 l 201 922 l 38 922 l 38 0 l 147 0 l 147 519 b 143 714 147 581 146 646 l 149 714 l 360 0 z m 213 -311 b 319 -150 288 -299 319 -250 l 319 -25 l 213 -25 l 213 -158 l 265 -158 l 265 -179 b 213 -253 265 -224 247 -242 z "},"ņ":{"ha":507,"x_min":0,"x_max":0,"o":"m 467 0 l 467 497 b 307 675 467 613 401 675 b 161 571 236 675 190 643 l 156 571 l 151 667 l 40 667 l 40 0 l 160 0 l 160 472 b 260 569 181 542 204 569 b 346 475 315 569 346 540 l 346 0 z m 200 -311 b 307 -150 275 -299 307 -250 l 307 -25 l 200 -25 l 200 -158 l 253 -158 l 253 -179 b 200 -253 253 -224 235 -242 z "},"Ň":{"ha":544,"x_min":0,"x_max":0,"o":"m 506 0 l 506 922 l 396 922 l 396 483 b 400 260 396 422 397 347 l 394 260 l 201 922 l 38 922 l 38 0 l 147 0 l 147 519 b 143 714 147 581 146 646 l 149 714 l 360 0 z m 329 965 l 457 1146 l 404 1188 l 274 1038 l 143 1188 l 90 1146 l 219 965 z "},"ň":{"ha":507,"x_min":0,"x_max":0,"o":"m 467 0 l 467 497 b 307 675 467 613 401 675 b 161 571 236 675 190 643 l 156 571 l 151 667 l 40 667 l 40 0 l 160 0 l 160 472 b 260 569 181 542 204 569 b 346 475 315 569 346 540 l 346 0 z m 308 725 l 436 906 l 383 947 l 253 797 l 122 947 l 69 906 l 199 725 z "},"Ŋ":{"ha":544,"x_min":0,"x_max":0,"o":"m 506 -115 l 506 922 l 396 922 l 396 483 b 400 260 396 422 397 347 l 394 260 l 201 922 l 38 922 l 38 0 l 147 0 l 147 519 b 143 714 147 581 146 646 l 149 714 l 368 -29 l 368 -115 b 281 -215 368 -183 339 -215 b 242 -211 268 -215 251 -214 l 242 -318 b 297 -324 253 -321 269 -324 b 506 -115 426 -324 506 -256 z "},"ŋ":{"ha":507,"x_min":0,"x_max":0,"o":"m 226 -318 b 276 -324 238 -321 253 -324 b 467 -115 393 -324 467 -256 l 467 497 b 307 675 467 613 401 675 b 161 571 236 675 190 643 l 156 571 l 151 667 l 40 667 l 40 0 l 160 0 l 160 472 b 260 569 181 542 204 569 b 346 475 315 569 346 540 l 346 -115 b 263 -215 346 -185 319 -215 b 226 -211 251 -215 236 -215 z "},"Ō":{"ha":503,"x_min":0,"x_max":0,"o":"m 469 690 b 251 931 469 840 390 931 b 32 693 113 931 32 843 l 32 225 b 253 -8 32 75 110 -8 b 469 222 392 -8 469 68 z m 347 215 b 251 107 347 142 313 107 b 156 217 189 107 156 144 l 156 703 b 250 814 156 775 190 814 b 347 701 313 814 347 774 z m 414 1021 l 414 1097 l 89 1097 l 89 1021 z "},"ō":{"ha":497,"x_min":0,"x_max":0,"o":"m 457 467 b 249 675 457 610 390 675 b 40 467 107 675 40 610 l 40 200 b 249 -8 40 57 107 -8 b 457 200 390 -8 457 57 z m 340 200 b 249 100 340 132 310 100 b 157 200 188 100 157 132 l 157 467 b 249 567 157 535 188 567 b 340 467 310 567 340 535 z m 411 781 l 411 857 l 86 857 l 86 781 z "},"Ŏ":{"ha":503,"x_min":0,"x_max":0,"o":"m 469 690 b 251 931 469 840 390 931 b 32 693 113 931 32 843 l 32 225 b 253 -8 32 75 110 -8 b 469 222 392 -8 469 68 z m 347 215 b 251 107 347 142 313 107 b 156 217 189 107 156 144 l 156 703 b 250 814 156 775 190 814 b 347 701 313 814 347 774 z m 251 940 b 440 1161 363 940 440 1013 l 350 1161 b 251 1019 349 1064 314 1019 b 151 1161 188 1019 154 1064 l 64 1161 b 251 940 64 1014 140 940 z "},"ŏ":{"ha":497,"x_min":0,"x_max":0,"o":"m 457 467 b 249 675 457 610 390 675 b 40 467 107 675 40 610 l 40 200 b 249 -8 40 57 107 -8 b 457 200 390 -8 457 57 z m 340 200 b 249 100 340 132 310 100 b 157 200 188 100 157 132 l 157 467 b 249 567 157 535 188 567 b 340 467 310 567 340 535 z m 249 700 b 438 921 360 700 438 772 l 347 921 b 249 779 346 824 311 779 b 149 921 185 779 151 824 l 61 921 b 249 700 61 774 138 700 z "},"Ő":{"ha":503,"x_min":0,"x_max":0,"o":"m 469 690 b 251 931 469 840 390 931 b 32 693 113 931 32 843 l 32 225 b 253 -8 32 75 110 -8 b 469 222 392 -8 469 68 z m 347 215 b 251 107 347 142 313 107 b 156 217 189 107 156 144 l 156 703 b 250 814 156 775 190 814 b 347 701 313 814 347 774 z m 149 940 l 300 1171 l 222 1215 l 93 968 z m 313 940 l 464 1171 l 386 1215 l 257 968 z "},"ő":{"ha":497,"x_min":0,"x_max":0,"o":"m 457 467 b 249 675 457 610 390 675 b 40 467 107 675 40 610 l 40 200 b 249 -8 40 57 107 -8 b 457 200 390 -8 457 57 z m 340 200 b 249 100 340 132 310 100 b 157 200 188 100 157 132 l 157 467 b 249 567 157 535 188 567 b 340 467 310 567 340 535 z m 146 700 l 297 931 l 219 975 l 90 728 z m 310 700 l 461 931 l 383 975 l 254 728 z "},"Œ":{"ha":675,"x_min":0,"x_max":0,"o":"m 651 0 l 651 113 l 436 113 b 469 222 458 138 469 175 l 469 426 l 622 426 l 622 540 l 469 540 l 469 690 b 433 810 469 740 457 781 l 642 810 l 642 922 l 317 922 b 251 931 297 928 275 931 b 32 693 113 931 32 843 l 32 225 b 253 -8 32 75 110 -8 b 324 0 278 -8 301 -6 z m 347 215 b 251 107 347 142 313 107 b 156 217 189 107 156 144 l 156 703 b 250 814 156 775 190 814 b 347 701 313 814 347 774 z "},"œ":{"ha":788,"x_min":0,"x_max":0,"o":"m 749 231 l 631 231 l 631 197 b 539 97 631 131 600 97 b 449 197 478 97 449 131 l 449 301 l 749 301 l 749 467 b 540 675 749 607 681 675 b 394 629 474 675 426 660 b 249 675 363 660 315 675 b 40 467 107 675 40 610 l 40 200 b 249 -8 40 57 107 -8 b 394 36 315 -8 363 6 b 539 -8 425 6 472 -8 b 749 200 681 -8 749 61 z m 340 200 b 249 100 340 132 310 100 b 157 200 188 100 157 132 l 157 467 b 249 567 157 535 188 567 b 340 467 310 567 340 535 z m 632 390 l 449 390 l 449 469 b 540 569 449 536 478 569 b 632 469 601 569 632 536 z "},"Ŕ":{"ha":504,"x_min":0,"x_max":0,"o":"m 160 0 l 160 401 l 272 401 b 350 317 332 401 350 376 l 350 0 l 472 0 l 472 307 b 375 456 472 399 440 443 l 375 461 b 469 611 435 476 469 526 l 469 738 b 294 922 469 854 424 922 l 38 922 l 38 0 z m 349 600 b 268 506 349 529 318 506 l 160 506 l 160 810 l 267 810 b 349 724 325 810 349 781 z m 403 1143 l 339 1215 l 132 989 l 179 940 z "},"ŕ":{"ha":385,"x_min":0,"x_max":0,"o":"m 160 0 l 160 410 b 299 565 182 528 225 565 b 361 551 326 565 349 560 l 361 661 b 306 675 343 671 325 675 b 161 553 236 675 188 631 l 156 553 l 151 667 l 40 667 l 40 0 z m 361 903 l 297 975 l 90 749 l 138 700 z "},"Ŗ":{"ha":504,"x_min":0,"x_max":0,"o":"m 160 0 l 160 401 l 272 401 b 350 317 332 401 350 376 l 350 0 l 472 0 l 472 307 b 375 456 472 399 440 443 l 375 461 b 469 611 435 476 469 526 l 469 738 b 294 922 469 854 424 922 l 38 922 l 38 0 z m 349 600 b 268 506 349 529 318 506 l 160 506 l 160 810 l 267 810 b 349 724 325 810 349 781 z m 196 -311 b 303 -150 271 -299 303 -250 l 303 -25 l 196 -25 l 196 -158 l 249 -158 l 249 -179 b 196 -253 249 -224 231 -242 z "},"ŗ":{"ha":385,"x_min":0,"x_max":0,"o":"m 160 0 l 160 410 b 299 565 182 528 225 565 b 361 551 326 565 349 560 l 361 661 b 306 675 343 671 325 675 b 161 553 236 675 188 631 l 156 553 l 151 667 l 40 667 l 40 0 z m 46 -311 b 153 -150 121 -299 153 -250 l 153 -25 l 46 -25 l 46 -158 l 99 -158 l 99 -179 b 46 -253 99 -224 81 -242 z "},"Ř":{"ha":504,"x_min":0,"x_max":0,"o":"m 160 0 l 160 401 l 272 401 b 350 317 332 401 350 376 l 350 0 l 472 0 l 472 307 b 375 456 472 399 440 443 l 375 461 b 469 611 435 476 469 526 l 469 738 b 294 922 469 854 424 922 l 38 922 l 38 0 z m 349 600 b 268 506 349 529 318 506 l 160 506 l 160 810 l 267 810 b 349 724 325 810 349 781 z m 301 965 l 429 1146 l 376 1188 l 246 1038 l 115 1188 l 63 1146 l 192 965 z "},"ř":{"ha":385,"x_min":0,"x_max":0,"o":"m 160 0 l 160 410 b 299 565 182 528 225 565 b 361 551 326 565 349 560 l 361 661 b 306 675 343 671 325 675 b 161 553 236 675 188 631 l 156 553 l 151 667 l 40 667 l 40 0 z m 256 725 l 383 906 l 331 947 l 200 797 l 69 947 l 17 906 l 146 725 z "},"Ś":{"ha":521,"x_min":0,"x_max":0,"o":"m 472 650 l 472 690 b 256 931 472 829 424 931 b 36 724 103 931 36 846 l 36 683 b 107 514 36 610 61 561 b 299 371 164 458 235 424 b 358 254 344 335 358 311 l 358 213 b 257 107 358 139 322 107 b 150 222 182 107 150 147 l 150 276 l 32 276 l 32 224 b 260 -8 32 72 99 -8 b 489 215 421 -8 489 71 l 489 272 b 422 439 489 357 465 401 b 214 583 371 485 276 535 b 160 682 171 618 160 642 l 160 718 b 257 814 160 772 190 814 b 356 703 326 814 356 771 l 356 650 z m 419 1143 l 356 1215 l 149 989 l 196 940 z "},"ś":{"ha":490,"x_min":0,"x_max":0,"o":"m 449 461 l 449 494 b 243 675 449 606 381 675 b 42 521 114 675 42 613 l 42 488 b 101 369 42 442 57 403 b 279 268 142 339 271 272 b 338 190 329 240 338 218 l 338 164 b 244 90 338 114 310 90 b 149 169 175 90 149 117 l 149 214 l 35 214 l 35 174 b 250 -8 35 56 99 -8 b 456 165 392 -8 456 49 l 456 196 b 383 329 456 264 429 299 b 204 422 329 365 267 383 b 156 489 164 447 156 461 l 156 510 b 247 575 156 551 188 575 b 336 500 310 575 336 549 l 336 461 z m 407 903 l 343 975 l 136 749 l 183 700 z "},"Ş":{"ha":521,"x_min":0,"x_max":0,"o":"m 472 650 l 472 690 b 256 931 472 829 424 931 b 36 724 103 931 36 846 l 36 683 b 107 514 36 610 61 561 b 299 371 164 458 235 424 b 358 254 344 335 358 311 l 358 213 b 257 107 358 139 322 107 b 150 222 182 107 150 147 l 150 276 l 32 276 l 32 224 b 260 -8 32 72 99 -8 b 489 215 421 -8 489 71 l 489 272 b 422 439 489 357 465 401 b 214 583 371 485 276 535 b 160 682 171 618 160 642 l 160 718 b 257 814 160 772 190 814 b 356 703 326 814 356 771 l 356 650 z m 204 -311 b 311 -150 279 -299 311 -250 l 311 -25 l 204 -25 l 204 -158 l 257 -158 l 257 -179 b 204 -253 257 -224 239 -242 z "},"Ș":{"ha":521,"x_min":0,"x_max":0,"o":"m 472 650 l 472 690 b 256 931 472 829 424 931 b 36 724 103 931 36 846 l 36 683 b 107 514 36 610 61 561 b 299 371 164 458 235 424 b 358 254 344 335 358 311 l 358 213 b 257 107 358 139 322 107 b 150 222 182 107 150 147 l 150 276 l 32 276 l 32 224 b 260 -8 32 72 99 -8 b 489 215 421 -8 489 71 l 489 272 b 422 439 489 357 465 401 b 214 583 371 485 276 535 b 160 682 171 618 160 642 l 160 718 b 257 814 160 772 190 814 b 356 703 326 814 356 771 l 356 650 z m 204 -311 b 311 -150 279 -299 311 -250 l 311 -25 l 204 -25 l 204 -158 l 257 -158 l 257 -179 b 204 -253 257 -224 239 -242 z "},"ş":{"ha":490,"x_min":0,"x_max":0,"o":"m 449 461 l 449 494 b 243 675 449 606 381 675 b 42 521 114 675 42 613 l 42 488 b 101 369 42 442 57 403 b 279 268 142 339 271 272 b 338 190 329 240 338 218 l 338 164 b 244 90 338 114 310 90 b 149 169 175 90 149 117 l 149 214 l 35 214 l 35 174 b 250 -8 35 56 99 -8 b 456 165 392 -8 456 49 l 456 196 b 383 329 456 264 429 299 b 204 422 329 365 267 383 b 156 489 164 447 156 461 l 156 510 b 247 575 156 551 188 575 b 336 500 310 575 336 549 l 336 461 z m 192 -311 b 299 -150 267 -299 299 -250 l 299 -25 l 192 -25 l 192 -158 l 244 -158 l 244 -179 b 192 -253 244 -224 226 -242 z "},"ș":{"ha":490,"x_min":0,"x_max":0,"o":"m 449 461 l 449 494 b 243 675 449 606 381 675 b 42 521 114 675 42 613 l 42 488 b 101 369 42 442 57 403 b 279 268 142 339 271 272 b 338 190 329 240 338 218 l 338 164 b 244 90 338 114 310 90 b 149 169 175 90 149 117 l 149 214 l 35 214 l 35 174 b 250 -8 35 56 99 -8 b 456 165 392 -8 456 49 l 456 196 b 383 329 456 264 429 299 b 204 422 329 365 267 383 b 156 489 164 447 156 461 l 156 510 b 247 575 156 551 188 575 b 336 500 310 575 336 549 l 336 461 z m 192 -311 b 299 -150 267 -299 299 -250 l 299 -25 l 192 -25 l 192 -158 l 244 -158 l 244 -179 b 192 -253 244 -224 226 -242 z "},"Š":{"ha":521,"x_min":0,"x_max":0,"o":"m 472 650 l 472 690 b 256 931 472 829 424 931 b 36 724 103 931 36 846 l 36 683 b 107 514 36 610 61 561 b 299 371 164 458 235 424 b 358 254 344 335 358 311 l 358 213 b 257 107 358 139 322 107 b 150 222 182 107 150 147 l 150 276 l 32 276 l 32 224 b 260 -8 32 72 99 -8 b 489 215 421 -8 489 71 l 489 272 b 422 439 489 357 465 401 b 214 583 371 485 276 535 b 160 682 171 618 160 642 l 160 718 b 257 814 160 772 190 814 b 356 703 326 814 356 771 l 356 650 z m 318 965 l 446 1146 l 393 1188 l 263 1038 l 132 1188 l 79 1146 l 208 965 z "},"š":{"ha":490,"x_min":0,"x_max":0,"o":"m 449 461 l 449 494 b 243 675 449 606 381 675 b 42 521 114 675 42 613 l 42 488 b 101 369 42 442 57 403 b 279 268 142 339 271 272 b 338 190 329 240 338 218 l 338 164 b 244 90 338 114 310 90 b 149 169 175 90 149 117 l 149 214 l 35 214 l 35 174 b 250 -8 35 56 99 -8 b 456 165 392 -8 456 49 l 456 196 b 383 329 456 264 429 299 b 204 422 329 365 267 383 b 156 489 164 447 156 461 l 156 510 b 247 575 156 551 188 575 b 336 500 310 575 336 549 l 336 461 z m 299 725 l 426 906 l 374 947 l 243 797 l 113 947 l 60 906 l 189 725 z "},"Ţ":{"ha":486,"x_min":0,"x_max":0,"o":"m 304 0 l 304 810 l 461 810 l 461 922 l 26 922 l 26 810 l 181 810 l 181 0 z m 189 -311 b 296 -150 264 -299 296 -250 l 296 -25 l 189 -25 l 189 -158 l 242 -158 l 242 -179 b 189 -253 242 -224 224 -242 z "},"Ț":{"ha":486,"x_min":0,"x_max":0,"o":"m 304 0 l 304 810 l 461 810 l 461 922 l 26 922 l 26 810 l 181 810 l 181 0 z m 189 -311 b 296 -150 264 -299 296 -250 l 296 -25 l 189 -25 l 189 -158 l 242 -158 l 242 -179 b 189 -253 242 -224 224 -242 z "},"ţ":{"ha":476,"x_min":0,"x_max":0,"o":"m 332 200 b 250 100 332 132 310 100 b 158 200 188 100 158 132 l 158 560 l 435 560 l 435 667 l 158 667 l 158 851 l 40 851 l 40 200 b 249 -8 40 60 106 -8 b 435 200 389 -8 435 60 l 435 381 l 332 381 z m 188 -311 b 294 -150 263 -299 294 -250 l 294 -25 l 188 -25 l 188 -158 l 240 -158 l 240 -179 b 188 -253 240 -224 222 -242 z "},"ț":{"ha":476,"x_min":0,"x_max":0,"o":"m 332 200 b 250 100 332 132 310 100 b 158 200 188 100 158 132 l 158 560 l 435 560 l 435 667 l 158 667 l 158 851 l 40 851 l 40 200 b 249 -8 40 60 106 -8 b 435 200 389 -8 435 60 l 435 381 l 332 381 z m 188 -311 b 294 -150 263 -299 294 -250 l 294 -25 l 188 -25 l 188 -158 l 240 -158 l 240 -179 b 188 -253 240 -224 222 -242 z "},"Ť":{"ha":486,"x_min":0,"x_max":0,"o":"m 304 0 l 304 810 l 461 810 l 461 922 l 26 922 l 26 810 l 181 810 l 181 0 z m 300 954 l 428 1135 l 375 1176 l 244 1026 l 114 1176 l 61 1135 l 190 954 z "},"ť":{"ha":601,"x_min":0,"x_max":0,"o":"m 332 200 b 250 100 332 132 310 100 b 158 200 188 100 158 132 l 158 560 l 435 560 l 435 667 l 158 667 l 158 851 l 40 851 l 40 200 b 249 -8 40 60 106 -8 b 435 200 389 -8 435 60 l 435 381 l 332 381 z m 458 538 b 581 742 539 560 581 622 l 581 933 l 458 933 l 458 767 l 513 767 l 513 726 b 458 610 513 665 494 632 z "},"Ŧ":{"ha":486,"x_min":0,"x_max":0,"o":"m 304 0 l 304 404 l 406 404 l 406 482 l 304 482 l 304 810 l 461 810 l 461 922 l 26 922 l 26 810 l 181 810 l 181 482 l 81 482 l 81 404 l 181 404 l 181 0 z "},"ŧ":{"ha":476,"x_min":0,"x_max":0,"o":"m 417 418 l 417 485 l 158 485 l 158 560 l 435 560 l 435 667 l 158 667 l 158 851 l 40 851 l 40 200 b 249 -8 40 60 106 -8 b 435 200 389 -8 435 60 l 435 357 l 332 357 l 332 200 b 250 100 332 132 310 100 b 158 200 188 100 158 132 l 158 418 z "},"Ũ":{"ha":511,"x_min":0,"x_max":0,"o":"m 350 217 b 254 107 350 144 318 107 b 160 215 193 107 160 142 l 160 922 l 38 922 l 38 222 b 256 -8 38 68 117 -8 b 472 225 399 -8 472 75 l 472 922 l 350 922 z m 389 1089 b 333 1049 378 1057 358 1049 b 168 1094 275 1049 229 1094 b 67 1013 121 1094 83 1069 l 121 981 b 176 1021 133 1013 151 1021 b 342 975 236 1021 281 975 b 443 1057 389 975 428 1000 z "},"ũ":{"ha":504,"x_min":0,"x_max":0,"o":"m 40 667 l 40 201 b 196 -8 40 65 82 -8 b 343 96 269 -8 313 21 l 349 96 l 351 0 l 464 0 l 464 667 l 344 667 l 344 206 b 247 97 328 125 307 97 b 161 200 188 97 161 125 l 161 667 z m 388 849 b 332 808 376 817 357 808 b 167 854 274 808 228 854 b 65 772 119 854 82 829 l 119 740 b 175 781 132 772 150 781 b 340 735 235 781 279 735 b 442 817 388 735 426 760 z "},"Ū":{"ha":511,"x_min":0,"x_max":0,"o":"m 350 217 b 254 107 350 144 318 107 b 160 215 193 107 160 142 l 160 922 l 38 922 l 38 222 b 256 -8 38 68 117 -8 b 472 225 399 -8 472 75 l 472 922 l 350 922 z m 418 1021 l 418 1097 l 93 1097 l 93 1021 z "},"ū":{"ha":504,"x_min":0,"x_max":0,"o":"m 40 667 l 40 201 b 196 -8 40 65 82 -8 b 343 96 269 -8 313 21 l 349 96 l 351 0 l 464 0 l 464 667 l 344 667 l 344 206 b 247 97 328 125 307 97 b 161 200 188 97 161 125 l 161 667 z m 415 781 l 415 857 l 90 857 l 90 781 z "},"Ŭ":{"ha":511,"x_min":0,"x_max":0,"o":"m 350 217 b 254 107 350 144 318 107 b 160 215 193 107 160 142 l 160 922 l 38 922 l 38 222 b 256 -8 38 68 117 -8 b 472 225 399 -8 472 75 l 472 922 l 350 922 z m 253 940 b 442 1161 364 940 442 1013 l 351 1161 b 253 1019 350 1064 315 1019 b 153 1161 189 1019 156 1064 l 65 1161 b 253 940 65 1014 142 940 z "},"ŭ":{"ha":504,"x_min":0,"x_max":0,"o":"m 40 667 l 40 201 b 196 -8 40 65 82 -8 b 343 96 269 -8 313 21 l 349 96 l 351 0 l 464 0 l 464 667 l 344 667 l 344 206 b 247 97 328 125 307 97 b 161 200 188 97 161 125 l 161 667 z m 251 700 b 440 921 363 700 440 772 l 350 921 b 251 779 349 824 314 779 b 151 921 188 779 154 824 l 64 921 b 251 700 64 774 140 700 z "},"Ů":{"ha":511,"x_min":0,"x_max":0,"o":"m 350 217 b 254 107 350 144 318 107 b 160 215 193 107 160 142 l 160 922 l 38 922 l 38 222 b 256 -8 38 68 117 -8 b 472 225 399 -8 472 75 l 472 922 l 350 922 z m 257 993 b 192 1069 214 993 192 1021 b 257 1149 192 1119 214 1149 b 322 1069 299 1149 322 1119 b 257 993 322 1021 299 993 z m 257 940 b 375 1069 336 940 375 989 b 257 1200 375 1151 336 1200 b 138 1069 176 1200 138 1151 b 257 940 138 989 176 940 z "},"ů":{"ha":504,"x_min":0,"x_max":0,"o":"m 40 667 l 40 201 b 196 -8 40 65 82 -8 b 343 96 269 -8 313 21 l 349 96 l 351 0 l 464 0 l 464 667 l 344 667 l 344 206 b 247 97 328 125 307 97 b 161 200 188 97 161 125 l 161 667 z m 254 753 b 189 829 211 753 189 781 b 254 908 189 879 211 908 b 319 829 296 908 319 879 b 254 753 319 781 296 753 z m 254 700 b 372 829 333 700 372 749 b 254 960 372 911 333 960 b 135 829 174 960 135 911 b 254 700 135 749 174 700 z "},"Ű":{"ha":511,"x_min":0,"x_max":0,"o":"m 350 217 b 254 107 350 144 318 107 b 160 215 193 107 160 142 l 160 922 l 38 922 l 38 222 b 256 -8 38 68 117 -8 b 472 225 399 -8 472 75 l 472 922 l 350 922 z m 153 940 l 304 1171 l 226 1215 l 97 968 z m 317 940 l 468 1171 l 390 1215 l 261 968 z "},"ű":{"ha":504,"x_min":0,"x_max":0,"o":"m 40 667 l 40 201 b 196 -8 40 65 82 -8 b 343 96 269 -8 313 21 l 349 96 l 351 0 l 464 0 l 464 667 l 344 667 l 344 206 b 247 97 328 125 307 97 b 161 200 188 97 161 125 l 161 667 z m 150 700 l 301 931 l 224 975 l 94 728 z m 314 700 l 465 931 l 388 975 l 258 728 z "},"Ų":{"ha":511,"x_min":0,"x_max":0,"o":"m 318 -194 b 251 -206 300 -203 274 -206 b 182 -160 204 -206 182 -192 l 182 -129 b 311 -3 182 -82 228 -33 b 472 225 418 15 472 96 l 472 922 l 350 922 l 350 217 b 254 107 350 144 318 107 b 160 215 193 107 160 142 l 160 922 l 38 922 l 38 222 b 219 -7 38 81 101 6 l 219 -15 b 99 -165 144 -44 99 -94 l 99 -203 b 228 -311 99 -276 140 -311 b 318 -293 264 -311 296 -306 z "},"ų":{"ha":504,"x_min":0,"x_max":0,"o":"m 461 -194 b 394 -206 443 -203 415 -206 b 325 -160 346 -206 325 -192 l 325 -129 b 464 0 325 -81 374 -32 l 464 667 l 344 667 l 344 206 b 247 97 328 125 307 97 b 161 200 188 97 161 125 l 161 667 l 40 667 l 40 201 b 196 -8 40 65 82 -8 b 343 96 269 -8 313 21 l 349 96 l 351 0 l 388 0 l 388 -8 b 240 -165 297 -36 240 -87 l 240 -203 b 371 -311 240 -276 283 -311 b 461 -293 406 -311 438 -306 z "},"Ŵ":{"ha":757,"x_min":0,"x_max":0,"o":"m 285 0 l 375 714 l 381 714 l 472 0 l 629 0 l 740 922 l 622 922 l 543 221 l 538 221 l 449 922 l 308 922 l 222 221 l 217 221 l 136 922 l 17 922 l 128 0 z m 561 983 l 432 1163 l 322 1163 l 194 983 l 247 942 l 378 1092 l 508 942 z "},"ŵ":{"ha":692,"x_min":0,"x_max":0,"o":"m 260 0 l 343 510 l 349 510 l 432 0 l 578 0 l 678 667 l 568 667 l 497 167 l 492 167 l 411 667 l 281 667 l 203 167 l 197 167 l 125 667 l 14 667 l 114 0 z m 529 743 l 400 922 l 290 922 l 163 743 l 215 701 l 346 851 l 476 701 z "},"Ŷ":{"ha":513,"x_min":0,"x_max":0,"o":"m 321 0 l 321 389 l 497 922 l 379 922 l 263 556 l 257 556 l 135 922 l 14 922 l 196 390 l 196 0 z m 446 983 l 317 1163 l 207 1163 l 79 983 l 132 942 l 263 1092 l 393 942 z "},"ŷ":{"ha":503,"x_min":0,"x_max":0,"o":"m 161 667 l 40 667 l 40 175 b 196 0 40 71 79 0 b 338 92 263 0 308 24 l 343 92 l 343 -115 b 250 -215 343 -183 313 -215 b 158 -115 189 -215 158 -183 l 158 -42 l 44 -42 l 44 -115 b 251 -324 44 -256 110 -324 b 463 -115 393 -324 463 -256 l 463 667 l 347 667 l 347 215 b 249 110 329 138 301 110 b 161 210 193 110 161 139 z m 443 743 l 314 922 l 204 922 l 76 743 l 129 701 l 260 851 l 390 701 z "},"Ÿ":{"ha":513,"x_min":0,"x_max":0,"o":"m 321 0 l 321 389 l 497 922 l 379 922 l 263 556 l 257 556 l 135 922 l 14 922 l 196 390 l 196 0 z m 210 972 l 210 1122 l 99 1122 l 99 972 z m 419 972 l 419 1122 l 308 1122 l 308 972 z "},"Ϋ":{"ha":513,"x_min":0,"x_max":0,"o":"m 321 0 l 321 389 l 497 922 l 379 922 l 263 556 l 257 556 l 135 922 l 14 922 l 196 390 l 196 0 z m 210 972 l 210 1122 l 99 1122 l 99 972 z m 419 972 l 419 1122 l 308 1122 l 308 972 z "},"Ź":{"ha":468,"x_min":0,"x_max":0,"o":"m 442 0 l 442 113 l 156 113 l 435 808 l 435 922 l 29 922 l 29 810 l 308 810 l 26 115 l 26 0 z m 399 1143 l 335 1215 l 128 989 l 175 940 z "},"ź":{"ha":426,"x_min":0,"x_max":0,"o":"m 399 0 l 399 110 l 156 110 l 393 558 l 393 667 l 31 667 l 31 560 l 267 560 l 29 113 l 29 0 z m 378 903 l 314 975 l 107 749 l 154 700 z "},"Ż":{"ha":468,"x_min":0,"x_max":0,"o":"m 442 0 l 442 113 l 156 113 l 435 808 l 435 922 l 29 922 l 29 810 l 308 810 l 26 115 l 26 0 z m 288 989 l 288 1139 l 168 1139 l 168 989 z "},"ż":{"ha":426,"x_min":0,"x_max":0,"o":"m 399 0 l 399 110 l 156 110 l 393 558 l 393 667 l 31 667 l 31 560 l 267 560 l 29 113 l 29 0 z m 265 749 l 265 899 l 146 899 l 146 749 z "},"Ž":{"ha":468,"x_min":0,"x_max":0,"o":"m 442 0 l 442 113 l 156 113 l 435 808 l 435 922 l 29 922 l 29 810 l 308 810 l 26 115 l 26 0 z m 292 956 l 419 1136 l 367 1178 l 236 1028 l 106 1178 l 53 1136 l 182 956 z "},"ž":{"ha":426,"x_min":0,"x_max":0,"o":"m 399 0 l 399 110 l 156 110 l 393 558 l 393 667 l 31 667 l 31 560 l 267 560 l 29 113 l 29 0 z m 269 725 l 397 906 l 344 947 l 214 797 l 83 947 l 31 906 l 160 725 z "},"Ǝ":{"ha":406,"x_min":0,"x_max":0,"o":"m 22 922 l 22 810 l 244 810 l 244 496 l 51 496 l 51 382 l 244 382 l 244 113 l 33 113 l 33 0 l 367 0 l 367 922 z "},"Ə":{"ha":499,"x_min":0,"x_max":0,"o":"m 40 436 l 158 436 l 158 469 b 251 569 158 536 189 569 b 342 469 311 569 342 536 l 342 365 l 40 365 l 40 200 b 250 -8 40 60 108 -8 b 458 200 392 -8 458 60 l 458 467 b 251 675 458 608 392 675 b 40 467 108 675 40 606 z m 158 276 l 342 276 l 342 197 b 250 97 342 131 311 97 b 158 197 188 97 158 131 z "},"Ә":{"ha":499,"x_min":0,"x_max":0,"o":"m 40 436 l 158 436 l 158 469 b 251 569 158 536 189 569 b 342 469 311 569 342 536 l 342 365 l 40 365 l 40 200 b 250 -8 40 60 108 -8 b 458 200 392 -8 458 60 l 458 467 b 251 675 458 608 392 675 b 40 467 108 675 40 606 z m 158 276 l 342 276 l 342 197 b 250 97 342 131 311 97 b 158 197 188 97 158 131 z "},"ƒ":{"ha":435,"x_min":0,"x_max":0,"o":"m 411 549 l 411 626 l 303 626 l 321 771 b 382 824 326 808 343 824 l 411 824 l 411 933 l 361 933 b 206 790 263 933 219 900 l 183 626 l 81 626 l 81 549 l 174 549 l 94 -78 b 33 -131 90 -115 72 -131 l 10 -131 l 10 -240 l 54 -240 b 211 -97 154 -240 197 -208 l 293 549 z "},"Ɣ":{"ha":572,"x_min":0,"x_max":0,"o":"m 286 -324 b 435 -153 394 -324 435 -262 b 343 257 435 -90 422 -25 l 539 922 l 414 922 l 293 481 l 276 481 l 157 922 l 32 922 l 228 257 b 136 -154 149 -26 136 -94 b 286 -324 136 -262 178 -324 z m 293 46 b 338 -160 325 -50 338 -104 b 286 -240 338 -215 325 -240 b 233 -157 249 -240 233 -219 b 276 46 233 -101 246 -50 z "},"Ɲ":{"ha":544,"x_min":0,"x_max":0,"o":"m 506 0 l 506 922 l 396 922 l 396 483 b 400 260 396 422 397 347 l 394 260 l 201 922 l 38 922 l 38 -115 b -37 -215 38 -185 13 -215 b -71 -211 -49 -215 -62 -215 l -71 -318 b -25 -324 -61 -321 -46 -324 b 147 -115 79 -324 147 -256 l 147 519 b 143 714 147 581 146 646 l 149 714 l 360 0 z "},"Ơ":{"ha":583,"x_min":0,"x_max":0,"o":"m 469 690 b 422 847 469 757 453 810 b 482 842 446 843 469 842 b 572 968 547 842 572 878 b 561 1044 572 1000 569 1029 l 493 1044 b 500 978 499 1028 500 994 b 426 915 500 929 482 915 b 249 931 368 915 307 931 b 32 693 113 931 32 844 l 32 225 b 253 -8 32 75 108 -8 b 469 222 392 -8 469 67 z m 347 215 b 251 107 347 142 313 107 b 156 217 189 107 156 144 l 156 703 b 251 814 156 775 190 814 b 347 701 313 814 347 774 z "},"ơ":{"ha":561,"x_min":0,"x_max":0,"o":"m 457 467 b 425 588 457 518 446 557 b 463 586 439 586 449 586 b 551 713 525 586 551 622 b 539 789 551 744 547 774 l 471 789 b 478 722 476 772 478 739 b 408 660 478 675 463 660 b 242 675 354 660 306 675 b 40 467 108 675 40 606 l 40 200 b 249 -8 40 57 107 -8 b 457 200 390 -8 457 57 z m 340 200 b 249 100 340 132 310 100 b 157 200 188 100 157 132 l 157 467 b 249 567 157 535 188 567 b 340 467 310 567 340 535 z "},"Ư":{"ha":632,"x_min":0,"x_max":0,"o":"m 350 217 b 254 107 350 144 318 107 b 160 215 193 107 160 142 l 160 922 l 38 922 l 38 222 b 256 -8 38 67 115 -8 b 472 225 400 -8 472 72 l 472 853 b 533 846 494 847 514 846 b 622 968 596 846 622 878 b 610 1044 622 999 618 1029 l 542 1044 b 549 981 547 1026 549 996 b 492 922 549 936 532 922 l 350 922 z "},"ư":{"ha":617,"x_min":0,"x_max":0,"o":"m 40 667 l 40 204 b 200 -8 40 81 78 -8 b 343 96 269 -8 315 29 l 349 96 l 353 0 l 464 0 l 464 597 b 518 590 482 592 501 590 b 607 713 583 590 607 624 b 596 789 607 743 604 774 l 528 789 b 535 725 532 771 535 740 b 481 667 535 679 518 667 l 344 667 l 344 194 b 246 97 325 124 299 97 b 161 192 192 97 161 125 l 161 667 z "},"ǝ":{"ha":499,"x_min":0,"x_max":0,"o":"m 40 436 l 158 436 l 158 469 b 251 569 158 536 189 569 b 342 469 311 569 342 536 l 342 365 l 40 365 l 40 200 b 250 -8 40 60 108 -8 b 458 200 392 -8 458 60 l 458 467 b 251 675 458 608 392 675 b 40 467 108 675 40 606 z m 158 276 l 342 276 l 342 197 b 250 97 342 131 311 97 b 158 197 188 97 158 131 z "},"ə":{"ha":499,"x_min":0,"x_max":0,"o":"m 40 436 l 158 436 l 158 469 b 251 569 158 536 189 569 b 342 469 311 569 342 536 l 342 365 l 40 365 l 40 200 b 250 -8 40 60 108 -8 b 458 200 392 -8 458 60 l 458 467 b 251 675 458 608 392 675 b 40 467 108 675 40 606 z m 158 276 l 342 276 l 342 197 b 250 97 342 131 311 97 b 158 197 188 97 158 131 z "},"ә":{"ha":499,"x_min":0,"x_max":0,"o":"m 40 436 l 158 436 l 158 469 b 251 569 158 536 189 569 b 342 469 311 569 342 536 l 342 365 l 40 365 l 40 200 b 250 -8 40 60 108 -8 b 458 200 392 -8 458 60 l 458 467 b 251 675 458 608 392 675 b 40 467 108 675 40 606 z m 158 276 l 342 276 l 342 197 b 250 97 342 131 311 97 b 158 197 188 97 158 131 z "},"Ǧ":{"ha":504,"x_min":0,"x_max":0,"o":"m 467 0 l 467 493 l 244 493 l 244 382 l 349 382 l 349 200 b 251 107 338 136 304 107 b 161 217 193 107 161 144 l 161 703 b 254 814 161 775 193 814 b 349 701 317 814 349 774 l 349 638 l 467 638 l 467 690 b 251 931 467 840 392 931 b 38 693 113 931 38 843 l 38 225 b 235 -8 38 75 110 -8 b 374 71 314 -8 350 26 l 379 71 l 385 0 z m 314 965 l 442 1146 l 389 1188 l 258 1038 l 128 1188 l 75 1146 l 204 965 z "},"ǧ":{"ha":503,"x_min":0,"x_max":0,"o":"m 161 469 b 250 569 161 543 192 569 b 347 464 314 569 333 538 l 347 207 b 243 110 322 139 294 110 b 161 236 183 110 161 150 z m 463 -115 l 463 667 l 356 667 l 351 571 l 346 571 b 197 675 313 644 265 675 b 40 497 92 675 40 603 l 40 214 b 196 0 40 74 85 0 b 338 92 267 0 314 31 l 343 92 l 343 -115 b 250 -215 343 -182 313 -215 b 158 -115 189 -215 158 -182 l 158 -42 l 44 -42 l 44 -115 b 250 -324 44 -254 108 -324 b 463 -115 392 -324 463 -254 z m 308 725 l 436 906 l 383 947 l 253 797 l 122 947 l 69 906 l 199 725 z "},"Ǵ":{"ha":504,"x_min":0,"x_max":0,"o":"m 467 0 l 467 493 l 244 493 l 244 382 l 349 382 l 349 200 b 251 107 338 136 304 107 b 161 217 193 107 161 144 l 161 703 b 254 814 161 775 193 814 b 349 701 317 814 349 774 l 349 638 l 467 638 l 467 690 b 251 931 467 840 392 931 b 38 693 113 931 38 843 l 38 225 b 235 -8 38 75 110 -8 b 374 71 314 -8 350 26 l 379 71 l 385 0 z m 419 1143 l 356 1215 l 149 989 l 196 940 z "},"ǵ":{"ha":503,"x_min":0,"x_max":0,"o":"m 161 469 b 250 569 161 543 192 569 b 347 464 314 569 333 538 l 347 207 b 243 110 322 139 294 110 b 161 236 183 110 161 150 z m 463 -115 l 463 667 l 356 667 l 351 571 l 346 571 b 197 675 313 644 265 675 b 40 497 92 675 40 603 l 40 214 b 196 0 40 74 85 0 b 338 92 267 0 314 31 l 343 92 l 343 -115 b 250 -215 343 -182 313 -215 b 158 -115 189 -215 158 -182 l 158 -42 l 44 -42 l 44 -115 b 250 -324 44 -254 108 -324 b 463 -115 392 -324 463 -254 z m 419 903 l 356 975 l 149 749 l 196 700 z "},"Ǹ":{"ha":544,"x_min":0,"x_max":0,"o":"m 506 0 l 506 922 l 396 922 l 396 483 b 400 260 396 422 397 347 l 394 260 l 201 922 l 38 922 l 38 0 l 147 0 l 147 519 b 143 714 147 581 146 646 l 149 714 l 360 0 z m 339 940 l 386 989 l 179 1215 l 115 1143 z "},"ǹ":{"ha":507,"x_min":0,"x_max":0,"o":"m 467 0 l 467 497 b 307 675 467 613 401 675 b 161 571 236 675 190 643 l 156 571 l 151 667 l 40 667 l 40 0 l 160 0 l 160 472 b 260 569 181 542 204 569 b 346 475 315 569 346 540 l 346 0 z m 318 700 l 365 749 l 158 975 l 94 903 z "},"ȷ":{"ha":232,"x_min":0,"x_max":0,"o":"m -226 -115 b -19 -324 -226 -256 -161 -324 b 192 -115 121 -324 192 -256 l 192 667 l 72 667 l 72 -115 b -21 -215 72 -183 42 -215 b -112 -115 -83 -215 -112 -183 l -112 -37 l -226 -37 z "},"Ɂ":{"ha":476,"x_min":0,"x_max":0,"o":"m 297 0 l 297 258 b 313 389 297 340 300 361 b 421 554 339 449 393 500 b 444 667 438 586 444 617 l 444 707 b 236 931 444 856 413 931 b 25 678 47 931 25 844 l 25 654 l 142 654 l 142 685 b 238 814 142 771 154 814 b 326 711 307 814 326 783 l 326 672 b 311 585 326 625 322 607 b 201 414 282 525 231 475 b 172 254 182 374 172 331 l 172 0 z "},"ɂ":{"ha":497,"x_min":0,"x_max":0,"o":"m 307 0 l 307 100 b 322 172 307 129 315 156 b 438 336 347 232 408 275 b 457 421 449 361 457 389 l 457 479 b 249 692 457 625 400 692 b 42 454 92 692 42 619 l 42 418 l 157 418 l 157 471 b 251 583 157 546 176 583 b 340 482 321 583 340 553 l 340 422 b 319 350 340 396 332 372 b 211 199 292 300 242 261 b 188 101 197 171 188 139 l 188 0 z "},"Ɍ":{"ha":553,"x_min":0,"x_max":0,"o":"m 210 0 l 210 401 l 321 401 b 400 317 381 401 400 376 l 400 0 l 522 0 l 522 307 b 425 456 522 399 489 443 l 425 461 b 518 611 485 476 518 526 l 518 738 b 343 922 518 854 472 922 l 88 922 l 88 506 l 8 506 l 8 401 l 88 401 l 88 0 z m 399 600 b 318 506 399 529 367 506 l 210 506 l 210 810 l 317 810 b 399 724 375 810 399 781 z "},"ɍ":{"ha":413,"x_min":0,"x_max":0,"o":"m 189 0 l 189 256 l 335 256 l 335 333 l 189 333 l 189 410 b 326 565 211 528 254 565 b 389 551 356 565 376 560 l 389 661 b 333 675 371 671 353 675 b 189 553 264 675 215 631 l 183 553 l 179 667 l 69 667 l 69 333 l 10 333 l 10 256 l 69 256 l 69 0 z "},"ɣ":{"ha":492,"x_min":0,"x_max":0,"o":"m 478 667 l 357 667 l 251 328 l 240 328 l 136 667 l 14 667 l 194 154 b 114 -168 124 -69 114 -119 b 246 -324 114 -271 157 -324 b 379 -171 335 -324 379 -272 b 297 154 379 -118 367 -69 z m 251 0 b 293 -181 286 -97 293 -150 b 246 -242 293 -225 278 -242 b 200 -178 211 -242 200 -222 b 239 0 200 -143 207 -93 z "},"ɲ":{"ha":507,"x_min":0,"x_max":0,"o":"m 467 0 l 467 497 b 307 675 467 613 401 675 b 161 571 236 675 190 643 l 156 571 l 151 667 l 40 667 l 40 -115 b -43 -215 40 -185 14 -215 b -78 -211 -54 -215 -68 -215 l -78 -318 b -28 -324 -67 -321 -51 -324 b 160 -115 89 -324 160 -256 l 160 472 b 260 569 181 542 204 569 b 346 475 315 569 346 540 l 346 0 z "},"ˆ":{"ha":453,"x_min":0,"x_max":0,"o":"m 410 743 l 281 922 l 171 922 l 43 743 l 96 701 l 226 851 l 357 701 z "},"ˇ":{"ha":450,"x_min":0,"x_max":0,"o":"m 282 725 l 410 906 l 357 947 l 226 797 l 96 947 l 43 906 l 172 725 z "},"ˉ":{"ha":0,"x_min":0,"x_max":0,"o":"m -90 781 l -90 857 l -415 857 l -415 781 z "},"˘":{"ha":460,"x_min":0,"x_max":0,"o":"m 229 700 b 418 921 340 700 418 772 l 328 921 b 229 779 326 824 292 779 b 129 921 165 779 132 824 l 42 921 b 229 700 42 774 118 700 z "},"˙":{"ha":196,"x_min":0,"x_max":0,"o":"m 157 749 l 157 899 l 38 899 l 38 749 z "},"˚":{"ha":315,"x_min":0,"x_max":0,"o":"m 157 753 b 92 829 114 753 92 781 b 157 908 92 879 114 908 b 222 829 199 908 222 879 b 157 753 222 781 199 753 z m 157 700 b 275 829 236 700 275 749 b 157 960 275 911 236 960 b 38 829 76 960 38 911 b 157 700 38 749 76 700 z "},"˛":{"ha":288,"x_min":0,"x_max":0,"o":"m 247 -194 b 181 -206 229 -203 203 -206 b 111 -160 133 -206 111 -192 l 111 -129 b 250 0 111 -81 161 -32 l 204 0 b 28 -165 99 -25 28 -79 l 28 -203 b 157 -311 28 -276 69 -311 b 247 -293 193 -311 225 -306 z "},"˜":{"ha":453,"x_min":0,"x_max":0,"o":"m 360 849 b 304 808 349 817 329 808 b 139 854 246 808 200 854 b 38 772 92 854 54 829 l 92 740 b 147 781 104 772 122 781 b 313 735 207 781 251 735 b 414 817 360 735 399 760 z "},"˝":{"ha":449,"x_min":0,"x_max":0,"o":"m 94 700 l 246 931 l 168 975 l 39 728 z m 258 700 l 410 931 l 332 975 l 203 728 z "},"̀":{"ha":0,"x_min":0,"x_max":0,"o":"m -192 700 l -144 749 l -351 975 l -415 903 z "},"́":{"ha":0,"x_min":0,"x_max":0,"o":"m -107 903 l -171 975 l -378 749 l -331 700 z "},"̂":{"ha":0,"x_min":0,"x_max":0,"o":"m -69 743 l -199 922 l -308 922 l -436 743 l -383 701 l -253 851 l -122 701 z "},"̃":{"ha":0,"x_min":0,"x_max":0,"o":"m -118 849 b -174 808 -129 817 -149 808 b -339 854 -232 808 -278 854 b -440 772 -386 854 -424 829 l -386 740 b -331 781 -374 772 -356 781 b -165 735 -271 781 -226 735 b -64 817 -118 735 -79 760 z "},"̄":{"ha":0,"x_min":0,"x_max":0,"o":"m -90 781 l -90 857 l -415 857 l -415 781 z "},"̆":{"ha":0,"x_min":0,"x_max":0,"o":"m -253 700 b -64 921 -142 700 -64 772 l -154 921 b -253 779 -156 824 -190 779 b -353 921 -317 779 -350 824 l -440 921 b -253 700 -440 774 -364 700 z "},"̇":{"ha":0,"x_min":0,"x_max":0,"o":"m -192 749 l -192 899 l -311 899 l -311 749 z "},"̈":{"ha":0,"x_min":0,"x_max":0,"o":"m -303 749 l -303 899 l -414 899 l -414 749 z m -93 749 l -93 899 l -204 899 l -204 749 z "},"̉":{"ha":0,"x_min":0,"x_max":0,"o":"m -239 718 b -146 857 -239 769 -146 768 b -250 958 -146 918 -190 958 b -358 921 -283 958 -331 946 l -337 856 b -261 885 -312 874 -290 885 b -215 846 -229 885 -215 868 b -299 718 -215 792 -299 796 z "},"̊":{"ha":0,"x_min":0,"x_max":0,"o":"m -251 753 b -317 829 -294 753 -317 781 b -251 908 -317 879 -294 908 b -186 829 -210 908 -186 879 b -251 753 -186 781 -210 753 z m -251 700 b -133 829 -172 700 -133 749 b -251 960 -133 911 -172 960 b -371 829 -332 960 -371 911 b -251 700 -371 749 -332 700 z "},"̋":{"ha":0,"x_min":0,"x_max":0,"o":"m -371 700 l -219 931 l -297 975 l -426 728 z m -207 700 l -56 931 l -133 975 l -262 728 z "},"̌":{"ha":0,"x_min":0,"x_max":0,"o":"m -196 725 l -68 906 l -121 947 l -251 797 l -382 947 l -435 906 l -306 725 z "},"̓":{"ha":0,"x_min":0,"x_max":0,"o":"m -200 1013 b -307 851 -275 1000 -307 951 l -307 726 l -200 726 l -200 860 l -253 860 l -253 881 b -200 954 -253 925 -235 943 z "},"̛":{"ha":94,"x_min":0,"x_max":0,"o":"m -153 622 b -6 586 -104 603 -47 586 b 85 710 57 586 85 622 b 74 789 85 744 81 774 l 6 789 b 13 718 10 771 13 743 b -50 660 13 672 1 660 b -153 667 -76 660 -112 663 z "},"̣":{"ha":0,"x_min":0,"x_max":0,"o":"m -192 -231 l -192 -82 l -311 -82 l -311 -231 z "},"̦":{"ha":0,"x_min":0,"x_max":0,"o":"m -306 -311 b -199 -150 -231 -299 -199 -250 l -199 -25 l -306 -25 l -306 -158 l -253 -158 l -253 -179 b -306 -253 -253 -224 -271 -242 z "},"̨":{"ha":0,"x_min":0,"x_max":0,"o":"m -144 -194 b -211 -206 -162 -203 -189 -206 b -281 -160 -258 -206 -281 -192 l -281 -129 b -142 0 -281 -81 -231 -32 l -187 0 b -364 -165 -293 -25 -364 -79 l -364 -203 b -235 -311 -364 -276 -322 -311 b -144 -293 -199 -311 -167 -306 z "},"̭":{"ha":0,"x_min":0,"x_max":0,"o":"m -69 -257 l -199 -78 l -308 -78 l -436 -257 l -383 -299 l -253 -149 l -122 -299 z "},"΄":{"ha":133,"x_min":0,"x_max":0,"o":"m 100 732 l 124 1011 l 25 1011 l 25 732 z "},"΅":{"ha":0,"x_min":0,"x_max":0,"o":"m -214 732 l -190 1011 l -289 1011 l -289 732 z m -336 749 l -336 899 l -456 899 l -456 749 z m -40 749 l -40 899 l -160 899 l -160 749 z "},"Ά":{"ha":557,"x_min":0,"x_max":0,"o":"m 539 0 l 382 922 l 214 922 l 57 0 l 178 0 l 211 217 l 381 217 l 417 0 z m 293 728 l 299 728 l 364 324 l 228 324 z m 100 732 l 124 1011 l 25 1011 l 25 732 z "},"·":{"ha":197,"x_min":0,"x_max":0,"o":"m 160 453 l 160 619 l 38 619 l 38 453 z "},"Έ":{"ha":518,"x_min":0,"x_max":0,"o":"m 494 0 l 494 113 l 272 113 l 272 426 l 465 426 l 465 540 l 272 540 l 272 810 l 483 810 l 483 922 l 150 922 l 150 0 z m 100 732 l 124 1011 l 25 1011 l 25 732 z "},"Ή":{"ha":629,"x_min":0,"x_max":0,"o":"m 590 0 l 590 922 l 467 922 l 467 544 l 272 544 l 272 922 l 147 922 l 147 0 l 272 0 l 272 433 l 467 433 l 467 0 z m 100 732 l 124 1011 l 25 1011 l 25 732 z "},"Ί":{"ha":310,"x_min":0,"x_max":0,"o":"m 272 0 l 272 922 l 147 922 l 147 0 z m 100 732 l 124 1011 l 25 1011 l 25 732 z "},"Ό":{"ha":606,"x_min":0,"x_max":0,"o":"m 572 690 b 354 931 572 840 493 931 b 135 693 215 931 135 843 l 135 225 b 356 -8 135 75 213 -8 b 572 222 494 -8 572 68 z m 450 215 b 354 107 450 142 415 107 b 258 217 292 107 258 144 l 258 703 b 353 814 258 775 293 814 b 450 701 415 814 450 774 z m 100 732 l 124 1011 l 25 1011 l 25 732 z "},"Ύ":{"ha":642,"x_min":0,"x_max":0,"o":"m 451 0 l 451 389 l 628 922 l 510 922 l 393 556 l 388 556 l 265 922 l 144 922 l 326 390 l 326 0 z m 100 732 l 124 1011 l 25 1011 l 25 732 z "},"Ώ":{"ha":643,"x_min":0,"x_max":0,"o":"m 619 0 l 619 108 l 521 108 l 521 114 b 604 315 576 156 604 222 l 604 726 b 374 931 604 860 518 931 b 143 726 229 931 143 860 l 143 315 b 228 114 143 222 171 156 l 228 108 l 129 108 l 129 0 l 342 0 l 342 101 b 269 314 293 119 269 192 l 269 713 b 375 814 269 781 304 814 b 479 713 443 814 479 781 l 479 314 b 407 101 479 192 454 119 l 407 0 z m 100 732 l 124 1011 l 25 1011 l 25 732 z "},"ΐ":{"ha":396,"x_min":0,"x_max":0,"o":"m 311 0 l 311 107 l 289 107 b 251 161 264 107 251 125 l 251 667 l 132 667 l 132 161 b 288 0 132 54 185 0 z m 232 732 l 256 1011 l 157 1011 l 157 732 z m 108 749 l 108 899 l -11 899 l -11 749 z m 404 749 l 404 899 l 285 899 l 285 749 z "},"Γ":{"ha":415,"x_min":0,"x_max":0,"o":"m 163 0 l 163 808 l 390 808 l 390 922 l 38 922 l 38 0 z "},"Г":{"ha":415,"x_min":0,"x_max":0,"o":"m 163 0 l 163 808 l 390 808 l 390 922 l 38 922 l 38 0 z "},"Δ":{"ha":517,"x_min":0,"x_max":0,"o":"m 499 0 l 342 922 l 174 922 l 17 0 z m 363 114 l 150 114 l 253 728 l 258 728 z "},"Θ":{"ha":503,"x_min":0,"x_max":0,"o":"m 469 690 b 251 931 469 840 390 931 b 32 693 113 931 32 843 l 32 225 b 253 -8 32 75 108 -8 b 469 222 392 -8 469 67 z m 325 426 l 325 540 l 178 540 l 178 426 z m 356 215 b 251 107 356 142 319 107 b 147 217 183 107 147 144 l 147 703 b 250 814 147 775 183 814 b 356 701 318 814 356 774 z "},"Λ":{"ha":517,"x_min":0,"x_max":0,"o":"m 174 922 l 17 0 l 138 0 l 253 728 l 258 728 l 376 0 l 499 0 l 342 922 z "},"Ξ":{"ha":406,"x_min":0,"x_max":0,"o":"m 382 0 l 382 113 l 24 113 l 24 0 z m 353 426 l 353 540 l 53 540 l 53 426 z m 371 810 l 371 922 l 33 922 l 33 810 z "},"Π":{"ha":519,"x_min":0,"x_max":0,"o":"m 481 0 l 481 922 l 38 922 l 38 0 l 163 0 l 163 810 l 357 810 l 357 0 z "},"П":{"ha":519,"x_min":0,"x_max":0,"o":"m 481 0 l 481 922 l 38 922 l 38 0 l 163 0 l 163 810 l 357 810 l 357 0 z "},"Σ":{"ha":406,"x_min":0,"x_max":0,"o":"m 381 0 l 381 113 l 147 113 l 288 467 l 149 810 l 371 810 l 371 922 l 25 922 l 25 815 l 168 465 l 26 113 l 26 0 z "},"Φ":{"ha":710,"x_min":0,"x_max":0,"o":"m 415 0 l 415 186 l 506 186 b 681 371 633 186 681 254 l 681 600 b 506 785 681 717 633 785 l 415 785 l 415 922 l 294 922 l 294 785 l 203 785 b 29 600 75 785 29 717 l 29 371 b 203 186 29 254 75 186 l 294 186 l 294 0 z m 571 390 b 489 294 571 329 546 294 l 415 294 l 415 676 l 489 676 b 571 581 546 676 571 642 z m 294 294 l 221 294 b 139 390 163 294 139 329 l 139 581 b 221 676 139 642 163 676 l 294 676 z "},"Ф":{"ha":710,"x_min":0,"x_max":0,"o":"m 415 0 l 415 186 l 506 186 b 681 371 633 186 681 254 l 681 600 b 506 785 681 717 633 785 l 415 785 l 415 922 l 294 922 l 294 785 l 203 785 b 29 600 75 785 29 717 l 29 371 b 203 186 29 254 75 186 l 294 186 l 294 0 z m 571 390 b 489 294 571 329 546 294 l 415 294 l 415 676 l 489 676 b 571 581 546 676 571 642 z m 294 294 l 221 294 b 139 390 163 294 139 329 l 139 581 b 221 676 139 642 163 676 l 294 676 z "},"Ψ":{"ha":719,"x_min":0,"x_max":0,"o":"m 419 0 l 419 206 l 511 206 b 686 390 639 206 686 274 l 686 922 l 575 922 l 575 408 b 493 314 575 347 551 314 l 419 314 l 419 922 l 300 922 l 300 314 l 226 314 b 144 408 168 314 144 347 l 144 922 l 33 922 l 33 390 b 208 206 33 274 81 206 l 300 206 l 300 0 z "},"Ω":{"ha":538,"x_min":0,"x_max":0,"o":"m 514 0 l 514 108 l 415 108 l 415 114 b 499 315 471 156 499 222 l 499 726 b 268 931 499 860 413 931 b 38 726 124 931 38 860 l 38 315 b 122 114 38 222 65 156 l 122 108 l 24 108 l 24 0 l 236 0 l 236 101 b 164 314 188 119 164 192 l 164 713 b 269 814 164 781 199 814 b 374 713 338 814 374 781 l 374 314 b 301 101 374 192 349 119 l 301 0 z "},"ά":{"ha":540,"x_min":0,"x_max":0,"o":"m 517 0 l 517 107 l 496 107 b 463 164 472 107 463 124 l 463 667 l 356 667 l 351 571 l 346 571 b 200 675 317 643 272 675 b 40 497 100 675 40 613 l 40 196 b 199 -8 40 67 85 -8 b 354 96 275 -8 326 29 l 360 96 b 494 0 372 28 413 0 z m 161 469 b 249 569 161 539 192 569 b 347 464 304 569 328 543 l 347 203 b 249 97 328 128 306 97 b 161 197 192 97 161 128 z m 283 732 l 307 1011 l 208 1011 l 208 732 z "},"έ":{"ha":489,"x_min":0,"x_max":0,"o":"m 281 732 l 304 1011 l 206 1011 l 206 732 z m 450 240 l 336 240 l 336 193 b 243 96 336 126 308 96 b 154 176 185 96 154 122 l 154 225 b 254 311 154 279 188 311 l 304 311 l 304 392 l 251 392 b 161 463 183 392 161 415 l 161 488 b 247 571 161 543 186 571 b 338 489 308 571 338 543 l 338 460 l 450 460 l 450 499 b 246 675 450 611 382 675 b 51 510 114 675 51 617 l 51 472 b 143 356 51 406 81 368 l 143 350 b 38 211 88 339 38 304 l 38 163 b 244 -8 38 56 101 -8 b 450 174 383 -8 450 50 z "},"ή":{"ha":507,"x_min":0,"x_max":0,"o":"m 467 -324 l 467 497 b 307 675 467 613 401 675 b 161 571 236 675 190 643 l 156 571 l 151 667 l 40 667 l 40 0 l 160 0 l 160 472 b 260 569 181 542 204 569 b 346 475 315 569 346 540 l 346 -324 z m 288 732 l 311 1011 l 213 1011 l 213 732 z "},"ί":{"ha":242,"x_min":0,"x_max":0,"o":"m 219 0 l 219 107 l 197 107 b 160 161 172 107 160 125 l 160 667 l 40 667 l 40 161 b 196 0 40 54 93 0 z m 140 732 l 164 1011 l 65 1011 l 65 732 z "},"ΰ":{"ha":492,"x_min":0,"x_max":0,"o":"m 278 732 l 301 1011 l 203 1011 l 203 732 z m 339 200 b 247 100 339 132 308 100 b 157 200 186 100 157 132 l 157 667 l 40 667 l 40 200 b 246 -8 40 57 104 -8 b 451 200 388 -8 451 57 l 451 667 l 339 667 z m 154 749 l 154 899 l 35 899 l 35 749 z m 450 749 l 450 899 l 331 899 l 331 749 z "},"α":{"ha":540,"x_min":0,"x_max":0,"o":"m 517 0 l 517 107 l 496 107 b 463 164 472 107 463 124 l 463 667 l 356 667 l 351 571 l 346 571 b 200 675 317 643 272 675 b 40 497 100 675 40 613 l 40 196 b 199 -8 40 67 85 -8 b 354 96 275 -8 326 29 l 360 96 b 494 0 372 28 413 0 z m 161 469 b 249 569 161 539 192 569 b 347 464 304 569 328 543 l 347 203 b 249 97 328 128 306 97 b 161 197 192 97 161 128 z "},"β":{"ha":504,"x_min":0,"x_max":0,"o":"m 158 -324 l 158 43 b 286 -8 189 15 222 -8 b 464 200 378 -8 464 39 l 464 342 b 360 503 464 438 422 486 l 360 508 b 456 640 421 524 456 568 l 456 774 b 251 942 456 899 394 942 b 40 772 97 942 40 892 l 40 -324 z m 344 196 b 261 97 344 119 307 97 b 158 154 215 97 188 119 l 158 732 b 251 833 158 799 175 833 b 342 732 322 833 342 803 l 342 650 b 250 547 342 594 338 547 l 226 547 l 226 453 l 250 453 b 344 340 332 453 344 413 z "},"δ":{"ha":497,"x_min":0,"x_max":0,"o":"m 40 435 l 40 200 b 249 -8 40 57 106 -8 b 457 200 392 -8 457 57 l 457 383 b 388 572 457 490 433 538 b 233 657 340 610 272 633 b 183 731 204 675 183 696 l 183 765 b 296 839 183 811 215 839 b 404 826 326 839 372 835 l 404 933 b 290 942 371 939 322 942 b 69 767 143 942 69 882 l 69 725 b 129 606 69 667 90 633 l 129 594 b 40 435 81 563 40 507 z m 340 200 b 249 100 340 132 313 100 b 157 200 185 100 157 132 l 157 433 b 217 554 157 490 179 531 b 340 390 296 510 340 500 z "},"ε":{"ha":489,"x_min":0,"x_max":0,"o":"m 450 240 l 336 240 l 336 193 b 243 96 336 126 308 96 b 154 176 185 96 154 122 l 154 225 b 254 311 154 279 188 311 l 304 311 l 304 392 l 251 392 b 161 463 183 392 161 415 l 161 488 b 247 571 161 543 186 571 b 338 489 308 571 338 543 l 338 460 l 450 460 l 450 499 b 246 675 450 611 382 675 b 51 510 114 675 51 617 l 51 472 b 143 356 51 406 81 368 l 143 350 b 38 211 88 339 38 304 l 38 163 b 244 -8 38 56 101 -8 b 450 174 383 -8 450 50 z "},"ζ":{"ha":451,"x_min":0,"x_max":0,"o":"m 410 -265 l 410 10 b 325 107 410 75 382 107 l 211 107 b 160 163 176 107 160 125 l 160 329 b 189 461 160 396 164 422 l 425 826 l 425 933 l 57 933 l 57 826 l 306 826 l 93 511 b 40 315 53 450 40 407 l 40 135 b 167 0 40 44 83 0 l 268 0 b 290 -25 283 0 290 -8 l 290 -265 z "},"η":{"ha":507,"x_min":0,"x_max":0,"o":"m 467 -324 l 467 497 b 307 675 467 613 401 675 b 161 571 236 675 190 643 l 156 571 l 151 667 l 40 667 l 40 0 l 160 0 l 160 472 b 260 569 181 542 204 569 b 346 475 315 569 346 540 l 346 -324 z "},"θ":{"ha":497,"x_min":0,"x_max":0,"o":"m 40 200 b 249 -8 40 57 107 -8 b 457 200 390 -8 457 57 l 457 732 b 249 940 457 875 390 940 b 40 732 107 940 40 875 z m 340 200 b 249 100 340 132 310 100 b 157 200 188 100 157 132 l 157 436 l 340 436 z m 340 528 l 157 528 l 157 732 b 249 833 157 801 188 833 b 340 732 310 833 340 801 z "},"ι":{"ha":242,"x_min":0,"x_max":0,"o":"m 219 0 l 219 107 l 197 107 b 160 161 172 107 160 125 l 160 667 l 40 667 l 40 161 b 196 0 40 54 93 0 z "},"κ":{"ha":501,"x_min":0,"x_max":0,"o":"m 483 0 l 317 403 l 486 667 l 356 667 l 165 383 l 160 383 l 160 667 l 40 667 l 40 0 l 160 0 l 160 193 l 226 286 l 231 286 l 357 0 z "},"к":{"ha":501,"x_min":0,"x_max":0,"o":"m 483 0 l 317 403 l 486 667 l 356 667 l 165 383 l 160 383 l 160 667 l 40 667 l 40 0 l 160 0 l 160 193 l 226 286 l 231 286 l 357 0 z "},"λ":{"ha":494,"x_min":0,"x_max":0,"o":"m 471 106 l 456 106 b 421 136 435 106 425 115 l 276 835 b 156 933 260 913 229 933 l 92 933 l 92 828 l 121 828 b 165 790 147 828 160 817 l 190 672 l 14 0 l 133 0 l 239 433 l 244 433 l 322 82 b 426 0 333 31 357 0 l 471 0 z "},"μ":{"ha":504,"x_min":0,"x_max":0,"o":"m 163 -324 l 146 17 l 153 17 b 226 -6 169 0 193 -6 b 343 96 282 0 318 32 l 349 96 l 353 0 l 464 0 l 464 667 l 344 667 l 344 194 b 246 97 324 125 300 97 b 161 192 190 97 161 126 l 161 667 l 40 667 l 40 -324 z "},"ξ":{"ha":479,"x_min":0,"x_max":0,"o":"m 428 -265 l 428 10 b 342 107 428 75 399 107 l 211 107 b 160 163 176 107 160 125 l 160 406 b 258 492 160 460 193 492 l 306 492 l 306 572 l 254 572 b 164 643 186 572 164 597 l 164 754 b 250 838 164 808 189 838 b 339 756 311 838 339 810 l 339 707 l 451 707 l 451 765 b 247 942 451 878 385 942 b 54 776 115 942 54 883 l 54 653 b 146 536 54 586 83 550 l 146 531 b 40 392 90 521 40 485 l 40 135 b 167 0 40 44 83 0 l 286 0 b 308 -25 300 0 308 -8 l 308 -265 z "},"π":{"ha":617,"x_min":0,"x_max":0,"o":"m 563 0 l 563 107 l 542 107 b 504 161 517 107 504 125 l 504 560 l 594 560 l 594 667 l 24 667 l 24 560 l 107 560 l 107 0 l 226 0 l 226 560 l 385 560 l 385 161 b 540 0 385 54 436 0 z "},"ρ":{"ha":497,"x_min":0,"x_max":0,"o":"m 339 197 b 253 97 339 128 310 97 b 156 194 197 97 175 125 l 156 467 b 247 567 156 535 188 567 b 339 467 308 567 339 535 z m 158 -324 l 158 83 l 164 83 b 303 -8 190 19 236 -8 b 457 169 401 -8 457 54 l 457 467 b 249 675 457 610 390 675 b 40 467 107 675 40 610 l 40 -324 z "},"ς":{"ha":492,"x_min":0,"x_max":0,"o":"m 451 -265 l 451 10 b 367 107 451 75 424 107 l 208 107 b 157 163 174 107 157 125 l 157 467 b 249 567 157 535 188 567 b 339 467 310 567 339 535 l 339 422 l 451 422 l 451 467 b 249 675 451 607 390 675 b 40 467 107 675 40 607 l 40 135 b 167 0 40 44 83 0 l 310 0 b 332 -25 324 0 332 -8 l 332 -265 z "},"σ":{"ha":525,"x_min":0,"x_max":0,"o":"m 501 667 l 249 667 b 40 458 106 667 40 601 l 40 200 b 249 -8 40 60 104 -8 b 450 200 393 -8 450 60 l 450 465 b 433 560 450 504 444 535 l 501 560 z m 338 465 l 338 200 b 249 100 338 135 313 100 b 157 200 183 100 157 135 l 157 460 b 288 560 157 549 213 560 l 317 560 b 338 465 331 538 338 507 z "},"τ":{"ha":397,"x_min":0,"x_max":0,"o":"m 318 0 l 318 107 l 297 107 b 258 161 271 107 258 125 l 258 560 l 374 560 l 374 667 l 24 667 l 24 560 l 140 560 l 140 161 b 296 0 140 54 192 0 z "},"υ":{"ha":492,"x_min":0,"x_max":0,"o":"m 339 200 b 247 100 339 132 308 100 b 157 200 186 100 157 132 l 157 667 l 40 667 l 40 200 b 246 -8 40 57 104 -8 b 451 200 388 -8 451 57 l 451 667 l 339 667 z "},"φ":{"ha":704,"x_min":0,"x_max":0,"o":"m 408 -324 l 408 0 l 526 0 b 664 157 608 0 664 61 l 664 510 b 526 667 664 606 608 667 l 408 667 l 408 933 l 294 933 l 294 667 l 178 667 b 40 510 96 667 40 606 l 40 157 b 178 0 40 61 96 0 l 294 0 l 294 -324 z m 294 100 l 217 100 b 151 181 176 100 151 129 l 151 486 b 217 567 151 538 176 567 l 294 567 z m 553 181 b 486 100 553 129 528 100 l 408 100 l 408 567 l 486 567 b 553 458 538 567 553 528 z "},"ф":{"ha":704,"x_min":0,"x_max":0,"o":"m 408 -324 l 408 0 l 526 0 b 664 157 608 0 664 61 l 664 510 b 526 667 664 606 608 667 l 408 667 l 408 933 l 294 933 l 294 667 l 178 667 b 40 510 96 667 40 606 l 40 157 b 178 0 40 61 96 0 l 294 0 l 294 -324 z m 294 100 l 217 100 b 151 181 176 100 151 129 l 151 486 b 217 567 151 538 176 567 l 294 567 z m 553 181 b 486 100 553 129 528 100 l 408 100 l 408 567 l 486 567 b 553 458 538 567 553 528 z "},"χ":{"ha":496,"x_min":0,"x_max":0,"o":"m 482 -324 l 322 190 l 476 667 l 356 667 l 254 329 l 249 329 l 143 667 l 19 667 l 175 178 l 14 -324 l 139 -324 l 243 32 l 249 32 l 356 -324 z "},"ψ":{"ha":704,"x_min":0,"x_max":0,"o":"m 408 -324 l 408 0 l 526 0 b 664 157 608 0 664 61 l 664 667 l 553 667 l 553 181 b 486 100 553 129 528 100 l 408 100 l 408 933 l 296 933 l 296 100 l 217 100 b 151 181 176 100 151 129 l 151 667 l 40 667 l 40 157 b 178 0 40 61 96 0 l 296 0 l 296 -324 z "},"ω":{"ha":724,"x_min":0,"x_max":0,"o":"m 568 203 b 492 100 568 133 543 100 b 414 201 440 100 414 133 l 414 468 l 311 468 l 311 201 b 232 100 311 133 283 100 b 157 203 182 100 157 133 l 157 507 b 190 667 157 572 168 626 l 75 667 b 40 508 53 633 40 581 l 40 206 b 203 -8 40 56 94 -8 b 360 74 268 -8 319 15 l 365 74 b 522 -8 406 15 456 -8 b 683 206 631 -8 683 56 l 683 508 b 649 667 683 581 672 633 l 533 667 b 568 507 557 626 568 572 z "},"ϊ":{"ha":317,"x_min":0,"x_max":0,"o":"m 271 0 l 271 107 l 249 107 b 211 161 224 107 211 125 l 211 667 l 92 667 l 92 161 b 247 0 92 54 144 0 z m 104 749 l 104 899 l -7 899 l -7 749 z m 314 749 l 314 899 l 203 899 l 203 749 z "},"ϋ":{"ha":492,"x_min":0,"x_max":0,"o":"m 339 200 b 247 100 339 132 308 100 b 157 200 186 100 157 132 l 157 667 l 40 667 l 40 200 b 246 -8 40 57 104 -8 b 451 200 388 -8 451 57 l 451 667 l 339 667 z m 197 749 l 197 899 l 86 899 l 86 749 z m 407 749 l 407 899 l 296 899 l 296 749 z "},"ό":{"ha":497,"x_min":0,"x_max":0,"o":"m 457 467 b 249 675 457 610 390 675 b 40 467 107 675 40 610 l 40 200 b 249 -8 40 57 107 -8 b 457 200 390 -8 457 57 z m 340 200 b 249 100 340 132 310 100 b 157 200 188 100 157 132 l 157 467 b 249 567 157 535 188 567 b 340 467 310 567 340 535 z m 282 732 l 306 1011 l 207 1011 l 207 732 z "},"ύ":{"ha":492,"x_min":0,"x_max":0,"o":"m 278 732 l 301 1011 l 203 1011 l 203 732 z m 339 200 b 247 100 339 132 308 100 b 157 200 186 100 157 132 l 157 667 l 40 667 l 40 200 b 246 -8 40 57 104 -8 b 451 200 388 -8 451 57 l 451 667 l 339 667 z "},"ώ":{"ha":724,"x_min":0,"x_max":0,"o":"m 568 203 b 492 100 568 133 543 100 b 414 201 440 100 414 133 l 414 468 l 311 468 l 311 201 b 232 100 311 133 283 100 b 157 203 182 100 157 133 l 157 507 b 190 667 157 572 168 626 l 75 667 b 40 508 53 633 40 581 l 40 206 b 203 -8 40 56 94 -8 b 360 74 268 -8 319 15 l 365 74 b 522 -8 406 15 456 -8 b 683 206 631 -8 683 56 l 683 508 b 649 667 683 581 672 633 l 533 667 b 568 507 557 626 568 572 z m 389 732 l 413 1011 l 314 1011 l 314 732 z "},"Ђ":{"ha":603,"x_min":0,"x_max":0,"o":"m 149 0 l 272 0 l 272 413 b 361 518 290 488 308 518 b 439 426 411 518 439 490 l 439 -115 b 356 -215 439 -183 413 -215 b 272 -115 299 -215 272 -183 l 272 -56 l 149 -56 l 149 -115 b 356 -324 149 -256 221 -324 b 564 -115 492 -324 564 -256 l 564 460 b 422 629 564 576 518 629 b 278 542 353 629 314 603 l 272 542 l 272 810 l 404 810 l 404 922 l 26 922 l 26 810 l 149 810 z "},"Ѓ":{"ha":415,"x_min":0,"x_max":0,"o":"m 375 1143 l 311 1215 l 104 989 l 151 940 z m 163 0 l 163 808 l 390 808 l 390 922 l 38 922 l 38 0 z "},"Є":{"ha":504,"x_min":0,"x_max":0,"o":"m 467 268 l 349 268 l 349 215 b 256 107 349 142 317 107 b 161 217 193 107 161 144 l 161 432 l 324 432 l 324 536 l 161 536 l 161 703 b 254 814 161 775 193 814 b 349 701 317 814 349 774 l 349 661 l 467 661 l 467 690 b 251 931 467 840 392 931 b 38 693 114 931 38 843 l 38 225 b 254 -8 38 75 111 -8 b 467 222 393 -8 467 68 z "},"Љ":{"ha":871,"x_min":0,"x_max":0,"o":"m 536 922 l 146 922 l 132 533 b 93 151 124 301 108 194 b 39 114 81 118 64 114 l 26 114 l 26 0 l 46 0 b 176 76 104 0 147 11 b 236 533 207 143 226 285 l 246 810 l 413 810 l 413 0 l 668 0 b 843 185 799 0 843 74 l 843 360 b 668 542 843 486 799 542 l 536 542 z m 536 113 l 536 433 l 644 433 b 726 333 711 433 726 408 l 726 207 b 644 113 726 147 711 113 z "},"Њ":{"ha":815,"x_min":0,"x_max":0,"o":"m 481 922 l 357 922 l 357 542 l 163 542 l 163 922 l 38 922 l 38 0 l 163 0 l 163 433 l 357 433 l 357 0 l 613 0 b 788 185 743 0 788 74 l 788 360 b 613 542 788 486 743 542 l 481 542 z m 481 113 l 481 433 l 589 433 b 671 333 656 433 671 408 l 671 207 b 589 113 671 147 656 113 z "},"Ћ":{"ha":603,"x_min":0,"x_max":0,"o":"m 149 0 l 272 0 l 272 421 b 363 518 293 492 314 518 b 439 426 411 518 439 490 l 439 0 l 564 0 l 564 460 b 422 629 564 576 518 629 b 278 542 353 629 314 603 l 272 542 l 272 810 l 404 810 l 404 922 l 26 922 l 26 810 l 149 810 z "},"Ќ":{"ha":511,"x_min":0,"x_max":0,"o":"m 494 0 l 322 557 l 496 922 l 369 922 l 169 508 l 164 508 l 164 922 l 38 922 l 38 0 l 164 0 l 164 268 l 231 399 l 236 399 l 368 0 z m 407 1143 l 343 1215 l 136 989 l 183 940 z "},"Ѝ":{"ha":544,"x_min":0,"x_max":0,"o":"m 339 940 l 386 989 l 179 1215 l 115 1143 z m 506 0 l 506 922 l 372 922 l 164 300 l 158 300 l 158 922 l 38 922 l 38 0 l 167 0 l 381 665 l 386 665 l 386 0 z "},"Ў":{"ha":511,"x_min":0,"x_max":0,"o":"m 254 940 b 443 1161 365 940 443 1013 l 353 1161 b 254 1019 351 1064 317 1019 b 154 1161 190 1019 157 1064 l 67 1161 b 254 940 67 1014 143 940 z m 350 217 b 254 107 350 144 318 107 b 160 215 193 107 160 142 l 160 307 l 38 307 l 38 222 b 256 -8 38 67 117 -8 b 472 225 400 -8 472 75 l 472 922 l 350 922 l 350 560 b 244 464 336 499 304 464 b 160 574 183 464 160 503 l 160 922 l 38 922 l 38 581 b 196 350 38 429 89 350 b 344 433 264 350 319 382 l 350 433 z "},"Џ":{"ha":519,"x_min":0,"x_max":0,"o":"m 307 -232 l 307 0 l 481 0 l 481 922 l 357 922 l 357 114 l 163 114 l 163 922 l 38 922 l 38 0 l 213 0 l 213 -232 z "},"Б":{"ha":497,"x_min":0,"x_max":0,"o":"m 390 808 l 390 922 l 38 922 l 38 0 l 294 0 b 469 185 425 0 469 74 l 469 354 b 294 542 469 478 425 542 l 163 542 l 163 808 z m 163 113 l 163 433 l 269 433 b 351 333 338 433 351 408 l 351 207 b 269 113 351 147 336 113 z "},"Д":{"ha":618,"x_min":0,"x_max":0,"o":"m 596 -232 l 596 114 l 539 114 l 539 922 l 149 922 l 135 533 b 74 121 124 215 108 147 b 40 114 65 115 56 114 l 24 114 l 24 -232 l 118 -232 l 118 0 l 501 0 l 501 -232 z m 415 114 l 190 114 b 239 533 224 190 233 386 l 249 810 l 415 810 z "},"Ж":{"ha":806,"x_min":0,"x_max":0,"o":"m 144 0 l 336 396 l 342 396 l 342 0 l 463 0 l 463 396 l 468 396 l 661 0 l 792 0 l 558 469 l 783 922 l 656 922 l 468 558 l 463 558 l 463 922 l 342 922 l 342 558 l 336 558 l 150 922 l 22 922 l 246 469 l 14 0 z "},"И":{"ha":544,"x_min":0,"x_max":0,"o":"m 506 0 l 506 922 l 372 922 l 164 300 l 158 300 l 158 922 l 38 922 l 38 0 l 167 0 l 381 665 l 386 665 l 386 0 z "},"Й":{"ha":544,"x_min":0,"x_max":0,"o":"m 275 940 b 464 1161 386 940 464 1013 l 374 1161 b 275 1019 372 1064 338 1019 b 175 1161 211 1019 178 1064 l 88 1161 b 275 940 88 1014 164 940 z m 506 0 l 506 922 l 372 922 l 164 300 l 158 300 l 158 922 l 38 922 l 38 0 l 167 0 l 381 665 l 386 665 l 386 0 z "},"Л":{"ha":575,"x_min":0,"x_max":0,"o":"m 536 0 l 536 922 l 146 922 l 132 533 b 93 151 124 301 108 193 b 39 114 81 118 64 114 l 26 114 l 26 0 l 46 0 b 176 76 104 0 147 11 b 236 533 208 149 228 301 l 246 810 l 413 810 l 413 0 z "},"У":{"ha":511,"x_min":0,"x_max":0,"o":"m 350 217 b 254 107 350 144 318 107 b 160 215 193 107 160 142 l 160 307 l 38 307 l 38 222 b 256 -8 38 67 117 -8 b 472 225 400 -8 472 75 l 472 922 l 350 922 l 350 560 b 244 464 336 499 304 464 b 160 574 183 464 160 503 l 160 922 l 38 922 l 38 581 b 196 350 38 429 89 350 b 344 433 264 350 319 382 l 350 433 z "},"Ц":{"ha":560,"x_min":0,"x_max":0,"o":"m 536 -232 l 536 114 l 481 114 l 481 922 l 357 922 l 357 114 l 163 114 l 163 922 l 38 922 l 38 0 l 442 0 l 442 -232 z "},"Ч":{"ha":511,"x_min":0,"x_max":0,"o":"m 472 0 l 472 922 l 350 922 l 350 524 b 244 485 325 494 282 485 b 160 585 182 485 160 513 l 160 922 l 38 922 l 38 578 b 201 369 38 429 82 369 b 344 408 258 369 310 386 l 350 408 l 350 0 z "},"Ш":{"ha":767,"x_min":0,"x_max":0,"o":"m 729 0 l 729 922 l 604 922 l 604 114 l 442 114 l 442 922 l 325 922 l 325 114 l 163 114 l 163 922 l 38 922 l 38 0 z "},"Щ":{"ha":808,"x_min":0,"x_max":0,"o":"m 785 -232 l 785 114 l 729 114 l 729 922 l 604 922 l 604 114 l 442 114 l 442 922 l 325 922 l 325 114 l 163 114 l 163 922 l 38 922 l 38 0 l 690 0 l 690 -232 z "},"Ъ":{"ha":656,"x_min":0,"x_max":0,"o":"m 197 0 l 453 0 b 628 185 583 0 628 74 l 628 328 b 453 542 628 467 594 542 l 321 542 l 321 922 l 26 922 l 26 808 l 197 808 z m 321 113 l 321 433 l 429 433 b 511 344 496 433 511 404 l 511 204 b 429 113 511 140 493 113 z "},"Ы":{"ha":688,"x_min":0,"x_max":0,"o":"m 649 0 l 649 922 l 524 922 l 524 0 z m 163 922 l 38 922 l 38 0 l 294 0 b 469 185 425 0 469 74 l 469 360 b 294 542 469 486 425 542 l 163 542 z m 163 113 l 163 433 l 269 433 b 351 333 338 433 351 408 l 351 207 b 269 113 351 147 336 113 z "},"Ь":{"ha":497,"x_min":0,"x_max":0,"o":"m 163 922 l 38 922 l 38 0 l 294 0 b 469 185 425 0 469 74 l 469 360 b 294 542 469 486 425 542 l 163 542 z m 163 113 l 163 433 l 269 433 b 351 333 338 433 351 408 l 351 207 b 269 113 351 147 336 113 z "},"Э":{"ha":504,"x_min":0,"x_max":0,"o":"m 38 222 b 250 -8 38 68 111 -8 b 467 225 393 -8 467 75 l 467 693 b 253 931 467 843 390 931 b 38 690 113 931 38 840 l 38 661 l 156 661 l 156 701 b 250 814 156 774 188 814 b 343 703 311 814 343 775 l 343 536 l 181 536 l 181 432 l 343 432 l 343 217 b 249 107 343 144 311 107 b 156 215 188 107 156 142 l 156 268 l 38 268 z "},"Ю":{"ha":749,"x_min":0,"x_max":0,"o":"m 163 0 l 163 433 l 274 433 l 274 225 b 493 -8 274 75 350 -8 b 710 222 632 -8 710 68 l 710 690 b 492 931 710 840 631 931 b 274 693 353 931 274 843 l 274 544 l 163 544 l 163 922 l 38 922 l 38 0 z m 588 215 b 493 107 588 142 554 107 b 396 217 429 107 396 144 l 396 703 b 492 814 396 775 431 814 b 588 701 553 814 588 774 z "},"Я":{"ha":497,"x_min":0,"x_max":0,"o":"m 140 0 l 239 378 l 335 378 l 335 0 l 460 0 l 460 922 l 203 922 b 29 700 53 922 29 836 l 29 589 b 122 389 29 490 43 415 l 14 0 z m 146 576 l 146 700 b 228 810 146 771 164 810 l 335 810 l 335 482 l 228 482 b 146 576 176 482 146 504 z "},"б":{"ha":501,"x_min":0,"x_max":0,"o":"m 340 197 b 249 97 340 128 310 97 b 157 197 188 97 157 128 l 157 472 b 254 569 175 540 197 569 b 340 469 310 569 340 539 z m 461 497 b 303 675 461 614 403 675 b 160 583 233 675 188 644 l 154 583 l 154 682 b 238 826 154 779 175 826 l 336 826 b 438 1001 401 826 436 885 l 364 1001 b 294 933 357 956 335 933 l 193 933 b 40 682 71 933 40 856 l 40 200 b 251 -8 40 57 107 -8 b 461 168 393 -8 461 56 z "},"в":{"ha":494,"x_min":0,"x_max":0,"o":"m 449 475 l 449 524 b 264 667 449 618 389 667 l 40 667 l 40 0 l 261 0 b 463 167 403 0 463 63 l 463 218 b 357 351 463 299 424 340 l 357 357 b 449 475 417 368 449 411 z m 257 311 b 346 229 317 311 346 281 l 346 182 b 263 99 346 131 322 99 l 160 99 l 160 311 z m 339 453 b 260 392 339 410 314 392 l 160 392 l 160 567 l 261 567 b 339 506 317 567 339 544 z "},"г":{"ha":340,"x_min":0,"x_max":0,"o":"m 160 0 l 160 560 l 317 560 l 317 667 l 40 667 l 40 0 z "},"д":{"ha":585,"x_min":0,"x_max":0,"o":"m 561 -208 l 561 107 l 504 107 l 504 667 l 140 667 l 128 372 b 43 107 119 185 101 107 l 24 107 l 24 -208 l 118 -208 l 118 0 l 467 0 l 467 -208 z m 385 107 l 182 107 b 222 415 207 160 214 272 l 232 560 l 385 560 z "},"ж":{"ha":743,"x_min":0,"x_max":0,"o":"m 729 0 l 522 343 l 721 667 l 597 667 l 435 410 l 429 410 l 429 667 l 314 667 l 314 410 l 308 410 l 146 667 l 22 667 l 219 343 l 14 0 l 140 0 l 308 288 l 314 288 l 314 0 l 429 0 l 429 288 l 435 288 l 603 0 z "},"з":{"ha":489,"x_min":0,"x_max":0,"o":"m 451 211 b 346 350 451 304 401 339 l 346 356 b 438 472 408 368 438 406 l 438 510 b 244 675 438 617 375 675 b 40 499 107 675 40 611 l 40 460 l 153 460 l 153 489 b 242 571 153 543 181 571 b 329 488 303 571 329 543 l 329 463 b 238 392 329 415 306 392 l 185 392 l 185 311 l 236 311 b 335 225 301 311 335 279 l 335 176 b 246 96 335 122 306 96 b 153 193 181 96 153 126 l 153 240 l 40 240 l 40 174 b 244 -8 40 50 106 -8 b 451 163 389 -8 451 56 z "},"и":{"ha":524,"x_min":0,"x_max":0,"o":"m 483 0 l 483 667 l 357 667 l 165 208 l 160 208 l 160 667 l 40 667 l 40 0 l 165 0 l 358 458 l 364 458 l 364 0 z "},"й":{"ha":524,"x_min":0,"x_max":0,"o":"m 263 700 b 451 921 374 700 451 772 l 361 921 b 263 779 360 824 325 779 b 163 921 199 779 165 824 l 75 921 b 263 700 75 774 151 700 z m 483 0 l 483 667 l 357 667 l 165 208 l 160 208 l 160 667 l 40 667 l 40 0 l 165 0 l 358 458 l 364 458 l 364 0 z "},"л":{"ha":538,"x_min":0,"x_max":0,"o":"m 496 0 l 496 667 l 132 667 l 121 415 b 82 135 114 251 106 174 b 35 107 71 117 57 107 l 24 107 l 24 0 l 42 0 b 154 53 94 0 131 13 b 214 415 186 106 200 208 l 224 560 l 376 560 l 376 0 z "},"м":{"ha":658,"x_min":0,"x_max":0,"o":"m 618 0 l 618 667 l 446 667 l 333 185 l 329 185 l 217 667 l 40 667 l 40 0 l 144 0 l 144 363 b 140 507 144 404 143 451 l 146 507 l 276 0 l 382 0 l 513 507 l 518 507 b 513 363 514 451 513 404 l 513 0 z "},"н":{"ha":508,"x_min":0,"x_max":0,"o":"m 468 0 l 468 667 l 349 667 l 349 403 l 160 403 l 160 667 l 40 667 l 40 0 l 160 0 l 160 296 l 349 296 l 349 0 z "},"п":{"ha":508,"x_min":0,"x_max":0,"o":"m 468 0 l 468 667 l 40 667 l 40 0 l 160 0 l 160 560 l 349 560 l 349 0 z "},"т":{"ha":426,"x_min":0,"x_max":0,"o":"m 274 0 l 274 560 l 401 560 l 401 667 l 26 667 l 26 560 l 154 560 l 154 0 z "},"ц":{"ha":546,"x_min":0,"x_max":0,"o":"m 524 -206 l 524 107 l 468 107 l 468 667 l 349 667 l 349 107 l 160 107 l 160 667 l 40 667 l 40 0 l 429 0 l 429 -206 z "},"ч":{"ha":506,"x_min":0,"x_max":0,"o":"m 465 0 l 465 667 l 346 667 l 346 375 b 247 354 326 363 293 354 b 157 418 178 354 157 374 l 157 667 l 38 667 l 38 390 b 200 251 38 292 83 251 b 340 281 267 251 311 264 l 346 281 l 346 0 z "},"ш":{"ha":742,"x_min":0,"x_max":0,"o":"m 700 0 l 700 667 l 581 667 l 581 107 l 424 107 l 424 667 l 315 667 l 315 107 l 160 107 l 160 667 l 40 667 l 40 0 z "},"щ":{"ha":781,"x_min":0,"x_max":0,"o":"m 757 -206 l 757 107 l 700 107 l 700 667 l 581 667 l 581 107 l 424 107 l 424 667 l 315 667 l 315 107 l 160 107 l 160 667 l 40 667 l 40 0 l 663 0 l 663 -206 z "},"ъ":{"ha":607,"x_min":0,"x_max":0,"o":"m 282 667 l 15 667 l 15 560 l 163 560 l 163 0 l 407 0 b 576 138 531 0 576 50 l 576 283 b 407 428 576 376 531 428 l 282 428 z m 282 104 l 282 328 l 385 328 b 463 260 440 328 463 304 l 463 176 b 385 104 463 129 447 104 z "},"ы":{"ha":667,"x_min":0,"x_max":0,"o":"m 160 667 l 40 667 l 40 0 l 286 0 b 454 138 408 0 454 50 l 454 281 b 286 428 454 374 410 428 l 160 428 z m 160 104 l 160 328 l 263 328 b 342 260 318 328 342 304 l 342 172 b 263 104 342 128 318 104 z m 626 0 l 626 667 l 507 667 l 507 0 z "},"ь":{"ha":485,"x_min":0,"x_max":0,"o":"m 160 667 l 40 667 l 40 0 l 286 0 b 454 138 408 0 454 50 l 454 281 b 286 428 454 374 410 428 l 160 428 z m 160 104 l 160 328 l 263 328 b 342 260 318 328 342 304 l 342 172 b 263 104 342 128 318 104 z "},"э":{"ha":492,"x_min":0,"x_max":0,"o":"m 335 307 l 335 196 b 244 96 335 129 304 96 b 154 193 183 96 154 129 l 154 235 l 40 235 l 40 197 b 244 -8 40 61 101 -8 b 451 200 385 -8 451 60 l 451 467 b 243 675 451 606 383 675 b 43 489 101 675 43 606 l 43 465 l 157 465 l 157 486 b 243 571 157 536 182 571 b 335 471 304 571 335 538 l 335 394 l 181 394 l 181 307 z "},"ю":{"ha":724,"x_min":0,"x_max":0,"o":"m 682 467 b 475 675 682 610 617 675 b 271 467 333 675 271 610 l 271 403 l 157 403 l 157 667 l 40 667 l 40 0 l 157 0 l 157 296 l 271 296 l 271 200 b 475 -8 271 57 333 -8 b 682 200 617 -8 682 57 z m 567 200 b 475 100 567 132 536 100 b 383 200 413 100 383 132 l 383 467 b 475 567 383 535 413 567 b 567 467 536 567 567 535 z "},"я":{"ha":494,"x_min":0,"x_max":0,"o":"m 139 0 l 244 249 l 335 249 l 335 0 l 454 0 l 454 667 l 208 667 b 40 529 86 667 40 617 l 40 410 b 131 257 40 333 54 276 l 14 0 z m 154 413 l 154 486 b 232 563 154 536 168 563 l 335 563 l 335 344 l 232 344 b 154 413 182 344 154 358 z "},"ђ":{"ha":507,"x_min":0,"x_max":0,"o":"m 325 781 l 325 857 l 160 857 l 160 933 l 40 933 l 40 857 l 0 857 l 0 781 l 40 781 l 40 0 l 160 0 l 160 432 b 261 569 163 531 200 569 b 346 475 314 569 346 540 l 346 -115 b 253 -215 346 -183 315 -215 b 161 -115 190 -215 161 -183 l 161 -37 l 46 -37 l 46 -115 b 253 -324 46 -256 111 -324 b 467 -115 394 -324 467 -256 l 467 493 b 308 675 467 586 426 675 b 165 583 240 675 190 646 l 160 583 l 160 781 z "},"ѓ":{"ha":340,"x_min":0,"x_max":0,"o":"m 333 903 l 269 975 l 63 749 l 110 700 z m 160 0 l 160 560 l 317 560 l 317 667 l 40 667 l 40 0 z "},"є":{"ha":492,"x_min":0,"x_max":0,"o":"m 311 307 l 311 394 l 157 394 l 157 471 b 249 571 157 538 188 571 b 336 486 310 571 336 536 l 336 465 l 449 465 l 449 489 b 249 675 449 606 390 675 b 40 467 108 675 40 606 l 40 200 b 247 -8 40 60 108 -8 b 451 197 390 -8 451 61 l 451 235 l 338 235 l 338 193 b 247 96 338 129 310 96 b 157 196 188 96 157 129 l 157 307 z "},"љ":{"ha":821,"x_min":0,"x_max":0,"o":"m 496 667 l 132 667 l 121 415 b 82 135 114 251 106 174 b 35 107 71 117 57 107 l 24 107 l 24 0 l 42 0 b 154 53 94 0 131 13 b 214 415 186 106 200 208 l 224 560 l 376 560 l 376 0 l 622 0 b 790 138 744 0 790 50 l 790 281 b 622 428 790 374 746 428 l 496 428 z m 496 104 l 496 328 l 599 328 b 678 260 654 328 678 304 l 678 172 b 599 104 678 128 654 104 z "},"њ":{"ha":793,"x_min":0,"x_max":0,"o":"m 468 667 l 349 667 l 349 428 l 160 428 l 160 667 l 40 667 l 40 0 l 160 0 l 160 328 l 349 328 l 349 0 l 593 0 b 761 138 715 0 761 50 l 761 281 b 593 428 761 374 717 428 l 468 428 z m 468 104 l 468 328 l 569 328 b 649 260 626 328 649 304 l 649 172 b 569 104 649 128 626 104 z "},"ќ":{"ha":501,"x_min":0,"x_max":0,"o":"m 421 903 l 357 975 l 150 749 l 197 700 z m 483 0 l 317 403 l 486 667 l 356 667 l 165 383 l 160 383 l 160 667 l 40 667 l 40 0 l 160 0 l 160 193 l 226 286 l 231 286 l 357 0 z "},"ѝ":{"ha":524,"x_min":0,"x_max":0,"o":"m 326 700 l 374 749 l 167 975 l 103 903 z m 483 0 l 483 667 l 357 667 l 165 208 l 160 208 l 160 667 l 40 667 l 40 0 l 165 0 l 358 458 l 364 458 l 364 0 z "},"ў":{"ha":503,"x_min":0,"x_max":0,"o":"m 161 667 l 40 667 l 40 175 b 196 0 40 71 79 0 b 338 92 263 0 308 24 l 343 92 l 343 -115 b 250 -215 343 -183 313 -215 b 158 -115 189 -215 158 -183 l 158 -42 l 44 -42 l 44 -115 b 251 -324 44 -256 110 -324 b 463 -115 393 -324 463 -256 l 463 667 l 347 667 l 347 215 b 249 110 329 138 301 110 b 161 210 193 110 161 139 z m 256 700 b 444 921 367 700 444 772 l 354 921 b 256 779 353 824 318 779 b 156 921 192 779 158 824 l 68 921 b 256 700 68 774 144 700 z "},"џ":{"ha":508,"x_min":0,"x_max":0,"o":"m 300 -206 l 300 0 l 468 0 l 468 667 l 349 667 l 349 107 l 160 107 l 160 667 l 40 667 l 40 0 l 206 0 l 206 -206 z "},"Ґ":{"ha":413,"x_min":0,"x_max":0,"o":"m 163 0 l 163 808 l 390 808 l 390 1151 l 296 1151 l 296 922 l 38 922 l 38 0 z "},"ґ":{"ha":340,"x_min":0,"x_max":0,"o":"m 160 0 l 160 560 l 317 560 l 317 869 l 222 869 l 222 667 l 40 667 l 40 0 z "},"Ғ":{"ha":439,"x_min":0,"x_max":0,"o":"m 185 0 l 185 399 l 336 399 l 336 496 l 185 496 l 185 808 l 413 808 l 413 922 l 61 922 l 61 496 l 10 496 l 10 399 l 61 399 l 61 0 z "},"ғ":{"ha":360,"x_min":0,"x_max":0,"o":"m 179 0 l 179 261 l 336 261 l 336 339 l 179 339 l 179 560 l 336 560 l 336 667 l 60 667 l 60 339 l 10 339 l 10 261 l 60 261 l 60 0 z "},"Җ":{"ha":871,"x_min":0,"x_max":0,"o":"m 144 0 l 336 396 l 342 396 l 342 0 l 463 0 l 463 396 l 468 396 l 661 0 l 753 0 l 753 -226 l 847 -226 l 847 114 l 735 114 l 558 469 l 783 922 l 656 922 l 468 558 l 463 558 l 463 922 l 342 922 l 342 558 l 336 558 l 150 922 l 22 922 l 246 469 l 14 0 z "},"җ":{"ha":815,"x_min":0,"x_max":0,"o":"m 792 -226 l 792 114 l 660 114 l 522 343 l 721 667 l 597 667 l 435 410 l 429 410 l 429 667 l 314 667 l 314 410 l 308 410 l 146 667 l 22 667 l 219 343 l 14 0 l 140 0 l 308 288 l 314 288 l 314 0 l 429 0 l 429 288 l 435 288 l 603 0 l 697 0 l 697 -226 z "},"Ҙ":{"ha":496,"x_min":0,"x_max":0,"o":"m 146 -293 b 236 -311 168 -306 201 -311 b 365 -203 324 -311 365 -276 l 365 -165 b 300 -24 365 -110 343 -60 l 300 -4 b 468 225 411 13 468 93 l 468 331 b 357 489 468 433 415 478 l 357 494 b 454 643 419 506 454 558 l 454 729 b 249 931 454 828 393 931 b 38 704 115 931 38 842 l 38 661 l 156 661 l 156 715 b 247 814 156 774 189 814 b 339 717 311 814 339 771 l 339 631 b 244 539 339 576 321 539 l 182 539 l 182 435 l 240 435 b 344 339 318 435 344 400 l 344 217 b 247 107 344 144 311 107 b 156 215 186 107 156 142 l 156 268 l 38 268 l 38 222 b 217 -7 38 81 100 4 b 282 -129 264 -43 282 -92 l 282 -160 b 213 -206 282 -192 260 -206 b 146 -194 190 -206 164 -203 z "},"ҙ":{"ha":489,"x_min":0,"x_max":0,"o":"m 451 211 b 346 350 451 304 401 339 l 346 356 b 438 472 408 368 438 406 l 438 510 b 244 675 438 617 375 675 b 40 499 107 675 40 611 l 40 460 l 153 460 l 153 489 b 242 571 153 543 181 571 b 329 488 303 571 329 543 l 329 463 b 238 392 329 415 306 392 l 185 392 l 185 311 l 236 311 b 335 225 301 311 335 279 l 335 176 b 246 96 335 122 306 96 b 153 193 181 96 153 126 l 153 240 l 40 240 l 40 174 b 181 -3 40 71 85 13 b 278 -129 247 -36 278 -86 l 278 -160 b 207 -206 278 -192 256 -206 b 142 -194 186 -206 158 -203 l 142 -293 b 231 -311 164 -306 196 -311 b 361 -203 319 -311 361 -276 l 361 -165 b 276 -21 361 -104 331 -54 l 276 -7 b 451 163 397 1 451 63 z "},"Қ":{"ha":596,"x_min":0,"x_max":0,"o":"m 572 -226 l 572 114 l 458 114 l 322 557 l 496 922 l 369 922 l 169 508 l 164 508 l 164 922 l 38 922 l 38 0 l 164 0 l 164 268 l 231 399 l 236 399 l 368 0 l 478 0 l 478 -226 z "},"қ":{"ha":564,"x_min":0,"x_max":0,"o":"m 540 -226 l 540 114 l 436 114 l 317 403 l 486 667 l 356 667 l 165 383 l 160 383 l 160 667 l 40 667 l 40 0 l 160 0 l 160 193 l 226 286 l 231 286 l 357 0 l 446 0 l 446 -226 z "},"Ҡ":{"ha":726,"x_min":0,"x_max":0,"o":"m 710 0 l 538 557 l 711 922 l 585 922 l 385 508 l 379 508 l 379 922 l 26 922 l 26 808 l 253 808 l 253 0 l 379 0 l 379 268 l 446 399 l 451 399 l 583 0 z "},"ҡ":{"ha":643,"x_min":0,"x_max":0,"o":"m 625 0 l 458 403 l 628 667 l 497 667 l 307 383 l 301 383 l 301 667 l 26 667 l 26 560 l 182 560 l 182 0 l 301 0 l 301 193 l 368 286 l 372 286 l 499 0 z "},"Ң":{"ha":560,"x_min":0,"x_max":0,"o":"m 536 -226 l 536 114 l 481 114 l 481 922 l 357 922 l 357 544 l 163 544 l 163 922 l 38 922 l 38 0 l 163 0 l 163 433 l 357 433 l 357 0 l 442 0 l 442 -226 z "},"ң":{"ha":564,"x_min":0,"x_max":0,"o":"m 540 -226 l 540 114 l 468 114 l 468 667 l 349 667 l 349 403 l 160 403 l 160 667 l 40 667 l 40 0 l 160 0 l 160 296 l 349 296 l 349 0 l 446 0 l 446 -226 z "},"Ҫ":{"ha":504,"x_min":0,"x_max":0,"o":"m 154 -293 b 243 -311 176 -306 208 -311 b 374 -203 331 -311 374 -276 l 374 -165 b 282 -18 374 -103 340 -50 l 282 -7 b 467 222 403 3 467 78 l 467 376 l 349 376 l 349 215 b 254 107 349 142 317 107 b 161 215 189 107 161 144 l 161 703 b 254 814 161 775 193 814 b 349 701 317 814 349 774 l 349 592 l 467 592 l 467 701 b 250 931 467 854 390 931 b 38 700 111 931 38 854 l 38 225 b 190 -1 38 99 89 19 b 290 -129 258 -35 290 -86 l 290 -160 b 219 -206 290 -192 268 -206 b 154 -194 199 -206 171 -203 z "},"ҫ":{"ha":492,"x_min":0,"x_max":0,"o":"m 138 -293 b 228 -311 161 -306 193 -311 b 358 -203 315 -311 358 -276 l 358 -165 b 264 -17 358 -101 324 -49 l 264 -7 b 451 200 394 -1 451 67 l 451 247 l 338 247 l 338 200 b 247 100 338 132 310 100 b 157 200 188 100 157 132 l 157 467 b 249 567 157 535 188 567 b 339 467 310 567 339 535 l 339 422 l 451 422 l 451 467 b 249 675 451 607 390 675 b 40 467 107 675 40 607 l 40 200 b 171 0 40 86 82 21 b 274 -129 242 -33 274 -85 l 274 -160 b 204 -206 274 -192 253 -206 b 138 -194 183 -206 156 -203 z "},"γ":{"ha":474,"x_min":0,"x_max":0,"o":"m 299 -324 l 299 -35 l 458 667 l 343 667 l 244 156 l 239 156 l 136 667 l 15 667 l 181 -35 l 181 -324 z "},"ү":{"ha":474,"x_min":0,"x_max":0,"o":"m 299 -324 l 299 -35 l 458 667 l 343 667 l 244 156 l 239 156 l 136 667 l 15 667 l 181 -35 l 181 -324 z "},"Ҳ":{"ha":603,"x_min":0,"x_max":0,"o":"m 396 922 l 274 597 l 268 597 l 147 922 l 22 922 l 193 467 l 17 0 l 142 0 l 267 342 l 272 342 l 396 0 l 485 0 l 485 -226 l 579 -226 l 579 114 l 482 114 l 347 479 l 518 922 z "},"ҳ":{"ha":563,"x_min":0,"x_max":0,"o":"m 357 667 l 254 447 l 249 447 l 142 667 l 19 667 l 176 339 l 14 0 l 138 0 l 243 231 l 249 231 l 357 0 l 444 0 l 444 -226 l 539 -226 l 539 114 l 429 114 l 321 346 l 476 667 z "},"Ҷ":{"ha":560,"x_min":0,"x_max":0,"o":"m 536 -226 l 536 114 l 472 114 l 472 922 l 350 922 l 350 524 b 244 485 325 494 282 485 b 160 585 182 485 160 513 l 160 922 l 38 922 l 38 578 b 201 369 38 429 82 369 b 344 408 258 369 310 386 l 350 408 l 350 0 l 442 0 l 442 -226 z "},"ҷ":{"ha":551,"x_min":0,"x_max":0,"o":"m 529 -226 l 529 114 l 465 114 l 465 667 l 346 667 l 346 375 b 247 354 326 363 293 354 b 157 418 178 354 157 374 l 157 667 l 38 667 l 38 390 b 200 251 38 292 83 251 b 340 281 267 251 311 264 l 346 281 l 346 0 l 435 0 l 435 -226 z "},"Һ":{"ha":511,"x_min":0,"x_max":0,"o":"m 39 922 l 39 0 l 163 0 l 163 399 b 268 438 186 428 229 438 b 353 338 331 438 353 410 l 353 0 l 474 0 l 474 344 b 311 553 474 493 429 553 b 168 514 253 553 203 536 l 163 514 l 163 922 z "},"Ӄ":{"ha":511,"x_min":0,"x_max":0,"o":"m 282 -324 b 494 -115 422 -324 494 -256 l 494 0 l 322 557 l 496 922 l 369 922 l 169 508 l 164 508 l 164 922 l 38 922 l 38 0 l 164 0 l 164 268 l 231 399 l 236 399 l 371 0 l 371 -115 b 282 -215 371 -183 343 -215 z "},"ӄ":{"ha":501,"x_min":0,"x_max":0,"o":"m 272 -324 b 483 -115 413 -324 483 -256 l 483 0 l 317 403 l 486 667 l 356 667 l 165 383 l 160 383 l 160 667 l 40 667 l 40 0 l 160 0 l 160 193 l 226 286 l 231 286 l 364 -26 l 364 -115 b 271 -215 364 -183 333 -215 z "},"Ӈ":{"ha":519,"x_min":0,"x_max":0,"o":"m 263 -324 b 481 -115 404 -324 481 -256 l 481 922 l 357 922 l 357 544 l 163 544 l 163 922 l 38 922 l 38 0 l 163 0 l 163 433 l 357 433 l 357 -115 b 263 -215 357 -183 325 -215 z "},"ӈ":{"ha":508,"x_min":0,"x_max":0,"o":"m 256 -324 b 468 -115 397 -324 468 -256 l 468 667 l 349 667 l 349 403 l 160 403 l 160 667 l 40 667 l 40 0 l 160 0 l 160 296 l 349 296 l 349 -115 b 254 -215 349 -183 317 -215 z "},"Ө":{"ha":503,"x_min":0,"x_max":0,"o":"m 469 690 b 251 931 469 840 390 931 b 32 693 113 931 32 843 l 32 225 b 253 -8 32 75 110 -8 b 469 222 392 -8 469 68 z m 347 215 b 251 107 347 142 313 107 b 156 217 189 107 156 144 l 156 415 l 347 415 z m 156 703 b 250 814 156 775 190 814 b 347 701 313 814 347 774 l 347 525 l 156 525 z "},"ө":{"ha":497,"x_min":0,"x_max":0,"o":"m 457 467 b 249 675 457 610 390 675 b 40 467 107 675 40 610 l 40 200 b 249 -8 40 57 107 -8 b 457 200 390 -8 457 57 z m 340 200 b 249 100 340 132 310 100 b 157 200 188 100 157 132 l 157 300 l 340 300 z m 157 467 b 249 567 157 535 188 567 b 340 467 310 567 340 535 l 340 378 l 157 378 z "},"Ӯ":{"ha":511,"x_min":0,"x_max":0,"o":"m 418 1021 l 418 1097 l 93 1097 l 93 1021 z m 350 217 b 254 107 350 144 318 107 b 160 215 193 107 160 142 l 160 307 l 38 307 l 38 222 b 256 -8 38 67 117 -8 b 472 225 400 -8 472 75 l 472 922 l 350 922 l 350 560 b 244 464 336 499 304 464 b 160 574 183 464 160 503 l 160 922 l 38 922 l 38 581 b 196 350 38 429 89 350 b 344 433 264 350 319 382 l 350 433 z "},"ӯ":{"ha":503,"x_min":0,"x_max":0,"o":"m 161 667 l 40 667 l 40 175 b 196 0 40 71 79 0 b 338 92 263 0 308 24 l 343 92 l 343 -115 b 250 -215 343 -183 313 -215 b 158 -115 189 -215 158 -183 l 158 -42 l 44 -42 l 44 -115 b 251 -324 44 -256 110 -324 b 463 -115 393 -324 463 -256 l 463 667 l 347 667 l 347 215 b 249 110 329 138 301 110 b 161 210 193 110 161 139 z m 418 781 l 418 857 l 93 857 l 93 781 z "},"Ԓ":{"ha":575,"x_min":0,"x_max":0,"o":"m 318 -324 b 536 -115 458 -324 536 -256 l 536 922 l 146 922 l 132 533 b 93 151 124 301 108 194 b 39 114 81 118 64 114 l 26 114 l 26 0 l 46 0 b 176 76 104 0 147 11 b 236 533 207 143 226 285 l 246 810 l 413 810 l 413 -115 b 318 -215 413 -183 381 -215 z "},"ԓ":{"ha":538,"x_min":0,"x_max":0,"o":"m 283 -324 b 496 -115 425 -324 496 -256 l 496 667 l 132 667 l 121 415 b 82 135 114 251 106 172 b 35 107 71 115 54 107 l 24 107 l 24 0 l 42 0 b 154 53 94 0 131 13 b 214 415 186 107 200 207 l 224 560 l 376 560 l 376 -115 b 283 -215 376 -183 346 -215 z "},"֏":{"ha":543,"x_min":0,"x_max":0,"o":"m 456 0 l 456 208 l 518 208 l 518 286 l 456 286 l 456 400 l 518 400 l 518 478 l 456 478 l 456 697 b 239 931 456 847 382 931 b 28 700 100 931 28 854 l 28 574 l 144 574 l 144 707 b 238 815 144 781 176 815 b 333 706 300 815 333 778 l 333 478 l 117 478 l 117 400 l 333 400 l 333 286 l 117 286 l 117 208 l 333 208 l 333 0 z "},"Ḍ":{"ha":514,"x_min":0,"x_max":0,"o":"m 265 0 b 475 225 403 0 475 72 l 475 710 b 265 922 475 850 403 922 l 38 922 l 38 0 z m 160 113 l 160 810 l 250 810 b 351 665 332 810 351 754 l 351 260 b 257 113 351 168 332 113 z m 303 -231 l 303 -82 l 183 -82 l 183 -231 z "},"ḍ":{"ha":503,"x_min":0,"x_max":0,"o":"m 161 469 b 250 569 161 543 194 569 b 347 460 308 569 331 542 l 347 208 b 249 97 329 126 306 97 b 161 197 192 97 161 128 z m 463 0 l 463 933 l 344 933 l 344 583 l 339 583 b 199 675 313 647 265 675 b 40 497 100 675 40 613 l 40 169 b 200 -8 40 54 100 -8 b 346 96 272 -8 317 24 l 351 96 l 356 0 z m 315 -231 l 315 -82 l 196 -82 l 196 -231 z "},"Ḓ":{"ha":514,"x_min":0,"x_max":0,"o":"m 265 0 b 475 225 403 0 475 72 l 475 710 b 265 922 475 850 403 922 l 38 922 l 38 0 z m 160 113 l 160 810 l 250 810 b 351 665 332 810 351 754 l 351 260 b 257 113 351 168 332 113 z m 404 -257 l 275 -78 l 165 -78 l 38 -257 l 90 -299 l 221 -149 l 351 -299 z "},"ḓ":{"ha":503,"x_min":0,"x_max":0,"o":"m 161 469 b 250 569 161 543 194 569 b 347 460 308 569 331 542 l 347 208 b 249 97 329 126 306 97 b 161 197 192 97 161 128 z m 463 0 l 463 933 l 344 933 l 344 583 l 339 583 b 199 675 313 647 265 675 b 40 497 100 675 40 613 l 40 169 b 200 -8 40 54 100 -8 b 346 96 272 -8 317 24 l 351 96 l 356 0 z m 429 -257 l 300 -78 l 190 -78 l 63 -257 l 115 -299 l 246 -149 l 376 -299 z "},"Ḥ":{"ha":519,"x_min":0,"x_max":0,"o":"m 481 0 l 481 922 l 357 922 l 357 544 l 163 544 l 163 922 l 38 922 l 38 0 l 163 0 l 163 433 l 357 433 l 357 0 z m 319 -231 l 319 -82 l 200 -82 l 200 -231 z "},"ḥ":{"ha":507,"x_min":0,"x_max":0,"o":"m 467 0 l 467 493 b 308 675 467 586 426 675 b 165 583 240 675 190 646 l 160 583 l 160 933 l 40 933 l 40 0 l 160 0 l 160 432 b 261 569 163 531 200 569 b 346 475 314 569 346 540 l 346 0 z m 311 -231 l 311 -82 l 192 -82 l 192 -231 z "},"Ḽ":{"ha":415,"x_min":0,"x_max":0,"o":"m 390 0 l 390 114 l 163 114 l 163 922 l 38 922 l 38 0 z m 397 -257 l 268 -78 l 158 -78 l 31 -257 l 83 -299 l 214 -149 l 344 -299 z "},"ḽ":{"ha":203,"x_min":0,"x_max":0,"o":"m 160 0 l 160 933 l 40 933 l 40 0 z m 281 -257 l 151 -78 l 42 -78 l -86 -257 l -33 -299 l 97 -149 l 228 -299 z "},"Ṅ":{"ha":544,"x_min":0,"x_max":0,"o":"m 506 0 l 506 922 l 396 922 l 396 483 b 400 260 396 422 397 347 l 394 260 l 201 922 l 38 922 l 38 0 l 147 0 l 147 519 b 143 714 147 581 146 646 l 149 714 l 360 0 z m 326 972 l 326 1122 l 207 1122 l 207 972 z "},"ṅ":{"ha":507,"x_min":0,"x_max":0,"o":"m 467 0 l 467 497 b 307 675 467 613 401 675 b 161 571 236 675 190 643 l 156 571 l 151 667 l 40 667 l 40 0 l 160 0 l 160 472 b 260 569 181 542 204 569 b 346 475 315 569 346 540 l 346 0 z m 310 749 l 310 899 l 190 899 l 190 749 z "},"Ṋ":{"ha":544,"x_min":0,"x_max":0,"o":"m 506 0 l 506 922 l 396 922 l 396 483 b 400 260 396 422 397 347 l 394 260 l 201 922 l 38 922 l 38 0 l 147 0 l 147 519 b 143 714 147 581 146 646 l 149 714 l 360 0 z m 446 -257 l 317 -78 l 207 -78 l 79 -257 l 132 -299 l 263 -149 l 393 -299 z "},"ṋ":{"ha":507,"x_min":0,"x_max":0,"o":"m 467 0 l 467 497 b 307 675 467 613 401 675 b 161 571 236 675 190 643 l 156 571 l 151 667 l 40 667 l 40 0 l 160 0 l 160 472 b 260 569 181 542 204 569 b 346 475 315 569 346 540 l 346 0 z m 435 -257 l 306 -78 l 196 -78 l 68 -257 l 121 -299 l 251 -149 l 382 -299 z "},"Ṛ":{"ha":504,"x_min":0,"x_max":0,"o":"m 160 0 l 160 401 l 272 401 b 350 317 332 401 350 376 l 350 0 l 472 0 l 472 307 b 375 456 472 399 440 443 l 375 461 b 469 611 435 476 469 526 l 469 738 b 294 922 469 854 424 922 l 38 922 l 38 0 z m 349 600 b 268 506 349 529 318 506 l 160 506 l 160 810 l 267 810 b 349 724 325 810 349 781 z m 310 -231 l 310 -82 l 190 -82 l 190 -231 z "},"ṛ":{"ha":385,"x_min":0,"x_max":0,"o":"m 160 0 l 160 410 b 299 565 182 528 225 565 b 361 551 326 565 349 560 l 361 661 b 306 675 343 671 325 675 b 161 553 236 675 188 631 l 156 553 l 151 667 l 40 667 l 40 0 z m 156 -231 l 156 -82 l 36 -82 l 36 -231 z "},"Ṣ":{"ha":521,"x_min":0,"x_max":0,"o":"m 472 650 l 472 690 b 256 931 472 829 424 931 b 36 724 103 931 36 846 l 36 683 b 107 514 36 610 61 561 b 299 371 164 458 235 424 b 358 254 344 335 358 311 l 358 213 b 257 107 358 139 322 107 b 150 222 182 107 150 147 l 150 276 l 32 276 l 32 224 b 260 -8 32 72 99 -8 b 489 215 421 -8 489 71 l 489 272 b 422 439 489 357 465 401 b 214 583 371 485 276 535 b 160 682 171 618 160 642 l 160 718 b 257 814 160 772 190 814 b 356 703 326 814 356 771 l 356 650 z m 317 -231 l 317 -82 l 197 -82 l 197 -231 z "},"ṣ":{"ha":490,"x_min":0,"x_max":0,"o":"m 449 461 l 449 494 b 243 675 449 606 381 675 b 42 521 114 675 42 613 l 42 488 b 101 369 42 442 57 403 b 279 268 142 339 271 272 b 338 190 329 240 338 218 l 338 164 b 244 90 338 114 310 90 b 149 169 175 90 149 117 l 149 214 l 35 214 l 35 174 b 250 -8 35 56 99 -8 b 456 165 392 -8 456 49 l 456 196 b 383 329 456 264 429 299 b 204 422 329 365 267 383 b 156 489 164 447 156 461 l 156 510 b 247 575 156 551 188 575 b 336 500 310 575 336 549 l 336 461 z m 310 -231 l 310 -82 l 190 -82 l 190 -231 z "},"Ṭ":{"ha":486,"x_min":0,"x_max":0,"o":"m 304 0 l 304 810 l 461 810 l 461 922 l 26 922 l 26 810 l 181 810 l 181 0 z m 303 -231 l 303 -82 l 183 -82 l 183 -231 z "},"ṭ":{"ha":476,"x_min":0,"x_max":0,"o":"m 332 200 b 250 100 332 132 310 100 b 158 200 188 100 158 132 l 158 560 l 435 560 l 435 667 l 158 667 l 158 851 l 40 851 l 40 200 b 249 -8 40 60 106 -8 b 435 200 389 -8 435 60 l 435 381 l 332 381 z m 307 -231 l 307 -82 l 188 -82 l 188 -231 z "},"Ẁ":{"ha":757,"x_min":0,"x_max":0,"o":"m 285 0 l 375 714 l 381 714 l 472 0 l 629 0 l 740 922 l 622 922 l 543 221 l 538 221 l 449 922 l 308 922 l 222 221 l 217 221 l 136 922 l 17 922 l 128 0 z m 442 940 l 489 989 l 282 1215 l 218 1143 z "},"ẁ":{"ha":692,"x_min":0,"x_max":0,"o":"m 260 0 l 343 510 l 349 510 l 432 0 l 578 0 l 678 667 l 568 667 l 497 167 l 492 167 l 411 667 l 281 667 l 203 167 l 197 167 l 125 667 l 14 667 l 114 0 z m 411 700 l 458 749 l 251 975 l 188 903 z "},"Ẃ":{"ha":757,"x_min":0,"x_max":0,"o":"m 285 0 l 375 714 l 381 714 l 472 0 l 629 0 l 740 922 l 622 922 l 543 221 l 538 221 l 449 922 l 308 922 l 222 221 l 217 221 l 136 922 l 17 922 l 128 0 z m 544 1143 l 481 1215 l 274 989 l 321 940 z "},"ẃ":{"ha":692,"x_min":0,"x_max":0,"o":"m 260 0 l 343 510 l 349 510 l 432 0 l 578 0 l 678 667 l 568 667 l 497 167 l 492 167 l 411 667 l 281 667 l 203 167 l 197 167 l 125 667 l 14 667 l 114 0 z m 508 903 l 444 975 l 238 749 l 285 700 z "},"Ẅ":{"ha":757,"x_min":0,"x_max":0,"o":"m 285 0 l 375 714 l 381 714 l 472 0 l 629 0 l 740 922 l 622 922 l 543 221 l 538 221 l 449 922 l 308 922 l 222 221 l 217 221 l 136 922 l 17 922 l 128 0 z m 328 989 l 328 1139 l 217 1139 l 217 989 z m 538 989 l 538 1139 l 426 1139 l 426 989 z "},"ẅ":{"ha":692,"x_min":0,"x_max":0,"o":"m 260 0 l 343 510 l 349 510 l 432 0 l 578 0 l 678 667 l 568 667 l 497 167 l 492 167 l 411 667 l 281 667 l 203 167 l 197 167 l 125 667 l 14 667 l 114 0 z m 296 749 l 296 899 l 185 899 l 185 749 z m 506 749 l 506 899 l 394 899 l 394 749 z "},"Ẓ":{"ha":468,"x_min":0,"x_max":0,"o":"m 442 0 l 442 113 l 156 113 l 435 808 l 435 922 l 29 922 l 29 810 l 308 810 l 26 115 l 26 0 z m 293 -231 l 293 -82 l 174 -82 l 174 -231 z "},"ẓ":{"ha":426,"x_min":0,"x_max":0,"o":"m 399 0 l 399 110 l 156 110 l 393 558 l 393 667 l 31 667 l 31 560 l 267 560 l 29 113 l 29 0 z m 274 -231 l 274 -82 l 154 -82 l 154 -231 z "},"ẞ":{"ha":569,"x_min":0,"x_max":0,"o":"m 224 7 b 339 -8 244 0 289 -8 b 532 207 468 -8 532 49 l 532 414 b 376 578 532 535 464 578 l 503 817 l 503 922 l 257 922 b 38 693 114 922 38 842 l 38 0 l 163 0 l 163 692 b 274 810 163 769 200 810 l 383 810 l 261 576 l 261 467 b 332 483 288 478 311 483 b 410 406 376 483 410 460 l 410 203 b 311 101 410 125 378 101 b 224 117 283 101 250 106 z "},"Ạ":{"ha":517,"x_min":0,"x_max":0,"o":"m 499 0 l 342 922 l 174 922 l 17 0 l 138 0 l 171 217 l 340 217 l 376 0 z m 253 728 l 258 728 l 324 324 l 188 324 z m 315 -231 l 315 -82 l 196 -82 l 196 -231 z "},"ạ":{"ha":493,"x_min":0,"x_max":0,"o":"m 336 176 b 228 97 315 124 283 97 b 149 168 176 97 149 119 l 149 228 b 240 329 149 279 163 306 b 336 367 292 344 308 346 z m 454 0 l 454 519 b 256 675 454 625 386 675 b 42 510 121 675 42 621 l 42 453 l 154 453 l 154 496 b 249 571 154 546 186 571 b 335 503 307 571 335 549 l 335 475 b 208 401 335 431 269 419 b 31 207 78 364 31 324 l 31 140 b 176 -8 31 50 72 -8 b 335 85 264 -8 306 33 l 340 85 l 344 0 z m 306 -231 l 306 -82 l 186 -82 l 186 -231 z "},"Ả":{"ha":517,"x_min":0,"x_max":0,"o":"m 499 0 l 342 922 l 174 922 l 17 0 l 138 0 l 171 217 l 340 217 l 376 0 z m 253 728 l 258 728 l 324 324 l 188 324 z m 283 958 b 376 1097 283 1010 376 1008 b 272 1199 376 1158 332 1199 b 164 1161 239 1199 192 1186 l 185 1096 b 261 1125 210 1114 232 1125 b 307 1086 293 1125 307 1108 b 224 958 307 1032 224 1036 z "},"ả":{"ha":493,"x_min":0,"x_max":0,"o":"m 336 176 b 228 97 315 124 283 97 b 149 168 176 97 149 119 l 149 228 b 240 329 149 279 163 306 b 336 367 292 344 308 346 z m 454 0 l 454 519 b 256 675 454 625 386 675 b 42 510 121 675 42 621 l 42 453 l 154 453 l 154 496 b 249 571 154 546 186 571 b 335 503 307 571 335 549 l 335 475 b 208 401 335 431 269 419 b 31 207 78 364 31 324 l 31 140 b 176 -8 31 50 72 -8 b 335 85 264 -8 306 33 l 340 85 l 344 0 z m 268 718 b 361 857 268 769 361 768 b 257 958 361 918 317 958 b 149 921 224 958 176 946 l 169 856 b 246 885 194 874 217 885 b 292 846 278 885 292 868 b 208 718 292 792 208 796 z "},"Ấ":{"ha":517,"x_min":0,"x_max":0,"o":"m 499 0 l 342 922 l 174 922 l 17 0 l 138 0 l 171 217 l 340 217 l 376 0 z m 253 728 l 258 728 l 324 324 l 188 324 z m 439 982 l 310 1160 l 200 1160 l 72 982 l 125 940 l 256 1089 l 386 940 z m 599 1257 l 536 1328 l 365 1140 l 411 1093 z "},"ấ":{"ha":493,"x_min":0,"x_max":0,"o":"m 336 176 b 228 97 315 124 283 97 b 149 168 176 97 149 119 l 149 228 b 240 329 149 279 163 306 b 336 367 292 344 308 346 z m 454 0 l 454 519 b 256 675 454 625 386 675 b 42 510 121 675 42 621 l 42 453 l 154 453 l 154 496 b 249 571 154 546 186 571 b 335 503 307 571 335 549 l 335 475 b 208 401 335 431 269 419 b 31 207 78 364 31 324 l 31 140 b 176 -8 31 50 72 -8 b 335 85 264 -8 306 33 l 340 85 l 344 0 z m 436 742 l 307 919 l 197 919 l 69 742 l 122 700 l 253 849 l 383 700 z m 596 1017 l 533 1088 l 363 900 l 408 853 z "},"Ầ":{"ha":517,"x_min":0,"x_max":0,"o":"m 499 0 l 342 922 l 174 922 l 17 0 l 138 0 l 171 217 l 340 217 l 376 0 z m 253 728 l 258 728 l 324 324 l 188 324 z m 436 982 l 307 1160 l 197 1160 l 69 982 l 122 940 l 253 1089 l 383 940 z m 482 1093 l 528 1140 l 357 1328 l 293 1257 z "},"ầ":{"ha":493,"x_min":0,"x_max":0,"o":"m 336 176 b 228 97 315 124 283 97 b 149 168 176 97 149 119 l 149 228 b 240 329 149 279 163 306 b 336 367 292 344 308 346 z m 454 0 l 454 519 b 256 675 454 625 386 675 b 42 510 121 675 42 621 l 42 453 l 154 453 l 154 496 b 249 571 154 546 186 571 b 335 503 307 571 335 549 l 335 475 b 208 401 335 431 269 419 b 31 207 78 364 31 324 l 31 140 b 176 -8 31 50 72 -8 b 335 85 264 -8 306 33 l 340 85 l 344 0 z m 426 742 l 297 919 l 188 919 l 60 742 l 113 700 l 243 849 l 374 700 z m 472 853 l 518 900 l 347 1088 l 283 1017 z "},"Ẩ":{"ha":517,"x_min":0,"x_max":0,"o":"m 499 0 l 342 922 l 174 922 l 17 0 l 138 0 l 171 217 l 340 217 l 376 0 z m 253 728 l 258 728 l 324 324 l 188 324 z m 443 982 l 314 1160 l 204 1160 l 76 982 l 129 940 l 260 1089 l 390 940 z m 478 1088 b 571 1226 478 1139 571 1138 b 467 1328 571 1288 528 1328 b 360 1290 435 1328 388 1315 l 381 1225 b 456 1254 404 1243 428 1254 b 501 1215 489 1254 501 1238 b 418 1088 501 1161 418 1165 z "},"ẩ":{"ha":493,"x_min":0,"x_max":0,"o":"m 336 176 b 228 97 315 124 283 97 b 149 168 176 97 149 119 l 149 228 b 240 329 149 279 163 306 b 336 367 292 344 308 346 z m 454 0 l 454 519 b 256 675 454 625 386 675 b 42 510 121 675 42 621 l 42 453 l 154 453 l 154 496 b 249 571 154 546 186 571 b 335 503 307 571 335 549 l 335 475 b 208 401 335 431 269 419 b 31 207 78 364 31 324 l 31 140 b 176 -8 31 50 72 -8 b 335 85 264 -8 306 33 l 340 85 l 344 0 z m 419 742 l 290 919 l 181 919 l 53 742 l 106 700 l 236 849 l 367 700 z m 454 847 b 547 986 454 899 547 897 b 443 1088 547 1047 504 1088 b 336 1050 411 1088 364 1075 l 357 985 b 432 1014 381 1003 404 1014 b 478 975 465 1014 478 997 b 394 847 478 921 394 925 z "},"Ẫ":{"ha":517,"x_min":0,"x_max":0,"o":"m 499 0 l 342 922 l 174 922 l 17 0 l 138 0 l 171 217 l 340 217 l 376 0 z m 253 728 l 258 728 l 324 324 l 188 324 z m 438 982 l 308 1160 l 199 1160 l 71 982 l 124 940 l 254 1089 l 385 940 z m 392 1310 b 336 1269 379 1278 361 1269 b 169 1317 276 1269 232 1317 b 69 1233 124 1317 85 1290 l 124 1201 b 179 1243 135 1235 153 1243 b 344 1196 238 1243 283 1196 b 446 1279 392 1196 429 1221 z "},"ẫ":{"ha":493,"x_min":0,"x_max":0,"o":"m 336 176 b 228 97 315 124 283 97 b 149 168 176 97 149 119 l 149 228 b 240 329 149 279 163 306 b 336 367 292 344 308 346 z m 454 0 l 454 519 b 256 675 454 625 386 675 b 42 510 121 675 42 621 l 42 453 l 154 453 l 154 496 b 249 571 154 546 186 571 b 335 503 307 571 335 549 l 335 475 b 208 401 335 431 269 419 b 31 207 78 364 31 324 l 31 140 b 176 -8 31 50 72 -8 b 335 85 264 -8 306 33 l 340 85 l 344 0 z m 425 742 l 296 919 l 186 919 l 58 742 l 111 700 l 242 849 l 372 700 z m 379 1069 b 324 1029 367 1038 349 1029 b 157 1076 264 1029 219 1076 b 57 993 111 1076 72 1050 l 111 961 b 167 1003 122 994 140 1003 b 332 956 225 1003 271 956 b 433 1039 379 956 417 981 z "},"Ậ":{"ha":517,"x_min":0,"x_max":0,"o":"m 499 0 l 342 922 l 174 922 l 17 0 l 138 0 l 171 217 l 340 217 l 376 0 z m 253 728 l 258 728 l 324 324 l 188 324 z m 439 983 l 310 1163 l 200 1163 l 72 983 l 125 942 l 256 1092 l 386 942 z m 318 -231 l 318 -82 l 199 -82 l 199 -231 z "},"ậ":{"ha":493,"x_min":0,"x_max":0,"o":"m 336 176 b 228 97 315 124 283 97 b 149 168 176 97 149 119 l 149 228 b 240 329 149 279 163 306 b 336 367 292 344 308 346 z m 454 0 l 454 519 b 256 675 454 625 386 675 b 42 510 121 675 42 621 l 42 453 l 154 453 l 154 496 b 249 571 154 546 186 571 b 335 503 307 571 335 549 l 335 475 b 208 401 335 431 269 419 b 31 207 78 364 31 324 l 31 140 b 176 -8 31 50 72 -8 b 335 85 264 -8 306 33 l 340 85 l 344 0 z m 428 743 l 299 922 l 189 922 l 61 743 l 114 701 l 244 851 l 375 701 z m 304 -231 l 304 -82 l 185 -82 l 185 -231 z "},"Ắ":{"ha":517,"x_min":0,"x_max":0,"o":"m 499 0 l 342 922 l 174 922 l 17 0 l 138 0 l 171 217 l 340 217 l 376 0 z m 253 728 l 258 728 l 324 324 l 188 324 z m 260 936 b 447 1138 371 936 447 997 l 358 1138 b 260 1004 356 1046 324 1004 b 161 1138 197 1004 164 1046 l 74 1138 b 260 936 74 999 150 936 z m 433 1257 l 369 1328 l 185 1125 l 231 1078 z "},"ắ":{"ha":493,"x_min":0,"x_max":0,"o":"m 336 176 b 228 97 315 124 283 97 b 149 168 176 97 149 119 l 149 228 b 240 329 149 279 163 306 b 336 367 292 344 308 346 z m 454 0 l 454 519 b 256 675 454 625 386 675 b 42 510 121 675 42 621 l 42 453 l 154 453 l 154 496 b 249 571 154 546 186 571 b 335 503 307 571 335 549 l 335 475 b 208 401 335 431 269 419 b 31 207 78 364 31 324 l 31 140 b 176 -8 31 50 72 -8 b 335 85 264 -8 306 33 l 340 85 l 344 0 z m 250 696 b 438 897 361 696 438 757 l 349 897 b 250 764 346 806 314 764 b 151 897 188 764 154 806 l 64 897 b 250 696 64 758 140 696 z m 424 1017 l 360 1088 l 175 885 l 221 838 z "},"Ằ":{"ha":517,"x_min":0,"x_max":0,"o":"m 499 0 l 342 922 l 174 922 l 17 0 l 138 0 l 171 217 l 340 217 l 376 0 z m 253 728 l 258 728 l 324 324 l 188 324 z m 263 936 b 449 1138 372 936 449 999 l 361 1138 b 263 1004 358 1046 325 1004 b 164 1138 199 1004 167 1046 l 75 1138 b 263 936 75 997 151 936 z m 293 1078 l 339 1125 l 154 1328 l 90 1257 z "},"ằ":{"ha":493,"x_min":0,"x_max":0,"o":"m 336 176 b 228 97 315 124 283 97 b 149 168 176 97 149 119 l 149 228 b 240 329 149 279 163 306 b 336 367 292 344 308 346 z m 454 0 l 454 519 b 256 675 454 625 386 675 b 42 510 121 675 42 621 l 42 453 l 154 453 l 154 496 b 249 571 154 546 186 571 b 335 503 307 571 335 549 l 335 475 b 208 401 335 431 269 419 b 31 207 78 364 31 324 l 31 140 b 176 -8 31 50 72 -8 b 335 85 264 -8 306 33 l 340 85 l 344 0 z m 247 696 b 433 897 357 696 433 758 l 346 897 b 247 764 343 806 310 764 b 149 897 183 764 151 806 l 60 897 b 247 696 60 757 136 696 z m 278 838 l 324 885 l 139 1088 l 75 1017 z "},"Ẳ":{"ha":517,"x_min":0,"x_max":0,"o":"m 499 0 l 342 922 l 174 922 l 17 0 l 138 0 l 171 217 l 340 217 l 376 0 z m 253 728 l 258 728 l 324 324 l 188 324 z m 257 936 b 444 1138 367 936 444 997 l 356 1138 b 257 1004 353 1046 319 1004 b 158 1138 193 1004 160 1046 l 71 1138 b 257 936 71 999 146 936 z m 272 1096 b 364 1229 272 1146 364 1144 b 261 1328 364 1289 321 1328 b 153 1292 228 1328 181 1315 l 174 1229 b 249 1257 197 1247 221 1257 b 294 1219 282 1257 294 1240 b 211 1096 294 1167 211 1171 z "},"ẳ":{"ha":493,"x_min":0,"x_max":0,"o":"m 336 176 b 228 97 315 124 283 97 b 149 168 176 97 149 119 l 149 228 b 240 329 149 279 163 306 b 336 367 292 344 308 346 z m 454 0 l 454 519 b 256 675 454 625 386 675 b 42 510 121 675 42 621 l 42 453 l 154 453 l 154 496 b 249 571 154 546 186 571 b 335 503 307 571 335 549 l 335 475 b 208 401 335 431 269 419 b 31 207 78 364 31 324 l 31 140 b 176 -8 31 50 72 -8 b 335 85 264 -8 306 33 l 340 85 l 344 0 z m 247 696 b 435 897 357 696 435 757 l 346 897 b 247 764 343 806 310 764 b 149 897 183 764 150 806 l 61 897 b 247 696 61 758 136 696 z m 263 856 b 354 989 263 906 354 904 b 251 1088 354 1049 311 1088 b 143 1051 218 1088 171 1075 l 164 989 b 239 1017 188 1007 211 1017 b 285 979 272 1017 285 1000 b 201 856 285 926 201 931 z "},"Ẵ":{"ha":517,"x_min":0,"x_max":0,"o":"m 499 0 l 342 922 l 174 922 l 17 0 l 138 0 l 171 217 l 340 217 l 376 0 z m 253 728 l 258 728 l 324 324 l 188 324 z m 256 936 b 443 1138 365 936 443 997 l 354 1138 b 256 1004 351 1046 318 1004 b 157 1138 192 1004 158 1046 l 69 1138 b 256 936 69 999 144 936 z m 390 1290 b 335 1250 378 1258 360 1250 b 168 1296 275 1250 231 1296 b 68 1214 122 1296 83 1271 l 122 1182 b 178 1222 133 1214 151 1222 b 343 1176 236 1222 282 1176 b 444 1258 390 1176 428 1201 z "},"ẵ":{"ha":493,"x_min":0,"x_max":0,"o":"m 336 176 b 228 97 315 124 283 97 b 149 168 176 97 149 119 l 149 228 b 240 329 149 279 163 306 b 336 367 292 344 308 346 z m 454 0 l 454 519 b 256 675 454 625 386 675 b 42 510 121 675 42 621 l 42 453 l 154 453 l 154 496 b 249 571 154 546 186 571 b 335 503 307 571 335 549 l 335 475 b 208 401 335 431 269 419 b 31 207 78 364 31 324 l 31 140 b 176 -8 31 50 72 -8 b 335 85 264 -8 306 33 l 340 85 l 344 0 z m 242 696 b 429 897 351 696 429 757 l 340 897 b 242 764 338 806 304 764 b 143 897 178 764 144 806 l 56 897 b 242 696 56 758 131 696 z m 376 1050 b 321 1010 364 1018 346 1010 b 154 1056 261 1010 217 1056 b 54 974 108 1056 69 1031 l 108 942 b 164 982 119 974 138 982 b 329 936 222 982 268 936 b 431 1018 376 936 414 961 z "},"Ặ":{"ha":517,"x_min":0,"x_max":0,"o":"m 499 0 l 342 922 l 174 922 l 17 0 l 138 0 l 171 217 l 340 217 l 376 0 z m 253 728 l 258 728 l 324 324 l 188 324 z m 257 940 b 446 1161 368 940 446 1013 l 356 1161 b 257 1019 354 1064 319 1019 b 157 1161 193 1019 160 1064 l 69 1161 b 257 940 69 1014 146 940 z m 315 -231 l 315 -82 l 196 -82 l 196 -231 z "},"ặ":{"ha":493,"x_min":0,"x_max":0,"o":"m 336 176 b 228 97 315 124 283 97 b 149 168 176 97 149 119 l 149 228 b 240 329 149 279 163 306 b 336 367 292 344 308 346 z m 454 0 l 454 519 b 256 675 454 625 386 675 b 42 510 121 675 42 621 l 42 453 l 154 453 l 154 496 b 249 571 154 546 186 571 b 335 503 307 571 335 549 l 335 475 b 208 401 335 431 269 419 b 31 207 78 364 31 324 l 31 140 b 176 -8 31 50 72 -8 b 335 85 264 -8 306 33 l 340 85 l 344 0 z m 240 700 b 429 921 351 700 429 772 l 339 921 b 240 779 338 824 303 779 b 140 921 176 779 143 824 l 53 921 b 240 700 53 774 129 700 z m 300 -231 l 300 -82 l 181 -82 l 181 -231 z "},"Ẹ":{"ha":406,"x_min":0,"x_max":0,"o":"m 382 0 l 382 113 l 160 113 l 160 426 l 353 426 l 353 540 l 160 540 l 160 810 l 371 810 l 371 922 l 38 922 l 38 0 z m 267 -231 l 267 -82 l 147 -82 l 147 -231 z "},"ẹ":{"ha":499,"x_min":0,"x_max":0,"o":"m 458 231 l 340 231 l 340 197 b 247 97 340 131 310 97 b 157 197 188 97 157 131 l 157 301 l 458 301 l 458 467 b 249 675 458 607 390 675 b 40 467 107 675 40 607 l 40 200 b 247 -8 40 58 107 -8 b 458 200 390 -8 458 61 z m 340 390 l 157 390 l 157 469 b 249 569 157 536 188 569 b 340 469 311 569 340 536 z m 308 -231 l 308 -82 l 189 -82 l 189 -231 z "},"Ẻ":{"ha":406,"x_min":0,"x_max":0,"o":"m 382 0 l 382 113 l 160 113 l 160 426 l 353 426 l 353 540 l 160 540 l 160 810 l 371 810 l 371 922 l 38 922 l 38 0 z m 240 958 b 333 1097 240 1010 333 1008 b 229 1199 333 1158 289 1199 b 121 1161 196 1199 149 1186 l 142 1096 b 218 1125 167 1114 189 1125 b 264 1086 250 1125 264 1108 b 181 958 264 1032 181 1036 z "},"ẻ":{"ha":499,"x_min":0,"x_max":0,"o":"m 458 231 l 340 231 l 340 197 b 247 97 340 131 310 97 b 157 197 188 97 157 131 l 157 301 l 458 301 l 458 467 b 249 675 458 607 390 675 b 40 467 107 675 40 607 l 40 200 b 247 -8 40 58 107 -8 b 458 200 390 -8 458 61 z m 340 390 l 157 390 l 157 469 b 249 569 157 536 188 569 b 340 469 311 569 340 536 z m 272 718 b 365 857 272 769 365 768 b 261 958 365 918 321 958 b 153 921 228 958 181 946 l 174 856 b 250 885 199 874 221 885 b 296 846 282 885 296 868 b 213 718 296 792 213 796 z "},"Ẽ":{"ha":406,"x_min":0,"x_max":0,"o":"m 382 0 l 382 113 l 160 113 l 160 426 l 353 426 l 353 540 l 160 540 l 160 810 l 371 810 l 371 922 l 38 922 l 38 0 z m 340 1089 b 285 1049 329 1057 310 1049 b 119 1094 226 1049 181 1094 b 18 1013 72 1094 35 1069 l 72 981 b 128 1021 85 1013 103 1021 b 293 975 188 1021 232 975 b 394 1057 340 975 379 1000 z "},"ẽ":{"ha":499,"x_min":0,"x_max":0,"o":"m 458 231 l 340 231 l 340 197 b 247 97 340 131 310 97 b 157 197 188 97 157 131 l 157 301 l 458 301 l 458 467 b 249 675 458 607 390 675 b 40 467 107 675 40 607 l 40 200 b 247 -8 40 58 107 -8 b 458 200 390 -8 458 61 z m 340 390 l 157 390 l 157 469 b 249 569 157 536 188 569 b 340 469 311 569 340 536 z m 382 849 b 326 808 371 817 351 808 b 161 854 268 808 222 854 b 60 772 114 854 76 829 l 114 740 b 169 781 126 772 144 781 b 335 735 229 781 274 735 b 436 817 382 735 421 760 z "},"Ế":{"ha":406,"x_min":0,"x_max":0,"o":"m 382 0 l 382 113 l 160 113 l 160 426 l 353 426 l 353 540 l 160 540 l 160 810 l 371 810 l 371 922 l 38 922 l 38 0 z m 394 982 l 265 1160 l 156 1160 l 28 982 l 81 940 l 211 1089 l 342 940 z m 554 1257 l 492 1328 l 321 1140 l 367 1093 z "},"ế":{"ha":499,"x_min":0,"x_max":0,"o":"m 458 231 l 340 231 l 340 197 b 247 97 340 131 310 97 b 157 197 188 97 157 131 l 157 301 l 458 301 l 458 467 b 249 675 458 607 390 675 b 40 467 107 675 40 607 l 40 200 b 247 -8 40 58 107 -8 b 458 200 390 -8 458 61 z m 340 390 l 157 390 l 157 469 b 249 569 157 536 188 569 b 340 469 311 569 340 536 z m 435 742 l 306 919 l 196 919 l 68 742 l 121 700 l 251 849 l 382 700 z m 594 1017 l 532 1088 l 361 900 l 407 853 z "},"Ề":{"ha":406,"x_min":0,"x_max":0,"o":"m 382 0 l 382 113 l 160 113 l 160 426 l 353 426 l 353 540 l 160 540 l 160 810 l 371 810 l 371 922 l 38 922 l 38 0 z m 390 982 l 261 1160 l 151 1160 l 24 982 l 76 940 l 207 1089 l 338 940 z m 436 1093 l 482 1140 l 311 1328 l 247 1257 z "},"ề":{"ha":499,"x_min":0,"x_max":0,"o":"m 458 231 l 340 231 l 340 197 b 247 97 340 131 310 97 b 157 197 188 97 157 131 l 157 301 l 458 301 l 458 467 b 249 675 458 607 390 675 b 40 467 107 675 40 607 l 40 200 b 247 -8 40 58 107 -8 b 458 200 390 -8 458 61 z m 340 390 l 157 390 l 157 469 b 249 569 157 536 188 569 b 340 469 311 569 340 536 z m 425 742 l 296 919 l 186 919 l 58 742 l 111 700 l 242 849 l 372 700 z m 471 853 l 517 900 l 346 1088 l 282 1017 z "},"Ể":{"ha":406,"x_min":0,"x_max":0,"o":"m 382 0 l 382 113 l 160 113 l 160 426 l 353 426 l 353 540 l 160 540 l 160 810 l 371 810 l 371 922 l 38 922 l 38 0 z m 392 982 l 263 1160 l 153 1160 l 25 982 l 78 940 l 208 1089 l 339 940 z m 426 1088 b 519 1226 426 1139 519 1138 b 415 1328 519 1288 476 1328 b 308 1290 383 1328 336 1315 l 329 1225 b 404 1254 353 1243 376 1254 b 450 1215 438 1254 450 1238 b 367 1088 450 1161 367 1165 z "},"ể":{"ha":499,"x_min":0,"x_max":0,"o":"m 458 231 l 340 231 l 340 197 b 247 97 340 131 310 97 b 157 197 188 97 157 131 l 157 301 l 458 301 l 458 467 b 249 675 458 607 390 675 b 40 467 107 675 40 607 l 40 200 b 247 -8 40 58 107 -8 b 458 200 390 -8 458 61 z m 340 390 l 157 390 l 157 469 b 249 569 157 536 188 569 b 340 469 311 569 340 536 z m 425 742 l 296 919 l 186 919 l 58 742 l 111 700 l 242 849 l 372 700 z m 460 847 b 553 986 460 899 553 897 b 449 1088 553 1047 510 1088 b 342 1050 417 1088 369 1075 l 363 985 b 438 1014 386 1003 410 1014 b 483 975 471 1014 483 997 b 400 847 483 921 400 925 z "},"Ễ":{"ha":406,"x_min":0,"x_max":0,"o":"m 382 0 l 382 113 l 160 113 l 160 426 l 353 426 l 353 540 l 160 540 l 160 810 l 371 810 l 371 922 l 38 922 l 38 0 z m 396 982 l 267 1160 l 157 1160 l 29 982 l 82 940 l 213 1089 l 343 940 z m 350 1310 b 294 1269 338 1278 319 1269 b 128 1317 235 1269 190 1317 b 28 1233 82 1317 43 1290 l 82 1201 b 138 1243 93 1235 111 1243 b 303 1196 196 1243 242 1196 b 404 1279 350 1196 388 1221 z "},"ễ":{"ha":499,"x_min":0,"x_max":0,"o":"m 458 231 l 340 231 l 340 197 b 247 97 340 131 310 97 b 157 197 188 97 157 131 l 157 301 l 458 301 l 458 467 b 249 675 458 607 390 675 b 40 467 107 675 40 607 l 40 200 b 247 -8 40 58 107 -8 b 458 200 390 -8 458 61 z m 340 390 l 157 390 l 157 469 b 249 569 157 536 188 569 b 340 469 311 569 340 536 z m 432 742 l 303 919 l 193 919 l 65 742 l 118 700 l 249 849 l 379 700 z m 386 1069 b 331 1029 374 1038 356 1029 b 164 1076 271 1029 226 1076 b 64 993 118 1076 79 1050 l 118 961 b 174 1003 129 994 147 1003 b 339 956 232 1003 278 956 b 440 1039 386 956 424 981 z "},"Ệ":{"ha":406,"x_min":0,"x_max":0,"o":"m 382 0 l 382 113 l 160 113 l 160 426 l 353 426 l 353 540 l 160 540 l 160 810 l 371 810 l 371 922 l 38 922 l 38 0 z m 399 983 l 269 1163 l 160 1163 l 32 983 l 85 942 l 215 1092 l 346 942 z m 275 -231 l 275 -82 l 156 -82 l 156 -231 z "},"ệ":{"ha":499,"x_min":0,"x_max":0,"o":"m 458 231 l 340 231 l 340 197 b 247 97 340 131 310 97 b 157 197 188 97 157 131 l 157 301 l 458 301 l 458 467 b 249 675 458 607 390 675 b 40 467 107 675 40 607 l 40 200 b 247 -8 40 58 107 -8 b 458 200 390 -8 458 61 z m 340 390 l 157 390 l 157 469 b 249 569 157 536 188 569 b 340 469 311 569 340 536 z m 431 743 l 301 922 l 192 922 l 64 743 l 117 701 l 247 851 l 378 701 z m 307 -231 l 307 -82 l 188 -82 l 188 -231 z "},"Ỉ":{"ha":219,"x_min":0,"x_max":0,"o":"m 163 0 l 163 922 l 38 922 l 38 0 z m 126 958 b 219 1097 126 1010 219 1008 b 115 1199 219 1158 175 1199 b 7 1161 82 1199 35 1186 l 28 1096 b 104 1125 53 1114 75 1125 b 150 1086 136 1125 150 1108 b 67 958 150 1032 67 1036 z "},"ỉ":{"ha":218,"x_min":0,"x_max":0,"o":"m 160 0 l 160 667 l 40 667 l 40 0 z m 126 718 b 219 857 126 769 219 768 b 115 958 219 918 175 958 b 7 921 82 958 35 946 l 28 856 b 104 885 53 874 75 885 b 150 846 136 885 150 868 b 67 718 150 792 67 796 z "},"Ị":{"ha":200,"x_min":0,"x_max":0,"o":"m 163 0 l 163 922 l 38 922 l 38 0 z m 161 -231 l 161 -82 l 42 -82 l 42 -231 z "},"ị":{"ha":201,"x_min":0,"x_max":0,"o":"m 160 0 l 160 667 l 40 667 l 40 0 z m 160 749 l 160 899 l 40 899 l 40 749 z m 158 -231 l 158 -82 l 39 -82 l 39 -231 z "},"Ọ":{"ha":503,"x_min":0,"x_max":0,"o":"m 469 690 b 251 931 469 840 390 931 b 32 693 113 931 32 843 l 32 225 b 253 -8 32 75 110 -8 b 469 222 392 -8 469 68 z m 347 215 b 251 107 347 142 313 107 b 156 217 189 107 156 144 l 156 703 b 250 814 156 775 190 814 b 347 701 313 814 347 774 z m 311 -231 l 311 -82 l 192 -82 l 192 -231 z "},"ọ":{"ha":497,"x_min":0,"x_max":0,"o":"m 457 467 b 249 675 457 610 390 675 b 40 467 107 675 40 610 l 40 200 b 249 -8 40 57 107 -8 b 457 200 390 -8 457 57 z m 340 200 b 249 100 340 132 310 100 b 157 200 188 100 157 132 l 157 467 b 249 567 157 535 188 567 b 340 467 310 567 340 535 z m 310 -231 l 310 -82 l 190 -82 l 190 -231 z "},"Ỏ":{"ha":503,"x_min":0,"x_max":0,"o":"m 469 690 b 251 931 469 840 390 931 b 32 693 113 931 32 843 l 32 225 b 253 -8 32 75 110 -8 b 469 222 392 -8 469 68 z m 347 215 b 251 107 347 142 313 107 b 156 217 189 107 156 144 l 156 703 b 250 814 156 775 190 814 b 347 701 313 814 347 774 z m 275 958 b 368 1097 275 1010 368 1008 b 264 1199 368 1158 324 1199 b 156 1161 231 1199 183 1186 l 176 1096 b 253 1125 201 1114 224 1125 b 299 1086 285 1125 299 1108 b 215 958 299 1032 215 1036 z "},"ỏ":{"ha":497,"x_min":0,"x_max":0,"o":"m 457 467 b 249 675 457 610 390 675 b 40 467 107 675 40 610 l 40 200 b 249 -8 40 57 107 -8 b 457 200 390 -8 457 57 z m 340 200 b 249 100 340 132 310 100 b 157 200 188 100 157 132 l 157 467 b 249 567 157 535 188 567 b 340 467 310 567 340 535 z m 271 718 b 364 857 271 769 364 768 b 260 958 364 918 319 958 b 151 921 226 958 179 946 l 172 856 b 249 885 197 874 219 885 b 294 846 281 885 294 868 b 211 718 294 792 211 796 z "},"Ố":{"ha":503,"x_min":0,"x_max":0,"o":"m 469 690 b 251 931 469 840 390 931 b 32 693 113 931 32 843 l 32 225 b 253 -8 32 75 110 -8 b 469 222 392 -8 469 68 z m 347 215 b 251 107 347 142 313 107 b 156 217 189 107 156 144 l 156 703 b 250 814 156 775 190 814 b 347 701 313 814 347 774 z m 440 982 l 311 1160 l 201 1160 l 74 982 l 126 940 l 257 1089 l 388 940 z m 600 1257 l 538 1328 l 367 1140 l 413 1093 z "},"ố":{"ha":497,"x_min":0,"x_max":0,"o":"m 457 467 b 249 675 457 610 390 675 b 40 467 107 675 40 610 l 40 200 b 249 -8 40 57 107 -8 b 457 200 390 -8 457 57 z m 340 200 b 249 100 340 132 310 100 b 157 200 188 100 157 132 l 157 467 b 249 567 157 535 188 567 b 340 467 310 567 340 535 z m 431 742 l 301 919 l 192 919 l 64 742 l 117 700 l 247 849 l 378 700 z m 590 1017 l 528 1088 l 357 900 l 403 853 z "},"Ồ":{"ha":503,"x_min":0,"x_max":0,"o":"m 469 690 b 251 931 469 840 390 931 b 32 693 113 931 32 843 l 32 225 b 253 -8 32 75 110 -8 b 469 222 392 -8 469 68 z m 347 215 b 251 107 347 142 313 107 b 156 217 189 107 156 144 l 156 703 b 250 814 156 775 190 814 b 347 701 313 814 347 774 z m 438 982 l 308 1160 l 199 1160 l 71 982 l 124 940 l 254 1089 l 385 940 z m 483 1093 l 529 1140 l 358 1328 l 294 1257 z "},"ồ":{"ha":497,"x_min":0,"x_max":0,"o":"m 457 467 b 249 675 457 610 390 675 b 40 467 107 675 40 610 l 40 200 b 249 -8 40 57 107 -8 b 457 200 390 -8 457 57 z m 340 200 b 249 100 340 132 310 100 b 157 200 188 100 157 132 l 157 467 b 249 567 157 535 188 567 b 340 467 310 567 340 535 z m 428 742 l 299 919 l 189 919 l 61 742 l 114 700 l 244 849 l 375 700 z m 474 853 l 519 900 l 349 1088 l 285 1017 z "},"Ổ":{"ha":503,"x_min":0,"x_max":0,"o":"m 469 690 b 251 931 469 840 390 931 b 32 693 113 931 32 843 l 32 225 b 253 -8 32 75 110 -8 b 469 222 392 -8 469 68 z m 347 215 b 251 107 347 142 313 107 b 156 217 189 107 156 144 l 156 703 b 250 814 156 775 190 814 b 347 701 313 814 347 774 z m 435 982 l 306 1160 l 196 1160 l 68 982 l 121 940 l 251 1089 l 382 940 z m 469 1088 b 563 1226 469 1139 563 1138 b 458 1328 563 1288 519 1328 b 351 1290 426 1328 379 1315 l 372 1225 b 447 1254 396 1243 419 1254 b 493 1215 481 1254 493 1238 b 410 1088 493 1161 410 1165 z "},"ổ":{"ha":497,"x_min":0,"x_max":0,"o":"m 457 467 b 249 675 457 610 390 675 b 40 467 107 675 40 610 l 40 200 b 249 -8 40 57 107 -8 b 457 200 390 -8 457 57 z m 340 200 b 249 100 340 132 310 100 b 157 200 188 100 157 132 l 157 467 b 249 567 157 535 188 567 b 340 467 310 567 340 535 z m 431 742 l 301 919 l 192 919 l 64 742 l 117 700 l 247 849 l 378 700 z m 465 847 b 558 986 465 899 558 897 b 454 1088 558 1047 515 1088 b 347 1050 422 1088 375 1075 l 368 985 b 443 1014 392 1003 415 1014 b 489 975 476 1014 489 997 b 406 847 489 921 406 925 z "},"Ỗ":{"ha":503,"x_min":0,"x_max":0,"o":"m 469 690 b 251 931 469 840 390 931 b 32 693 113 931 32 843 l 32 225 b 253 -8 32 75 110 -8 b 469 222 392 -8 469 68 z m 347 215 b 251 107 347 142 313 107 b 156 217 189 107 156 144 l 156 703 b 250 814 156 775 190 814 b 347 701 313 814 347 774 z m 436 982 l 307 1160 l 197 1160 l 69 982 l 122 940 l 253 1089 l 383 940 z m 390 1310 b 335 1269 378 1278 360 1269 b 168 1317 275 1269 231 1317 b 68 1233 122 1317 83 1290 l 122 1201 b 178 1243 133 1235 151 1243 b 343 1196 236 1243 282 1196 b 444 1279 390 1196 428 1221 z "},"ỗ":{"ha":497,"x_min":0,"x_max":0,"o":"m 457 467 b 249 675 457 610 390 675 b 40 467 107 675 40 610 l 40 200 b 249 -8 40 57 107 -8 b 457 200 390 -8 457 57 z m 340 200 b 249 100 340 132 310 100 b 157 200 188 100 157 132 l 157 467 b 249 567 157 535 188 567 b 340 467 310 567 340 535 z m 435 742 l 306 919 l 196 919 l 68 742 l 121 700 l 251 849 l 382 700 z m 389 1069 b 333 1029 376 1038 358 1029 b 167 1076 274 1029 229 1076 b 67 993 121 1076 82 1050 l 121 961 b 176 1003 132 994 150 1003 b 342 956 235 1003 281 956 b 443 1039 389 956 426 981 z "},"Ộ":{"ha":503,"x_min":0,"x_max":0,"o":"m 469 690 b 251 931 469 840 390 931 b 32 693 113 931 32 843 l 32 225 b 253 -8 32 75 110 -8 b 469 222 392 -8 469 68 z m 347 215 b 251 107 347 142 313 107 b 156 217 189 107 156 144 l 156 703 b 250 814 156 775 190 814 b 347 701 313 814 347 774 z m 435 983 l 306 1163 l 196 1163 l 68 983 l 121 942 l 251 1092 l 382 942 z m 313 -231 l 313 -82 l 193 -82 l 193 -231 z "},"ộ":{"ha":497,"x_min":0,"x_max":0,"o":"m 457 467 b 249 675 457 610 390 675 b 40 467 107 675 40 610 l 40 200 b 249 -8 40 57 107 -8 b 457 200 390 -8 457 57 z m 340 200 b 249 100 340 132 310 100 b 157 200 188 100 157 132 l 157 467 b 249 567 157 535 188 567 b 340 467 310 567 340 535 z m 433 743 l 304 922 l 194 922 l 67 743 l 119 701 l 250 851 l 381 701 z m 308 -231 l 308 -82 l 189 -82 l 189 -231 z "},"Ớ":{"ha":583,"x_min":0,"x_max":0,"o":"m 469 690 b 422 847 469 757 453 810 b 482 842 446 843 469 842 b 572 968 547 842 572 878 b 561 1044 572 1000 569 1029 l 493 1044 b 500 978 499 1028 500 994 b 426 915 500 929 482 915 b 249 931 368 915 307 931 b 32 693 113 931 32 844 l 32 225 b 253 -8 32 75 108 -8 b 469 222 392 -8 469 67 z m 347 215 b 251 107 347 142 313 107 b 156 217 189 107 156 144 l 156 703 b 251 814 156 775 190 814 b 347 701 313 814 347 774 z m 404 1143 l 340 1215 l 133 989 l 181 940 z "},"ớ":{"ha":561,"x_min":0,"x_max":0,"o":"m 411 903 l 347 975 l 140 749 l 188 700 z m 457 467 b 425 588 457 518 446 557 b 463 586 439 586 449 586 b 551 713 525 586 551 622 b 539 789 551 744 547 774 l 471 789 b 478 722 476 772 478 739 b 408 660 478 675 463 660 b 242 675 354 660 306 675 b 40 467 108 675 40 606 l 40 200 b 249 -8 40 57 107 -8 b 457 200 390 -8 457 57 z m 340 200 b 249 100 340 132 310 100 b 157 200 188 100 157 132 l 157 467 b 249 567 157 535 188 567 b 340 467 310 567 340 535 z "},"Ờ":{"ha":583,"x_min":0,"x_max":0,"o":"m 469 690 b 422 847 469 757 453 810 b 482 842 446 843 469 842 b 572 968 547 842 572 878 b 561 1044 572 1000 569 1029 l 493 1044 b 500 978 499 1028 500 994 b 426 915 500 929 482 915 b 249 931 368 915 307 931 b 32 693 113 931 32 844 l 32 225 b 253 -8 32 75 108 -8 b 469 222 392 -8 469 67 z m 347 215 b 251 107 347 142 313 107 b 156 217 189 107 156 144 l 156 703 b 251 814 156 775 190 814 b 347 701 313 814 347 774 z m 315 940 l 363 989 l 156 1215 l 92 1143 z "},"ờ":{"ha":561,"x_min":0,"x_max":0,"o":"m 314 700 l 361 749 l 154 975 l 90 903 z m 457 467 b 425 588 457 518 446 557 b 463 586 439 586 449 586 b 551 713 525 586 551 622 b 539 789 551 744 547 774 l 471 789 b 478 722 476 772 478 739 b 408 660 478 675 463 660 b 242 675 354 660 306 675 b 40 467 108 675 40 606 l 40 200 b 249 -8 40 57 107 -8 b 457 200 390 -8 457 57 z m 340 200 b 249 100 340 132 310 100 b 157 200 188 100 157 132 l 157 467 b 249 567 157 535 188 567 b 340 467 310 567 340 535 z "},"Ở":{"ha":583,"x_min":0,"x_max":0,"o":"m 469 690 b 422 847 469 757 453 810 b 482 842 446 843 469 842 b 572 968 547 842 572 878 b 561 1044 572 1000 569 1029 l 493 1044 b 500 978 499 1028 500 994 b 426 915 500 929 482 915 b 249 931 368 915 307 931 b 32 693 113 931 32 844 l 32 225 b 253 -8 32 75 108 -8 b 469 222 392 -8 469 67 z m 347 215 b 251 107 347 142 313 107 b 156 217 189 107 156 144 l 156 703 b 251 814 156 775 190 814 b 347 701 313 814 347 774 z m 275 958 b 368 1097 275 1010 368 1008 b 264 1199 368 1158 324 1199 b 156 1161 231 1199 183 1186 l 176 1096 b 253 1125 201 1114 224 1125 b 299 1086 285 1125 299 1108 b 215 958 299 1032 215 1036 z "},"ở":{"ha":561,"x_min":0,"x_max":0,"o":"m 457 467 b 425 588 457 518 446 557 b 463 586 439 586 449 586 b 551 713 525 586 551 622 b 539 789 551 744 547 774 l 471 789 b 478 722 476 772 478 739 b 408 660 478 675 463 660 b 242 675 354 660 306 675 b 40 467 108 675 40 606 l 40 200 b 249 -8 40 57 107 -8 b 457 200 390 -8 457 57 z m 340 200 b 249 100 340 132 310 100 b 157 200 188 100 157 132 l 157 467 b 249 567 157 535 188 567 b 340 467 310 567 340 535 z m 276 718 b 369 857 276 769 369 768 b 265 958 369 918 325 958 b 157 921 232 958 185 946 l 178 856 b 254 885 203 874 225 885 b 300 846 286 885 300 868 b 217 718 300 792 217 796 z "},"Ỡ":{"ha":583,"x_min":0,"x_max":0,"o":"m 469 690 b 422 847 469 757 453 810 b 482 842 446 843 469 842 b 572 968 547 842 572 878 b 561 1044 572 1000 569 1029 l 493 1044 b 500 978 499 1028 500 994 b 426 915 500 929 482 915 b 249 931 368 915 307 931 b 32 693 113 931 32 844 l 32 225 b 253 -8 32 75 108 -8 b 469 222 392 -8 469 67 z m 347 215 b 251 107 347 142 313 107 b 156 217 189 107 156 144 l 156 703 b 251 814 156 775 190 814 b 347 701 313 814 347 774 z m 388 1089 b 332 1049 376 1057 357 1049 b 167 1094 274 1049 228 1094 b 65 1013 119 1094 82 1069 l 119 981 b 175 1021 132 1013 150 1021 b 340 975 235 1021 279 975 b 442 1057 388 975 426 1000 z "},"ỡ":{"ha":561,"x_min":0,"x_max":0,"o":"m 457 467 b 425 588 457 518 446 557 b 463 586 439 586 449 586 b 551 713 525 586 551 622 b 539 789 551 744 547 774 l 471 789 b 478 722 476 772 478 739 b 408 660 478 675 463 660 b 242 675 354 660 306 675 b 40 467 108 675 40 606 l 40 200 b 249 -8 40 57 107 -8 b 457 200 390 -8 457 57 z m 340 200 b 249 100 340 132 310 100 b 157 200 188 100 157 132 l 157 467 b 249 567 157 535 188 567 b 340 467 310 567 340 535 z m 383 849 b 328 808 372 817 353 808 b 163 854 269 808 224 854 b 61 772 115 854 78 829 l 115 740 b 171 781 128 772 146 781 b 336 735 231 781 275 735 b 438 817 383 735 422 760 z "},"Ợ":{"ha":583,"x_min":0,"x_max":0,"o":"m 469 690 b 422 847 469 757 453 810 b 482 842 446 843 469 842 b 572 968 547 842 572 878 b 561 1044 572 1000 569 1029 l 493 1044 b 500 978 499 1028 500 994 b 426 915 500 929 482 915 b 249 931 368 915 307 931 b 32 693 113 931 32 844 l 32 225 b 253 -8 32 75 108 -8 b 469 222 392 -8 469 67 z m 347 215 b 251 107 347 142 313 107 b 156 217 189 107 156 144 l 156 703 b 251 814 156 775 190 814 b 347 701 313 814 347 774 z m 311 -231 l 311 -82 l 192 -82 l 192 -231 z "},"ợ":{"ha":561,"x_min":0,"x_max":0,"o":"m 457 467 b 425 588 457 518 446 557 b 463 586 439 586 449 586 b 551 713 525 586 551 622 b 539 789 551 744 547 774 l 471 789 b 478 722 476 772 478 739 b 408 660 478 675 463 660 b 242 675 354 660 306 675 b 40 467 108 675 40 606 l 40 200 b 249 -8 40 57 107 -8 b 457 200 390 -8 457 57 z m 340 200 b 249 100 340 132 310 100 b 157 200 188 100 157 132 l 157 467 b 249 567 157 535 188 567 b 340 467 310 567 340 535 z m 310 -231 l 310 -82 l 190 -82 l 190 -231 z "},"Ụ":{"ha":511,"x_min":0,"x_max":0,"o":"m 350 217 b 254 107 350 144 318 107 b 160 215 193 107 160 142 l 160 922 l 38 922 l 38 222 b 256 -8 38 68 117 -8 b 472 225 399 -8 472 75 l 472 922 l 350 922 z m 313 -231 l 313 -82 l 193 -82 l 193 -231 z "},"ụ":{"ha":504,"x_min":0,"x_max":0,"o":"m 40 667 l 40 201 b 196 -8 40 65 82 -8 b 343 96 269 -8 313 21 l 349 96 l 351 0 l 464 0 l 464 667 l 344 667 l 344 206 b 247 97 328 125 307 97 b 161 200 188 97 161 125 l 161 667 z m 313 -231 l 313 -82 l 193 -82 l 193 -231 z "}}}
